ISO-10303-21;
HEADER;
/* Generated by software containing ST-Developer
 * from STEP Tools, Inc. (www.steptools.com) 
 */

FILE_DESCRIPTION(
/* description */ (''),
/* implementation_level */ '2;1');

FILE_NAME(
/* name */ '2020_8mm dia_cable guide.step',
/* time_stamp */ '2026-10-03T15:22:44-05:00',
/* author */ (''),
/* organization */ (''),
/* preprocessor_version */ 'ST-DEVELOPER v20.1',
/* originating_system */ 'Autodesk Translation Framework v15.8.0.0',
/* authorisation */ '');

FILE_SCHEMA (('AUTOMOTIVE_DESIGN { 1 0 10303 214 3 1 1 }'));
ENDSEC;

DATA;
#10=MECHANICAL_DESIGN_GEOMETRIC_PRESENTATION_REPRESENTATION('',(#17),#1163);
#11=ITEM_DEFINED_TRANSFORMATION($,$,#691,#758);
#12=(
REPRESENTATION_RELATIONSHIP($,$,#1174,#1173)
REPRESENTATION_RELATIONSHIP_WITH_TRANSFORMATION(#11)
SHAPE_REPRESENTATION_RELATIONSHIP()
);
#13=CONTEXT_DEPENDENT_SHAPE_REPRESENTATION(#12,#1172);
#14=NEXT_ASSEMBLY_USAGE_OCCURRENCE('2020_8mm_cable guide:1',
'2020_8mm_cable guide:1','2020_8mm_cable guide:1',#1176,#1177,
'2020_8mm_cable guide:1');
#15=SHAPE_REPRESENTATION_RELATIONSHIP('SRR','None',#1174,#16);
#16=ADVANCED_BREP_SHAPE_REPRESENTATION('',(#18),#1162);
#17=STYLED_ITEM('',(#1187),#18);
#18=MANIFOLD_SOLID_BREP('2020_8mm_cable guide',#667);
#19=PLANE('',#695);
#20=PLANE('',#696);
#21=PLANE('',#714);
#22=PLANE('',#717);
#23=PLANE('',#720);
#24=PLANE('',#727);
#25=PLANE('',#730);
#26=PLANE('',#733);
#27=PLANE('',#736);
#28=PLANE('',#739);
#29=PLANE('',#746);
#30=PLANE('',#747);
#31=PLANE('',#750);
#32=PLANE('',#751);
#33=PLANE('',#752);
#34=PLANE('',#755);
#35=PLANE('',#756);
#36=PLANE('',#757);
#37=FACE_OUTER_BOUND('',#71,.T.);
#38=FACE_OUTER_BOUND('',#72,.T.);
#39=FACE_OUTER_BOUND('',#73,.T.);
#40=FACE_OUTER_BOUND('',#74,.T.);
#41=FACE_OUTER_BOUND('',#75,.T.);
#42=FACE_OUTER_BOUND('',#76,.T.);
#43=FACE_OUTER_BOUND('',#77,.T.);
#44=FACE_OUTER_BOUND('',#78,.T.);
#45=FACE_OUTER_BOUND('',#79,.T.);
#46=FACE_OUTER_BOUND('',#80,.T.);
#47=FACE_OUTER_BOUND('',#81,.T.);
#48=FACE_OUTER_BOUND('',#82,.T.);
#49=FACE_OUTER_BOUND('',#83,.T.);
#50=FACE_OUTER_BOUND('',#84,.T.);
#51=FACE_OUTER_BOUND('',#85,.T.);
#52=FACE_OUTER_BOUND('',#86,.T.);
#53=FACE_OUTER_BOUND('',#87,.T.);
#54=FACE_OUTER_BOUND('',#88,.T.);
#55=FACE_OUTER_BOUND('',#89,.T.);
#56=FACE_OUTER_BOUND('',#90,.T.);
#57=FACE_OUTER_BOUND('',#91,.T.);
#58=FACE_OUTER_BOUND('',#92,.T.);
#59=FACE_OUTER_BOUND('',#93,.T.);
#60=FACE_OUTER_BOUND('',#94,.T.);
#61=FACE_OUTER_BOUND('',#95,.T.);
#62=FACE_OUTER_BOUND('',#96,.T.);
#63=FACE_OUTER_BOUND('',#97,.T.);
#64=FACE_OUTER_BOUND('',#98,.T.);
#65=FACE_OUTER_BOUND('',#99,.T.);
#66=FACE_OUTER_BOUND('',#100,.T.);
#67=FACE_OUTER_BOUND('',#101,.T.);
#68=FACE_OUTER_BOUND('',#102,.T.);
#69=FACE_OUTER_BOUND('',#103,.T.);
#70=FACE_OUTER_BOUND('',#104,.T.);
#71=EDGE_LOOP('',(#425,#426,#427,#428));
#72=EDGE_LOOP('',(#429,#430,#431,#432));
#73=EDGE_LOOP('',(#433,#434,#435,#436,#437,#438,#439,#440,#441,#442,#443,
#444,#445,#446,#447,#448,#449,#450,#451,#452,#453,#454,#455,#456,#457,#458,
#459,#460,#461,#462,#463,#464));
#74=EDGE_LOOP('',(#465,#466,#467,#468));
#75=EDGE_LOOP('',(#469,#470,#471,#472));
#76=EDGE_LOOP('',(#473,#474,#475,#476));
#77=EDGE_LOOP('',(#477,#478,#479,#480));
#78=EDGE_LOOP('',(#481,#482,#483,#484));
#79=EDGE_LOOP('',(#485,#486,#487,#488));
#80=EDGE_LOOP('',(#489,#490,#491,#492));
#81=EDGE_LOOP('',(#493,#494,#495,#496));
#82=EDGE_LOOP('',(#497,#498,#499,#500));
#83=EDGE_LOOP('',(#501,#502,#503,#504));
#84=EDGE_LOOP('',(#505,#506,#507,#508));
#85=EDGE_LOOP('',(#509,#510,#511,#512));
#86=EDGE_LOOP('',(#513,#514,#515,#516));
#87=EDGE_LOOP('',(#517,#518,#519,#520));
#88=EDGE_LOOP('',(#521,#522,#523,#524));
#89=EDGE_LOOP('',(#525,#526,#527,#528));
#90=EDGE_LOOP('',(#529,#530,#531,#532));
#91=EDGE_LOOP('',(#533,#534,#535,#536));
#92=EDGE_LOOP('',(#537,#538,#539,#540));
#93=EDGE_LOOP('',(#541,#542,#543,#544));
#94=EDGE_LOOP('',(#545,#546,#547,#548));
#95=EDGE_LOOP('',(#549,#550,#551,#552));
#96=EDGE_LOOP('',(#553,#554,#555,#556));
#97=EDGE_LOOP('',(#557,#558,#559,#560));
#98=EDGE_LOOP('',(#561,#562,#563,#564));
#99=EDGE_LOOP('',(#565,#566,#567,#568));
#100=EDGE_LOOP('',(#569,#570,#571,#572));
#101=EDGE_LOOP('',(#573,#574,#575,#576));
#102=EDGE_LOOP('',(#577,#578,#579,#580));
#103=EDGE_LOOP('',(#581,#582,#583,#584));
#104=EDGE_LOOP('',(#585,#586,#587,#588,#589,#590,#591,#592,#593,#594,#595,
#596,#597,#598,#599,#600,#601,#602,#603,#604,#605,#606,#607,#608,#609,#610,
#611,#612,#613,#614,#615,#616));
#105=LINE('',#968,#169);
#106=LINE('',#971,#170);
#107=LINE('',#974,#171);
#108=LINE('',#976,#172);
#109=LINE('',#977,#173);
#110=LINE('',#980,#174);
#111=LINE('',#982,#175);
#112=LINE('',#986,#176);
#113=LINE('',#990,#177);
#114=LINE('',#992,#178);
#115=LINE('',#996,#179);
#116=LINE('',#1004,#180);
#117=LINE('',#1008,#181);
#118=LINE('',#1010,#182);
#119=LINE('',#1014,#183);
#120=LINE('',#1018,#184);
#121=LINE('',#1020,#185);
#122=LINE('',#1024,#186);
#123=LINE('',#1028,#187);
#124=LINE('',#1036,#188);
#125=LINE('',#1041,#189);
#126=LINE('',#1044,#190);
#127=LINE('',#1045,#191);
#128=LINE('',#1050,#192);
#129=LINE('',#1051,#193);
#130=LINE('',#1054,#194);
#131=LINE('',#1055,#195);
#132=LINE('',#1059,#196);
#133=LINE('',#1062,#197);
#134=LINE('',#1063,#198);
#135=LINE('',#1067,#199);
#136=LINE('',#1070,#200);
#137=LINE('',#1075,#201);
#138=LINE('',#1077,#202);
#139=LINE('',#1080,#203);
#140=LINE('',#1083,#204);
#141=LINE('',#1086,#205);
#142=LINE('',#1087,#206);
#143=LINE('',#1090,#207);
#144=LINE('',#1093,#208);
#145=LINE('',#1096,#209);
#146=LINE('',#1097,#210);
#147=LINE('',#1102,#211);
#148=LINE('',#1103,#212);
#149=LINE('',#1106,#213);
#150=LINE('',#1107,#214);
#151=LINE('',#1112,#215);
#152=LINE('',#1113,#216);
#153=LINE('',#1116,#217);
#154=LINE('',#1117,#218);
#155=LINE('',#1120,#219);
#156=LINE('',#1123,#220);
#157=LINE('',#1126,#221);
#158=LINE('',#1130,#222);
#159=LINE('',#1133,#223);
#160=LINE('',#1136,#224);
#161=LINE('',#1137,#225);
#162=LINE('',#1141,#226);
#163=LINE('',#1143,#227);
#164=LINE('',#1145,#228);
#165=LINE('',#1148,#229);
#166=LINE('',#1149,#230);
#167=LINE('',#1153,#231);
#168=LINE('',#1155,#232);
#169=VECTOR('',#767,10.);
#170=VECTOR('',#770,10.);
#171=VECTOR('',#773,10.);
#172=VECTOR('',#774,10.);
#173=VECTOR('',#775,10.);
#174=VECTOR('',#778,10.);
#175=VECTOR('',#779,10.);
#176=VECTOR('',#782,10.);
#177=VECTOR('',#785,10.);
#178=VECTOR('',#786,10.);
#179=VECTOR('',#789,10.);
#180=VECTOR('',#796,10.);
#181=VECTOR('',#799,10.);
#182=VECTOR('',#800,10.);
#183=VECTOR('',#803,10.);
#184=VECTOR('',#806,10.);
#185=VECTOR('',#807,10.);
#186=VECTOR('',#810,10.);
#187=VECTOR('',#813,10.);
#188=VECTOR('',#820,10.);
#189=VECTOR('',#827,10.);
#190=VECTOR('',#830,10.);
#191=VECTOR('',#831,10.);
#192=VECTOR('',#836,10.);
#193=VECTOR('',#837,10.);
#194=VECTOR('',#840,10.);
#195=VECTOR('',#841,10.);
#196=VECTOR('',#846,10.);
#197=VECTOR('',#849,10.);
#198=VECTOR('',#850,10.);
#199=VECTOR('',#855,10.);
#200=VECTOR('',#858,10.);
#201=VECTOR('',#865,10.);
#202=VECTOR('',#868,10.);
#203=VECTOR('',#871,10.);
#204=VECTOR('',#874,10.);
#205=VECTOR('',#877,10.);
#206=VECTOR('',#878,10.);
#207=VECTOR('',#881,10.);
#208=VECTOR('',#884,10.);
#209=VECTOR('',#887,10.);
#210=VECTOR('',#888,10.);
#211=VECTOR('',#893,10.);
#212=VECTOR('',#894,10.);
#213=VECTOR('',#897,10.);
#214=VECTOR('',#898,10.);
#215=VECTOR('',#903,10.);
#216=VECTOR('',#904,10.);
#217=VECTOR('',#907,10.);
#218=VECTOR('',#908,10.);
#219=VECTOR('',#911,10.);
#220=VECTOR('',#914,10.);
#221=VECTOR('',#917,10.);
#222=VECTOR('',#922,10.);
#223=VECTOR('',#927,10.);
#224=VECTOR('',#930,10.);
#225=VECTOR('',#931,10.);
#226=VECTOR('',#936,10.);
#227=VECTOR('',#939,10.);
#228=VECTOR('',#942,10.);
#229=VECTOR('',#945,10.);
#230=VECTOR('',#946,10.);
#231=VECTOR('',#953,10.);
#232=VECTOR('',#956,10.);
#233=CIRCLE('',#693,0.25);
#234=CIRCLE('',#694,0.25);
#235=CIRCLE('',#697,0.5);
#236=CIRCLE('',#698,0.673271691346599);
#237=CIRCLE('',#699,0.5);
#238=CIRCLE('',#700,1.);
#239=CIRCLE('',#701,6.);
#240=CIRCLE('',#702,1.);
#241=CIRCLE('',#703,0.5);
#242=CIRCLE('',#704,0.673271691346599);
#243=CIRCLE('',#705,0.5);
#244=CIRCLE('',#706,0.25);
#245=CIRCLE('',#707,0.25);
#246=CIRCLE('',#708,0.5);
#247=CIRCLE('',#709,4.);
#248=CIRCLE('',#710,0.5);
#249=CIRCLE('',#711,0.25);
#250=CIRCLE('',#713,0.25);
#251=CIRCLE('',#716,0.25);
#252=CIRCLE('',#719,0.25);
#253=CIRCLE('',#722,0.5);
#254=CIRCLE('',#724,4.);
#255=CIRCLE('',#726,0.5);
#256=CIRCLE('',#729,0.5);
#257=CIRCLE('',#732,0.5);
#258=CIRCLE('',#735,0.5);
#259=CIRCLE('',#738,0.5);
#260=CIRCLE('',#741,1.);
#261=CIRCLE('',#743,6.);
#262=CIRCLE('',#745,1.);
#263=CIRCLE('',#749,0.673271691346599);
#264=CIRCLE('',#754,0.673271691346599);
#265=VERTEX_POINT('',#964);
#266=VERTEX_POINT('',#965);
#267=VERTEX_POINT('',#967);
#268=VERTEX_POINT('',#969);
#269=VERTEX_POINT('',#973);
#270=VERTEX_POINT('',#975);
#271=VERTEX_POINT('',#979);
#272=VERTEX_POINT('',#981);
#273=VERTEX_POINT('',#983);
#274=VERTEX_POINT('',#985);
#275=VERTEX_POINT('',#987);
#276=VERTEX_POINT('',#989);
#277=VERTEX_POINT('',#991);
#278=VERTEX_POINT('',#993);
#279=VERTEX_POINT('',#995);
#280=VERTEX_POINT('',#997);
#281=VERTEX_POINT('',#999);
#282=VERTEX_POINT('',#1001);
#283=VERTEX_POINT('',#1003);
#284=VERTEX_POINT('',#1005);
#285=VERTEX_POINT('',#1007);
#286=VERTEX_POINT('',#1009);
#287=VERTEX_POINT('',#1011);
#288=VERTEX_POINT('',#1013);
#289=VERTEX_POINT('',#1015);
#290=VERTEX_POINT('',#1017);
#291=VERTEX_POINT('',#1019);
#292=VERTEX_POINT('',#1021);
#293=VERTEX_POINT('',#1023);
#294=VERTEX_POINT('',#1025);
#295=VERTEX_POINT('',#1027);
#296=VERTEX_POINT('',#1029);
#297=VERTEX_POINT('',#1031);
#298=VERTEX_POINT('',#1033);
#299=VERTEX_POINT('',#1035);
#300=VERTEX_POINT('',#1039);
#301=VERTEX_POINT('',#1043);
#302=VERTEX_POINT('',#1047);
#303=VERTEX_POINT('',#1048);
#304=VERTEX_POINT('',#1053);
#305=VERTEX_POINT('',#1057);
#306=VERTEX_POINT('',#1061);
#307=VERTEX_POINT('',#1065);
#308=VERTEX_POINT('',#1069);
#309=VERTEX_POINT('',#1073);
#310=VERTEX_POINT('',#1079);
#311=VERTEX_POINT('',#1081);
#312=VERTEX_POINT('',#1085);
#313=VERTEX_POINT('',#1089);
#314=VERTEX_POINT('',#1091);
#315=VERTEX_POINT('',#1095);
#316=VERTEX_POINT('',#1099);
#317=VERTEX_POINT('',#1100);
#318=VERTEX_POINT('',#1105);
#319=VERTEX_POINT('',#1109);
#320=VERTEX_POINT('',#1110);
#321=VERTEX_POINT('',#1115);
#322=VERTEX_POINT('',#1119);
#323=VERTEX_POINT('',#1121);
#324=VERTEX_POINT('',#1125);
#325=VERTEX_POINT('',#1129);
#326=VERTEX_POINT('',#1135);
#327=VERTEX_POINT('',#1139);
#328=VERTEX_POINT('',#1147);
#329=EDGE_CURVE('',#265,#266,#233,.T.);
#330=EDGE_CURVE('',#266,#267,#105,.T.);
#331=EDGE_CURVE('',#267,#268,#234,.T.);
#332=EDGE_CURVE('',#268,#265,#106,.T.);
#333=EDGE_CURVE('',#268,#269,#107,.T.);
#334=EDGE_CURVE('',#270,#269,#108,.T.);
#335=EDGE_CURVE('',#265,#270,#109,.T.);
#336=EDGE_CURVE('',#271,#267,#110,.T.);
#337=EDGE_CURVE('',#271,#272,#111,.T.);
#338=EDGE_CURVE('',#273,#272,#235,.T.);
#339=EDGE_CURVE('',#274,#273,#112,.T.);
#340=EDGE_CURVE('',#274,#275,#236,.T.);
#341=EDGE_CURVE('',#276,#275,#113,.T.);
#342=EDGE_CURVE('',#277,#276,#114,.T.);
#343=EDGE_CURVE('',#278,#277,#237,.T.);
#344=EDGE_CURVE('',#278,#279,#115,.T.);
#345=EDGE_CURVE('',#280,#279,#238,.T.);
#346=EDGE_CURVE('',#281,#280,#239,.T.);
#347=EDGE_CURVE('',#282,#281,#240,.T.);
#348=EDGE_CURVE('',#283,#282,#116,.T.);
#349=EDGE_CURVE('',#284,#283,#241,.T.);
#350=EDGE_CURVE('',#285,#284,#117,.T.);
#351=EDGE_CURVE('',#286,#285,#118,.T.);
#352=EDGE_CURVE('',#286,#287,#242,.T.);
#353=EDGE_CURVE('',#288,#287,#119,.T.);
#354=EDGE_CURVE('',#289,#288,#243,.T.);
#355=EDGE_CURVE('',#290,#289,#120,.T.);
#356=EDGE_CURVE('',#290,#291,#121,.T.);
#357=EDGE_CURVE('',#292,#291,#244,.T.);
#358=EDGE_CURVE('',#293,#292,#122,.T.);
#359=EDGE_CURVE('',#294,#293,#245,.T.);
#360=EDGE_CURVE('',#295,#294,#123,.T.);
#361=EDGE_CURVE('',#296,#295,#246,.T.);
#362=EDGE_CURVE('',#296,#297,#247,.T.);
#363=EDGE_CURVE('',#298,#297,#248,.T.);
#364=EDGE_CURVE('',#299,#298,#124,.T.);
#365=EDGE_CURVE('',#269,#299,#249,.T.);
#366=EDGE_CURVE('',#300,#270,#250,.T.);
#367=EDGE_CURVE('',#299,#300,#125,.T.);
#368=EDGE_CURVE('',#301,#298,#126,.T.);
#369=EDGE_CURVE('',#300,#301,#127,.T.);
#370=EDGE_CURVE('',#302,#303,#251,.T.);
#371=EDGE_CURVE('',#303,#294,#128,.T.);
#372=EDGE_CURVE('',#293,#302,#129,.T.);
#373=EDGE_CURVE('',#304,#292,#130,.T.);
#374=EDGE_CURVE('',#302,#304,#131,.T.);
#375=EDGE_CURVE('',#305,#304,#252,.T.);
#376=EDGE_CURVE('',#291,#305,#132,.T.);
#377=EDGE_CURVE('',#290,#306,#133,.T.);
#378=EDGE_CURVE('',#305,#306,#134,.T.);
#379=EDGE_CURVE('',#307,#301,#253,.T.);
#380=EDGE_CURVE('',#297,#307,#135,.T.);
#381=EDGE_CURVE('',#308,#296,#136,.T.);
#382=EDGE_CURVE('',#307,#308,#254,.T.);
#383=EDGE_CURVE('',#309,#308,#255,.T.);
#384=EDGE_CURVE('',#295,#309,#137,.T.);
#385=EDGE_CURVE('',#309,#303,#138,.T.);
#386=EDGE_CURVE('',#272,#310,#139,.T.);
#387=EDGE_CURVE('',#310,#311,#256,.T.);
#388=EDGE_CURVE('',#311,#273,#140,.T.);
#389=EDGE_CURVE('',#271,#312,#141,.T.);
#390=EDGE_CURVE('',#310,#312,#142,.T.);
#391=EDGE_CURVE('',#288,#313,#143,.T.);
#392=EDGE_CURVE('',#313,#314,#257,.T.);
#393=EDGE_CURVE('',#314,#289,#144,.T.);
#394=EDGE_CURVE('',#287,#315,#145,.T.);
#395=EDGE_CURVE('',#313,#315,#146,.T.);
#396=EDGE_CURVE('',#316,#317,#258,.T.);
#397=EDGE_CURVE('',#317,#278,#147,.T.);
#398=EDGE_CURVE('',#277,#316,#148,.T.);
#399=EDGE_CURVE('',#276,#318,#149,.T.);
#400=EDGE_CURVE('',#316,#318,#150,.T.);
#401=EDGE_CURVE('',#319,#320,#259,.T.);
#402=EDGE_CURVE('',#320,#284,#151,.T.);
#403=EDGE_CURVE('',#283,#319,#152,.T.);
#404=EDGE_CURVE('',#321,#320,#153,.T.);
#405=EDGE_CURVE('',#285,#321,#154,.T.);
#406=EDGE_CURVE('',#281,#322,#155,.T.);
#407=EDGE_CURVE('',#322,#323,#260,.T.);
#408=EDGE_CURVE('',#323,#282,#156,.T.);
#409=EDGE_CURVE('',#324,#280,#157,.T.);
#410=EDGE_CURVE('',#322,#324,#261,.T.);
#411=EDGE_CURVE('',#279,#325,#158,.T.);
#412=EDGE_CURVE('',#325,#324,#262,.T.);
#413=EDGE_CURVE('',#325,#317,#159,.T.);
#414=EDGE_CURVE('',#326,#311,#160,.T.);
#415=EDGE_CURVE('',#274,#326,#161,.T.);
#416=EDGE_CURVE('',#327,#326,#263,.T.);
#417=EDGE_CURVE('',#275,#327,#162,.T.);
#418=EDGE_CURVE('',#318,#327,#163,.T.);
#419=EDGE_CURVE('',#319,#323,#164,.T.);
#420=EDGE_CURVE('',#328,#321,#165,.T.);
#421=EDGE_CURVE('',#286,#328,#166,.T.);
#422=EDGE_CURVE('',#315,#328,#264,.T.);
#423=EDGE_CURVE('',#306,#314,#167,.T.);
#424=EDGE_CURVE('',#312,#266,#168,.T.);
#425=ORIENTED_EDGE('',*,*,#329,.T.);
#426=ORIENTED_EDGE('',*,*,#330,.T.);
#427=ORIENTED_EDGE('',*,*,#331,.T.);
#428=ORIENTED_EDGE('',*,*,#332,.T.);
#429=ORIENTED_EDGE('',*,*,#332,.F.);
#430=ORIENTED_EDGE('',*,*,#333,.T.);
#431=ORIENTED_EDGE('',*,*,#334,.F.);
#432=ORIENTED_EDGE('',*,*,#335,.F.);
#433=ORIENTED_EDGE('',*,*,#331,.F.);
#434=ORIENTED_EDGE('',*,*,#336,.F.);
#435=ORIENTED_EDGE('',*,*,#337,.T.);
#436=ORIENTED_EDGE('',*,*,#338,.F.);
#437=ORIENTED_EDGE('',*,*,#339,.F.);
#438=ORIENTED_EDGE('',*,*,#340,.T.);
#439=ORIENTED_EDGE('',*,*,#341,.F.);
#440=ORIENTED_EDGE('',*,*,#342,.F.);
#441=ORIENTED_EDGE('',*,*,#343,.F.);
#442=ORIENTED_EDGE('',*,*,#344,.T.);
#443=ORIENTED_EDGE('',*,*,#345,.F.);
#444=ORIENTED_EDGE('',*,*,#346,.F.);
#445=ORIENTED_EDGE('',*,*,#347,.F.);
#446=ORIENTED_EDGE('',*,*,#348,.F.);
#447=ORIENTED_EDGE('',*,*,#349,.F.);
#448=ORIENTED_EDGE('',*,*,#350,.F.);
#449=ORIENTED_EDGE('',*,*,#351,.F.);
#450=ORIENTED_EDGE('',*,*,#352,.T.);
#451=ORIENTED_EDGE('',*,*,#353,.F.);
#452=ORIENTED_EDGE('',*,*,#354,.F.);
#453=ORIENTED_EDGE('',*,*,#355,.F.);
#454=ORIENTED_EDGE('',*,*,#356,.T.);
#455=ORIENTED_EDGE('',*,*,#357,.F.);
#456=ORIENTED_EDGE('',*,*,#358,.F.);
#457=ORIENTED_EDGE('',*,*,#359,.F.);
#458=ORIENTED_EDGE('',*,*,#360,.F.);
#459=ORIENTED_EDGE('',*,*,#361,.F.);
#460=ORIENTED_EDGE('',*,*,#362,.T.);
#461=ORIENTED_EDGE('',*,*,#363,.F.);
#462=ORIENTED_EDGE('',*,*,#364,.F.);
#463=ORIENTED_EDGE('',*,*,#365,.F.);
#464=ORIENTED_EDGE('',*,*,#333,.F.);
#465=ORIENTED_EDGE('',*,*,#366,.T.);
#466=ORIENTED_EDGE('',*,*,#334,.T.);
#467=ORIENTED_EDGE('',*,*,#365,.T.);
#468=ORIENTED_EDGE('',*,*,#367,.T.);
#469=ORIENTED_EDGE('',*,*,#367,.F.);
#470=ORIENTED_EDGE('',*,*,#364,.T.);
#471=ORIENTED_EDGE('',*,*,#368,.F.);
#472=ORIENTED_EDGE('',*,*,#369,.F.);
#473=ORIENTED_EDGE('',*,*,#370,.T.);
#474=ORIENTED_EDGE('',*,*,#371,.T.);
#475=ORIENTED_EDGE('',*,*,#359,.T.);
#476=ORIENTED_EDGE('',*,*,#372,.T.);
#477=ORIENTED_EDGE('',*,*,#372,.F.);
#478=ORIENTED_EDGE('',*,*,#358,.T.);
#479=ORIENTED_EDGE('',*,*,#373,.F.);
#480=ORIENTED_EDGE('',*,*,#374,.F.);
#481=ORIENTED_EDGE('',*,*,#375,.T.);
#482=ORIENTED_EDGE('',*,*,#373,.T.);
#483=ORIENTED_EDGE('',*,*,#357,.T.);
#484=ORIENTED_EDGE('',*,*,#376,.T.);
#485=ORIENTED_EDGE('',*,*,#376,.F.);
#486=ORIENTED_EDGE('',*,*,#356,.F.);
#487=ORIENTED_EDGE('',*,*,#377,.T.);
#488=ORIENTED_EDGE('',*,*,#378,.F.);
#489=ORIENTED_EDGE('',*,*,#379,.T.);
#490=ORIENTED_EDGE('',*,*,#368,.T.);
#491=ORIENTED_EDGE('',*,*,#363,.T.);
#492=ORIENTED_EDGE('',*,*,#380,.T.);
#493=ORIENTED_EDGE('',*,*,#380,.F.);
#494=ORIENTED_EDGE('',*,*,#362,.F.);
#495=ORIENTED_EDGE('',*,*,#381,.F.);
#496=ORIENTED_EDGE('',*,*,#382,.F.);
#497=ORIENTED_EDGE('',*,*,#383,.T.);
#498=ORIENTED_EDGE('',*,*,#381,.T.);
#499=ORIENTED_EDGE('',*,*,#361,.T.);
#500=ORIENTED_EDGE('',*,*,#384,.T.);
#501=ORIENTED_EDGE('',*,*,#371,.F.);
#502=ORIENTED_EDGE('',*,*,#385,.F.);
#503=ORIENTED_EDGE('',*,*,#384,.F.);
#504=ORIENTED_EDGE('',*,*,#360,.T.);
#505=ORIENTED_EDGE('',*,*,#338,.T.);
#506=ORIENTED_EDGE('',*,*,#386,.T.);
#507=ORIENTED_EDGE('',*,*,#387,.T.);
#508=ORIENTED_EDGE('',*,*,#388,.T.);
#509=ORIENTED_EDGE('',*,*,#386,.F.);
#510=ORIENTED_EDGE('',*,*,#337,.F.);
#511=ORIENTED_EDGE('',*,*,#389,.T.);
#512=ORIENTED_EDGE('',*,*,#390,.F.);
#513=ORIENTED_EDGE('',*,*,#354,.T.);
#514=ORIENTED_EDGE('',*,*,#391,.T.);
#515=ORIENTED_EDGE('',*,*,#392,.T.);
#516=ORIENTED_EDGE('',*,*,#393,.T.);
#517=ORIENTED_EDGE('',*,*,#391,.F.);
#518=ORIENTED_EDGE('',*,*,#353,.T.);
#519=ORIENTED_EDGE('',*,*,#394,.T.);
#520=ORIENTED_EDGE('',*,*,#395,.F.);
#521=ORIENTED_EDGE('',*,*,#396,.T.);
#522=ORIENTED_EDGE('',*,*,#397,.T.);
#523=ORIENTED_EDGE('',*,*,#343,.T.);
#524=ORIENTED_EDGE('',*,*,#398,.T.);
#525=ORIENTED_EDGE('',*,*,#398,.F.);
#526=ORIENTED_EDGE('',*,*,#342,.T.);
#527=ORIENTED_EDGE('',*,*,#399,.T.);
#528=ORIENTED_EDGE('',*,*,#400,.F.);
#529=ORIENTED_EDGE('',*,*,#401,.T.);
#530=ORIENTED_EDGE('',*,*,#402,.T.);
#531=ORIENTED_EDGE('',*,*,#349,.T.);
#532=ORIENTED_EDGE('',*,*,#403,.T.);
#533=ORIENTED_EDGE('',*,*,#402,.F.);
#534=ORIENTED_EDGE('',*,*,#404,.F.);
#535=ORIENTED_EDGE('',*,*,#405,.F.);
#536=ORIENTED_EDGE('',*,*,#350,.T.);
#537=ORIENTED_EDGE('',*,*,#347,.T.);
#538=ORIENTED_EDGE('',*,*,#406,.T.);
#539=ORIENTED_EDGE('',*,*,#407,.T.);
#540=ORIENTED_EDGE('',*,*,#408,.T.);
#541=ORIENTED_EDGE('',*,*,#406,.F.);
#542=ORIENTED_EDGE('',*,*,#346,.T.);
#543=ORIENTED_EDGE('',*,*,#409,.F.);
#544=ORIENTED_EDGE('',*,*,#410,.F.);
#545=ORIENTED_EDGE('',*,*,#345,.T.);
#546=ORIENTED_EDGE('',*,*,#411,.T.);
#547=ORIENTED_EDGE('',*,*,#412,.T.);
#548=ORIENTED_EDGE('',*,*,#409,.T.);
#549=ORIENTED_EDGE('',*,*,#397,.F.);
#550=ORIENTED_EDGE('',*,*,#413,.F.);
#551=ORIENTED_EDGE('',*,*,#411,.F.);
#552=ORIENTED_EDGE('',*,*,#344,.F.);
#553=ORIENTED_EDGE('',*,*,#388,.F.);
#554=ORIENTED_EDGE('',*,*,#414,.F.);
#555=ORIENTED_EDGE('',*,*,#415,.F.);
#556=ORIENTED_EDGE('',*,*,#339,.T.);
#557=ORIENTED_EDGE('',*,*,#340,.F.);
#558=ORIENTED_EDGE('',*,*,#415,.T.);
#559=ORIENTED_EDGE('',*,*,#416,.F.);
#560=ORIENTED_EDGE('',*,*,#417,.F.);
#561=ORIENTED_EDGE('',*,*,#341,.T.);
#562=ORIENTED_EDGE('',*,*,#417,.T.);
#563=ORIENTED_EDGE('',*,*,#418,.F.);
#564=ORIENTED_EDGE('',*,*,#399,.F.);
#565=ORIENTED_EDGE('',*,*,#403,.F.);
#566=ORIENTED_EDGE('',*,*,#348,.T.);
#567=ORIENTED_EDGE('',*,*,#408,.F.);
#568=ORIENTED_EDGE('',*,*,#419,.F.);
#569=ORIENTED_EDGE('',*,*,#351,.T.);
#570=ORIENTED_EDGE('',*,*,#405,.T.);
#571=ORIENTED_EDGE('',*,*,#420,.F.);
#572=ORIENTED_EDGE('',*,*,#421,.F.);
#573=ORIENTED_EDGE('',*,*,#352,.F.);
#574=ORIENTED_EDGE('',*,*,#421,.T.);
#575=ORIENTED_EDGE('',*,*,#422,.F.);
#576=ORIENTED_EDGE('',*,*,#394,.F.);
#577=ORIENTED_EDGE('',*,*,#393,.F.);
#578=ORIENTED_EDGE('',*,*,#423,.F.);
#579=ORIENTED_EDGE('',*,*,#377,.F.);
#580=ORIENTED_EDGE('',*,*,#355,.T.);
#581=ORIENTED_EDGE('',*,*,#330,.F.);
#582=ORIENTED_EDGE('',*,*,#424,.F.);
#583=ORIENTED_EDGE('',*,*,#389,.F.);
#584=ORIENTED_EDGE('',*,*,#336,.T.);
#585=ORIENTED_EDGE('',*,*,#329,.F.);
#586=ORIENTED_EDGE('',*,*,#335,.T.);
#587=ORIENTED_EDGE('',*,*,#366,.F.);
#588=ORIENTED_EDGE('',*,*,#369,.T.);
#589=ORIENTED_EDGE('',*,*,#379,.F.);
#590=ORIENTED_EDGE('',*,*,#382,.T.);
#591=ORIENTED_EDGE('',*,*,#383,.F.);
#592=ORIENTED_EDGE('',*,*,#385,.T.);
#593=ORIENTED_EDGE('',*,*,#370,.F.);
#594=ORIENTED_EDGE('',*,*,#374,.T.);
#595=ORIENTED_EDGE('',*,*,#375,.F.);
#596=ORIENTED_EDGE('',*,*,#378,.T.);
#597=ORIENTED_EDGE('',*,*,#423,.T.);
#598=ORIENTED_EDGE('',*,*,#392,.F.);
#599=ORIENTED_EDGE('',*,*,#395,.T.);
#600=ORIENTED_EDGE('',*,*,#422,.T.);
#601=ORIENTED_EDGE('',*,*,#420,.T.);
#602=ORIENTED_EDGE('',*,*,#404,.T.);
#603=ORIENTED_EDGE('',*,*,#401,.F.);
#604=ORIENTED_EDGE('',*,*,#419,.T.);
#605=ORIENTED_EDGE('',*,*,#407,.F.);
#606=ORIENTED_EDGE('',*,*,#410,.T.);
#607=ORIENTED_EDGE('',*,*,#412,.F.);
#608=ORIENTED_EDGE('',*,*,#413,.T.);
#609=ORIENTED_EDGE('',*,*,#396,.F.);
#610=ORIENTED_EDGE('',*,*,#400,.T.);
#611=ORIENTED_EDGE('',*,*,#418,.T.);
#612=ORIENTED_EDGE('',*,*,#416,.T.);
#613=ORIENTED_EDGE('',*,*,#414,.T.);
#614=ORIENTED_EDGE('',*,*,#387,.F.);
#615=ORIENTED_EDGE('',*,*,#390,.T.);
#616=ORIENTED_EDGE('',*,*,#424,.T.);
#617=CYLINDRICAL_SURFACE('',#692,0.25);
#618=CYLINDRICAL_SURFACE('',#712,0.25);
#619=CYLINDRICAL_SURFACE('',#715,0.25);
#620=CYLINDRICAL_SURFACE('',#718,0.25);
#621=CYLINDRICAL_SURFACE('',#721,0.5);
#622=CYLINDRICAL_SURFACE('',#723,4.);
#623=CYLINDRICAL_SURFACE('',#725,0.5);
#624=CYLINDRICAL_SURFACE('',#728,0.5);
#625=CYLINDRICAL_SURFACE('',#731,0.5);
#626=CYLINDRICAL_SURFACE('',#734,0.5);
#627=CYLINDRICAL_SURFACE('',#737,0.5);
#628=CYLINDRICAL_SURFACE('',#740,1.);
#629=CYLINDRICAL_SURFACE('',#742,6.);
#630=CYLINDRICAL_SURFACE('',#744,1.);
#631=CYLINDRICAL_SURFACE('',#748,0.673271691346599);
#632=CYLINDRICAL_SURFACE('',#753,0.673271691346599);
#633=ADVANCED_FACE('',(#37),#617,.T.);
#634=ADVANCED_FACE('',(#38),#19,.T.);
#635=ADVANCED_FACE('',(#39),#20,.F.);
#636=ADVANCED_FACE('',(#40),#618,.T.);
#637=ADVANCED_FACE('',(#41),#21,.T.);
#638=ADVANCED_FACE('',(#42),#619,.T.);
#639=ADVANCED_FACE('',(#43),#22,.T.);
#640=ADVANCED_FACE('',(#44),#620,.T.);
#641=ADVANCED_FACE('',(#45),#23,.T.);
#642=ADVANCED_FACE('',(#46),#621,.T.);
#643=ADVANCED_FACE('',(#47),#622,.F.);
#644=ADVANCED_FACE('',(#48),#623,.T.);
#645=ADVANCED_FACE('',(#49),#24,.T.);
#646=ADVANCED_FACE('',(#50),#624,.F.);
#647=ADVANCED_FACE('',(#51),#25,.T.);
#648=ADVANCED_FACE('',(#52),#625,.F.);
#649=ADVANCED_FACE('',(#53),#26,.T.);
#650=ADVANCED_FACE('',(#54),#626,.T.);
#651=ADVANCED_FACE('',(#55),#27,.T.);
#652=ADVANCED_FACE('',(#56),#627,.T.);
#653=ADVANCED_FACE('',(#57),#28,.T.);
#654=ADVANCED_FACE('',(#58),#628,.F.);
#655=ADVANCED_FACE('',(#59),#629,.T.);
#656=ADVANCED_FACE('',(#60),#630,.F.);
#657=ADVANCED_FACE('',(#61),#29,.T.);
#658=ADVANCED_FACE('',(#62),#30,.T.);
#659=ADVANCED_FACE('',(#63),#631,.F.);
#660=ADVANCED_FACE('',(#64),#31,.T.);
#661=ADVANCED_FACE('',(#65),#32,.T.);
#662=ADVANCED_FACE('',(#66),#33,.T.);
#663=ADVANCED_FACE('',(#67),#632,.F.);
#664=ADVANCED_FACE('',(#68),#34,.T.);
#665=ADVANCED_FACE('',(#69),#35,.T.);
#666=ADVANCED_FACE('',(#70),#36,.T.);
#667=CLOSED_SHELL('',(#633,#634,#635,#636,#637,#638,#639,#640,#641,#642,
#643,#644,#645,#646,#647,#648,#649,#650,#651,#652,#653,#654,#655,#656,#657,
#658,#659,#660,#661,#662,#663,#664,#665,#666));
#668=DERIVED_UNIT_ELEMENT(#670,1.);
#669=DERIVED_UNIT_ELEMENT(#1165,-3.);
#670=(
MASS_UNIT()
NAMED_UNIT(*)
SI_UNIT(.KILO.,.GRAM.)
);
#671=DERIVED_UNIT((#668,#669));
#672=MEASURE_REPRESENTATION_ITEM('density measure',
POSITIVE_RATIO_MEASURE(1290.),#671);
#673=PROPERTY_DEFINITION_RELATIONSHIP('baseProperties','',#684,#685);
#674=DESCRIPTIVE_REPRESENTATION_ITEM('',
'based off of https://makerworld.com/en/models/624922-aluminium-extrus
ion-cable-clips#profileId-549320');
#675=DESCRIPTIVE_REPRESENTATION_ITEM('Plastic','Plastic');
#676=PROPERTY_DEFINITION_REPRESENTATION(#685,#679);
#677=PROPERTY_DEFINITION_REPRESENTATION(#686,#680);
#678=PROPERTY_DEFINITION_REPRESENTATION(#687,#681);
#679=REPRESENTATION('',(#674),$);
#680=REPRESENTATION('material name',(#675),#1162);
#681=REPRESENTATION('density',(#672),#1162);
#682=GENERAL_PROPERTY_ASSOCIATION('','',#688,#684);
#683=GENERAL_PROPERTY_ASSOCIATION('','',#689,#685);
#684=PROPERTY_DEFINITION('baseProperties','',#1176);
#685=PROPERTY_DEFINITION('Author','',#1176);
#686=PROPERTY_DEFINITION('material property','material name',#1177);
#687=PROPERTY_DEFINITION('material property','density of part',#1177);
#688=GENERAL_PROPERTY('','baseProperties','');
#689=GENERAL_PROPERTY('','Author','');
#690=AXIS2_PLACEMENT_3D('',#961,#759,#760);
#691=AXIS2_PLACEMENT_3D('',#962,#761,#762);
#692=AXIS2_PLACEMENT_3D('',#963,#763,#764);
#693=AXIS2_PLACEMENT_3D('',#966,#765,#766);
#694=AXIS2_PLACEMENT_3D('',#970,#768,#769);
#695=AXIS2_PLACEMENT_3D('',#972,#771,#772);
#696=AXIS2_PLACEMENT_3D('',#978,#776,#777);
#697=AXIS2_PLACEMENT_3D('',#984,#780,#781);
#698=AXIS2_PLACEMENT_3D('',#988,#783,#784);
#699=AXIS2_PLACEMENT_3D('',#994,#787,#788);
#700=AXIS2_PLACEMENT_3D('',#998,#790,#791);
#701=AXIS2_PLACEMENT_3D('',#1000,#792,#793);
#702=AXIS2_PLACEMENT_3D('',#1002,#794,#795);
#703=AXIS2_PLACEMENT_3D('',#1006,#797,#798);
#704=AXIS2_PLACEMENT_3D('',#1012,#801,#802);
#705=AXIS2_PLACEMENT_3D('',#1016,#804,#805);
#706=AXIS2_PLACEMENT_3D('',#1022,#808,#809);
#707=AXIS2_PLACEMENT_3D('',#1026,#811,#812);
#708=AXIS2_PLACEMENT_3D('',#1030,#814,#815);
#709=AXIS2_PLACEMENT_3D('',#1032,#816,#817);
#710=AXIS2_PLACEMENT_3D('',#1034,#818,#819);
#711=AXIS2_PLACEMENT_3D('',#1037,#821,#822);
#712=AXIS2_PLACEMENT_3D('',#1038,#823,#824);
#713=AXIS2_PLACEMENT_3D('',#1040,#825,#826);
#714=AXIS2_PLACEMENT_3D('',#1042,#828,#829);
#715=AXIS2_PLACEMENT_3D('',#1046,#832,#833);
#716=AXIS2_PLACEMENT_3D('',#1049,#834,#835);
#717=AXIS2_PLACEMENT_3D('',#1052,#838,#839);
#718=AXIS2_PLACEMENT_3D('',#1056,#842,#843);
#719=AXIS2_PLACEMENT_3D('',#1058,#844,#845);
#720=AXIS2_PLACEMENT_3D('',#1060,#847,#848);
#721=AXIS2_PLACEMENT_3D('',#1064,#851,#852);
#722=AXIS2_PLACEMENT_3D('',#1066,#853,#854);
#723=AXIS2_PLACEMENT_3D('',#1068,#856,#857);
#724=AXIS2_PLACEMENT_3D('',#1071,#859,#860);
#725=AXIS2_PLACEMENT_3D('',#1072,#861,#862);
#726=AXIS2_PLACEMENT_3D('',#1074,#863,#864);
#727=AXIS2_PLACEMENT_3D('',#1076,#866,#867);
#728=AXIS2_PLACEMENT_3D('',#1078,#869,#870);
#729=AXIS2_PLACEMENT_3D('',#1082,#872,#873);
#730=AXIS2_PLACEMENT_3D('',#1084,#875,#876);
#731=AXIS2_PLACEMENT_3D('',#1088,#879,#880);
#732=AXIS2_PLACEMENT_3D('',#1092,#882,#883);
#733=AXIS2_PLACEMENT_3D('',#1094,#885,#886);
#734=AXIS2_PLACEMENT_3D('',#1098,#889,#890);
#735=AXIS2_PLACEMENT_3D('',#1101,#891,#892);
#736=AXIS2_PLACEMENT_3D('',#1104,#895,#896);
#737=AXIS2_PLACEMENT_3D('',#1108,#899,#900);
#738=AXIS2_PLACEMENT_3D('',#1111,#901,#902);
#739=AXIS2_PLACEMENT_3D('',#1114,#905,#906);
#740=AXIS2_PLACEMENT_3D('',#1118,#909,#910);
#741=AXIS2_PLACEMENT_3D('',#1122,#912,#913);
#742=AXIS2_PLACEMENT_3D('',#1124,#915,#916);
#743=AXIS2_PLACEMENT_3D('',#1127,#918,#919);
#744=AXIS2_PLACEMENT_3D('',#1128,#920,#921);
#745=AXIS2_PLACEMENT_3D('',#1131,#923,#924);
#746=AXIS2_PLACEMENT_3D('',#1132,#925,#926);
#747=AXIS2_PLACEMENT_3D('',#1134,#928,#929);
#748=AXIS2_PLACEMENT_3D('',#1138,#932,#933);
#749=AXIS2_PLACEMENT_3D('',#1140,#934,#935);
#750=AXIS2_PLACEMENT_3D('',#1142,#937,#938);
#751=AXIS2_PLACEMENT_3D('',#1144,#940,#941);
#752=AXIS2_PLACEMENT_3D('',#1146,#943,#944);
#753=AXIS2_PLACEMENT_3D('',#1150,#947,#948);
#754=AXIS2_PLACEMENT_3D('',#1151,#949,#950);
#755=AXIS2_PLACEMENT_3D('',#1152,#951,#952);
#756=AXIS2_PLACEMENT_3D('',#1154,#954,#955);
#757=AXIS2_PLACEMENT_3D('',#1156,#957,#958);
#758=AXIS2_PLACEMENT_3D('',#1157,#959,#960);
#759=DIRECTION('axis',(0.,0.,1.));
#760=DIRECTION('refdir',(1.,0.,0.));
#761=DIRECTION('axis',(0.,0.,1.));
#762=DIRECTION('refdir',(1.,0.,0.));
#763=DIRECTION('center_axis',(0.,1.,0.));
#764=DIRECTION('ref_axis',(0.572636994465486,0.,-0.819809046406257));
#765=DIRECTION('center_axis',(0.,-1.,0.));
#766=DIRECTION('ref_axis',(0.572636994465486,0.,-0.819809046406257));
#767=DIRECTION('',(0.,-1.,0.));
#768=DIRECTION('center_axis',(0.,1.,0.));
#769=DIRECTION('ref_axis',(0.572636994465486,0.,-0.819809046406257));
#770=DIRECTION('',(0.,1.,0.));
#771=DIRECTION('center_axis',(0.,0.,-1.));
#772=DIRECTION('ref_axis',(-1.,0.,0.));
#773=DIRECTION('',(-1.,0.,0.));
#774=DIRECTION('',(0.,-1.,0.));
#775=DIRECTION('',(-1.,0.,0.));
#776=DIRECTION('center_axis',(0.,1.,0.));
#777=DIRECTION('ref_axis',(-1.,0.,0.));
#778=DIRECTION('',(-0.344173745139072,0.,-0.938905976739388));
#779=DIRECTION('',(-0.939692620785909,0.,0.342020143325669));
#780=DIRECTION('center_axis',(0.,-1.,0.));
#781=DIRECTION('ref_axis',(-0.819152044288992,0.,-0.573576436351046));
#782=DIRECTION('',(0.,0.,-1.));
#783=DIRECTION('center_axis',(0.,1.,0.));
#784=DIRECTION('ref_axis',(-0.980287762700888,0.,0.197575054849766));
#785=DIRECTION('',(-1.,0.,0.));
#786=DIRECTION('',(0.,0.,-1.));
#787=DIRECTION('center_axis',(0.,1.,0.));
#788=DIRECTION('ref_axis',(0.766044443118979,0.,0.642787609686538));
#789=DIRECTION('',(-0.984807753012208,0.,0.17364817766693));
#790=DIRECTION('center_axis',(0.,-1.,0.));
#791=DIRECTION('ref_axis',(-0.884014264195489,0.,-0.467459924163461));
#792=DIRECTION('center_axis',(0.,1.,0.));
#793=DIRECTION('ref_axis',(-1.,0.,0.));
#794=DIRECTION('center_axis',(0.,-1.,0.));
#795=DIRECTION('ref_axis',(0.884014264195488,0.,-0.467459924163462));
#796=DIRECTION('',(0.984807753012208,0.,0.17364817766693));
#797=DIRECTION('center_axis',(0.,1.,0.));
#798=DIRECTION('ref_axis',(-0.766044443118979,0.,0.642787609686538));
#799=DIRECTION('',(0.,0.,1.));
#800=DIRECTION('',(-1.,0.,0.));
#801=DIRECTION('center_axis',(0.,1.,0.));
#802=DIRECTION('ref_axis',(-0.980287762700888,0.,0.197575054849766));
#803=DIRECTION('',(0.,0.,1.));
#804=DIRECTION('center_axis',(0.,-1.,0.));
#805=DIRECTION('ref_axis',(0.819152044288992,0.,-0.573576436351046));
#806=DIRECTION('',(0.939692620785909,0.,0.342020143325669));
#807=DIRECTION('',(0.344173745139072,0.,-0.938905976739388));
#808=DIRECTION('center_axis',(0.,1.,0.));
#809=DIRECTION('ref_axis',(-0.572636994465486,0.,-0.819809046406257));
#810=DIRECTION('',(-1.,0.,0.));
#811=DIRECTION('center_axis',(0.,1.,0.));
#812=DIRECTION('ref_axis',(0.707106781186549,0.,-0.707106781186546));
#813=DIRECTION('',(0.,0.,-1.));
#814=DIRECTION('center_axis',(0.,1.,0.));
#815=DIRECTION('ref_axis',(0.857159391374919,0.,0.515051238012082));
#816=DIRECTION('center_axis',(0.,1.,0.));
#817=DIRECTION('ref_axis',(-1.,0.,0.));
#818=DIRECTION('center_axis',(0.,1.,0.));
#819=DIRECTION('ref_axis',(-0.85715939137492,0.,0.51505123801208));
#820=DIRECTION('',(0.,0.,1.));
#821=DIRECTION('center_axis',(0.,1.,0.));
#822=DIRECTION('ref_axis',(-0.707106781186548,0.,-0.707106781186547));
#823=DIRECTION('center_axis',(0.,1.,0.));
#824=DIRECTION('ref_axis',(-0.707106781186548,0.,-0.707106781186547));
#825=DIRECTION('center_axis',(0.,-1.,0.));
#826=DIRECTION('ref_axis',(-0.707106781186548,0.,-0.707106781186547));
#827=DIRECTION('',(0.,1.,0.));
#828=DIRECTION('center_axis',(-1.,0.,0.));
#829=DIRECTION('ref_axis',(0.,0.,1.));
#830=DIRECTION('',(0.,-1.,0.));
#831=DIRECTION('',(0.,0.,1.));
#832=DIRECTION('center_axis',(0.,1.,0.));
#833=DIRECTION('ref_axis',(0.707106781186549,0.,-0.707106781186546));
#834=DIRECTION('center_axis',(0.,-1.,0.));
#835=DIRECTION('ref_axis',(0.707106781186549,0.,-0.707106781186546));
#836=DIRECTION('',(0.,-1.,0.));
#837=DIRECTION('',(0.,1.,0.));
#838=DIRECTION('center_axis',(0.,0.,-1.));
#839=DIRECTION('ref_axis',(-1.,0.,0.));
#840=DIRECTION('',(0.,-1.,0.));
#841=DIRECTION('',(-1.,0.,0.));
#842=DIRECTION('center_axis',(0.,1.,0.));
#843=DIRECTION('ref_axis',(-0.572636994465486,0.,-0.819809046406257));
#844=DIRECTION('center_axis',(0.,-1.,0.));
#845=DIRECTION('ref_axis',(-0.572636994465486,0.,-0.819809046406257));
#846=DIRECTION('',(0.,1.,0.));
#847=DIRECTION('center_axis',(-0.938905976739389,0.,-0.344173745139072));
#848=DIRECTION('ref_axis',(-0.344173745139072,0.,0.938905976739388));
#849=DIRECTION('',(0.,1.,0.));
#850=DIRECTION('',(-0.344173745139072,0.,0.938905976739388));
#851=DIRECTION('center_axis',(0.,1.,0.));
#852=DIRECTION('ref_axis',(-0.85715939137492,0.,0.51505123801208));
#853=DIRECTION('center_axis',(0.,-1.,0.));
#854=DIRECTION('ref_axis',(-0.85715939137492,0.,0.51505123801208));
#855=DIRECTION('',(0.,1.,0.));
#856=DIRECTION('center_axis',(0.,1.,0.));
#857=DIRECTION('ref_axis',(1.83697019872103E-16,0.,1.));
#858=DIRECTION('',(0.,-1.,0.));
#859=DIRECTION('center_axis',(0.,-1.,0.));
#860=DIRECTION('ref_axis',(-1.,0.,0.));
#861=DIRECTION('center_axis',(0.,1.,0.));
#862=DIRECTION('ref_axis',(0.857159391374919,0.,0.515051238012082));
#863=DIRECTION('center_axis',(0.,-1.,0.));
#864=DIRECTION('ref_axis',(0.857159391374919,0.,0.515051238012082));
#865=DIRECTION('',(0.,1.,0.));
#866=DIRECTION('center_axis',(1.,0.,0.));
#867=DIRECTION('ref_axis',(0.,0.,-1.));
#868=DIRECTION('',(0.,0.,-1.));
#869=DIRECTION('center_axis',(0.,1.,0.));
#870=DIRECTION('ref_axis',(-0.819152044288992,0.,-0.573576436351046));
#871=DIRECTION('',(0.,1.,0.));
#872=DIRECTION('center_axis',(0.,1.,0.));
#873=DIRECTION('ref_axis',(-0.819152044288992,0.,-0.573576436351046));
#874=DIRECTION('',(0.,-1.,0.));
#875=DIRECTION('center_axis',(0.342020143325669,0.,0.939692620785908));
#876=DIRECTION('ref_axis',(0.939692620785909,0.,-0.342020143325669));
#877=DIRECTION('',(0.,1.,0.));
#878=DIRECTION('',(0.939692620785909,0.,-0.342020143325669));
#879=DIRECTION('center_axis',(0.,1.,0.));
#880=DIRECTION('ref_axis',(0.819152044288992,0.,-0.573576436351046));
#881=DIRECTION('',(0.,1.,0.));
#882=DIRECTION('center_axis',(0.,1.,0.));
#883=DIRECTION('ref_axis',(0.819152044288992,0.,-0.573576436351046));
#884=DIRECTION('',(0.,-1.,0.));
#885=DIRECTION('center_axis',(-1.,0.,0.));
#886=DIRECTION('ref_axis',(0.,0.,1.));
#887=DIRECTION('',(0.,1.,0.));
#888=DIRECTION('',(0.,0.,1.));
#889=DIRECTION('center_axis',(0.,1.,0.));
#890=DIRECTION('ref_axis',(0.766044443118979,0.,0.642787609686538));
#891=DIRECTION('center_axis',(0.,-1.,0.));
#892=DIRECTION('ref_axis',(0.766044443118979,0.,0.642787609686538));
#893=DIRECTION('',(0.,-1.,0.));
#894=DIRECTION('',(0.,1.,0.));
#895=DIRECTION('center_axis',(1.,0.,0.));
#896=DIRECTION('ref_axis',(0.,0.,-1.));
#897=DIRECTION('',(0.,1.,0.));
#898=DIRECTION('',(0.,0.,-1.));
#899=DIRECTION('center_axis',(0.,1.,0.));
#900=DIRECTION('ref_axis',(-0.766044443118979,0.,0.642787609686538));
#901=DIRECTION('center_axis',(0.,-1.,0.));
#902=DIRECTION('ref_axis',(-0.766044443118979,0.,0.642787609686538));
#903=DIRECTION('',(0.,-1.,0.));
#904=DIRECTION('',(0.,1.,0.));
#905=DIRECTION('center_axis',(-1.,0.,0.));
#906=DIRECTION('ref_axis',(0.,0.,1.));
#907=DIRECTION('',(0.,0.,1.));
#908=DIRECTION('',(0.,1.,0.));
#909=DIRECTION('center_axis',(0.,1.,0.));
#910=DIRECTION('ref_axis',(0.884014264195488,0.,-0.467459924163462));
#911=DIRECTION('',(0.,1.,0.));
#912=DIRECTION('center_axis',(0.,1.,0.));
#913=DIRECTION('ref_axis',(0.884014264195488,0.,-0.467459924163462));
#914=DIRECTION('',(0.,-1.,0.));
#915=DIRECTION('center_axis',(0.,1.,0.));
#916=DIRECTION('ref_axis',(-6.12323399573677E-17,0.,1.));
#917=DIRECTION('',(0.,-1.,0.));
#918=DIRECTION('center_axis',(0.,1.,0.));
#919=DIRECTION('ref_axis',(-1.,0.,0.));
#920=DIRECTION('center_axis',(0.,1.,0.));
#921=DIRECTION('ref_axis',(-0.884014264195489,0.,-0.467459924163461));
#922=DIRECTION('',(0.,1.,0.));
#923=DIRECTION('center_axis',(0.,1.,0.));
#924=DIRECTION('ref_axis',(-0.884014264195489,0.,-0.467459924163461));
#925=DIRECTION('center_axis',(0.17364817766693,0.,0.984807753012208));
#926=DIRECTION('ref_axis',(0.984807753012208,0.,-0.17364817766693));
#927=DIRECTION('',(0.984807753012208,0.,-0.17364817766693));
#928=DIRECTION('center_axis',(1.,0.,0.));
#929=DIRECTION('ref_axis',(0.,0.,-1.));
#930=DIRECTION('',(0.,0.,-1.));
#931=DIRECTION('',(0.,1.,0.));
#932=DIRECTION('center_axis',(0.,1.,0.));
#933=DIRECTION('ref_axis',(-0.980287762700888,0.,0.197575054849766));
#934=DIRECTION('center_axis',(0.,-1.,0.));
#935=DIRECTION('ref_axis',(-0.980287762700888,0.,0.197575054849766));
#936=DIRECTION('',(0.,1.,0.));
#937=DIRECTION('center_axis',(0.,0.,-1.));
#938=DIRECTION('ref_axis',(-1.,0.,0.));
#939=DIRECTION('',(-1.,0.,0.));
#940=DIRECTION('center_axis',(-0.17364817766693,0.,0.984807753012208));
#941=DIRECTION('ref_axis',(0.984807753012208,0.,0.17364817766693));
#942=DIRECTION('',(0.984807753012208,0.,0.17364817766693));
#943=DIRECTION('center_axis',(0.,0.,-1.));
#944=DIRECTION('ref_axis',(-1.,0.,0.));
#945=DIRECTION('',(-1.,0.,0.));
#946=DIRECTION('',(0.,1.,0.));
#947=DIRECTION('center_axis',(0.,1.,0.));
#948=DIRECTION('ref_axis',(-0.980287762700888,0.,0.197575054849766));
#949=DIRECTION('center_axis',(0.,-1.,0.));
#950=DIRECTION('ref_axis',(-0.980287762700888,0.,0.197575054849766));
#951=DIRECTION('center_axis',(-0.342020143325669,0.,0.939692620785908));
#952=DIRECTION('ref_axis',(0.939692620785909,0.,0.342020143325669));
#953=DIRECTION('',(0.939692620785909,0.,0.342020143325669));
#954=DIRECTION('center_axis',(0.938905976739389,0.,-0.344173745139072));
#955=DIRECTION('ref_axis',(-0.344173745139072,0.,-0.938905976739388));
#956=DIRECTION('',(-0.344173745139072,0.,-0.938905976739388));
#957=DIRECTION('center_axis',(0.,1.,0.));
#958=DIRECTION('ref_axis',(-1.,0.,0.));
#959=DIRECTION('',(0.,0.,1.));
#960=DIRECTION('',(1.,0.,0.));
#961=CARTESIAN_POINT('',(0.,0.,0.));
#962=CARTESIAN_POINT('',(0.,0.,0.));
#963=CARTESIAN_POINT('Origin',(3.05037488547616,0.,-10.192));
#964=CARTESIAN_POINT('',(3.05037488547616,10.,-10.442));
#965=CARTESIAN_POINT('',(3.28510137966101,10.,-10.2780434362848));
#966=CARTESIAN_POINT('Origin',(3.05037488547616,10.,-10.192));
#967=CARTESIAN_POINT('',(3.28510137966101,0.,-10.2780434362848));
#968=CARTESIAN_POINT('',(3.28510137966101,0.,-10.2780434362848));
#969=CARTESIAN_POINT('',(3.05037488547616,0.,-10.442));
#970=CARTESIAN_POINT('Origin',(3.05037488547616,0.,-10.192));
#971=CARTESIAN_POINT('',(3.05037488547616,0.,-10.442));
#972=CARTESIAN_POINT('Origin',(3.225,0.,-10.442));
#973=CARTESIAN_POINT('',(1.8625,0.,-10.442));
#974=CARTESIAN_POINT('',(3.225,0.,-10.442));
#975=CARTESIAN_POINT('',(1.8625,10.,-10.442));
#976=CARTESIAN_POINT('',(1.8625,0.,-10.442));
#977=CARTESIAN_POINT('',(3.225,10.,-10.442));
#978=CARTESIAN_POINT('Origin',(0.,0.,-2.221));
#979=CARTESIAN_POINT('',(4.225,0.,-7.714));
#980=CARTESIAN_POINT('',(4.225,0.,-7.714));
#981=CARTESIAN_POINT('',(3.55398992833717,0.,-7.4697723070219));
#982=CARTESIAN_POINT('',(4.225,0.,-7.714));
#983=CARTESIAN_POINT('',(3.225,0.,-6.99992599662894));
#984=CARTESIAN_POINT('Origin',(3.725,0.,-6.99992599662894));
#985=CARTESIAN_POINT('',(3.225,0.,-5.522));
#986=CARTESIAN_POINT('',(3.225,0.,-5.522));
#987=CARTESIAN_POINT('',(4.545,0.,-5.522));
#988=CARTESIAN_POINT('Origin',(3.885,0.,-5.6550216913466));
#989=CARTESIAN_POINT('',(9.5,0.,-5.522));
#990=CARTESIAN_POINT('',(9.5,0.,-5.522));
#991=CARTESIAN_POINT('',(9.5,0.,-4.86104981558864));
#992=CARTESIAN_POINT('',(9.5,0.,-4.4415));
#993=CARTESIAN_POINT('',(9.08682408883347,0.,-4.36864593908254));
#994=CARTESIAN_POINT('Origin',(9.,0.,-4.86104981558864));
#995=CARTESIAN_POINT('',(6.20813812388167,0.,-3.86105593447475));
#996=CARTESIAN_POINT('',(9.5,0.,-4.4415));
#997=CARTESIAN_POINT('',(5.47010254418452,0.,-2.46535558411075));
#998=CARTESIAN_POINT('Origin',(6.3817863015486,0.,-2.87624818146255));
#999=CARTESIAN_POINT('',(-5.47010254418452,0.,-2.46535558411075));
#1000=CARTESIAN_POINT('Origin',(0.,0.,0.));
#1001=CARTESIAN_POINT('',(-6.20813812388167,0.,-3.86105593447475));
#1002=CARTESIAN_POINT('Origin',(-6.3817863015486,0.,-2.87624818146254));
#1003=CARTESIAN_POINT('',(-9.08682408883346,0.,-4.36864593908254));
#1004=CARTESIAN_POINT('',(-9.5,0.,-4.4415));
#1005=CARTESIAN_POINT('',(-9.5,0.,-4.86104981558864));
#1006=CARTESIAN_POINT('Origin',(-9.,0.,-4.86104981558864));
#1007=CARTESIAN_POINT('',(-9.5,0.,-5.522));
#1008=CARTESIAN_POINT('',(-9.5,0.,-5.522));
#1009=CARTESIAN_POINT('',(-4.545,0.,-5.522));
#1010=CARTESIAN_POINT('',(9.5,0.,-5.522));
#1011=CARTESIAN_POINT('',(-3.225,0.,-5.522));
#1012=CARTESIAN_POINT('Origin',(-3.885,0.,-5.6550216913466));
#1013=CARTESIAN_POINT('',(-3.225,0.,-6.99992599662894));
#1014=CARTESIAN_POINT('',(-3.225,0.,-10.442));
#1015=CARTESIAN_POINT('',(-3.55398992833717,0.,-7.4697723070219));
#1016=CARTESIAN_POINT('Origin',(-3.725,0.,-6.99992599662894));
#1017=CARTESIAN_POINT('',(-4.225,0.,-7.714));
#1018=CARTESIAN_POINT('',(-4.225,0.,-7.714));
#1019=CARTESIAN_POINT('',(-3.28510137966101,0.,-10.2780434362848));
#1020=CARTESIAN_POINT('',(-4.225,0.,-7.714));
#1021=CARTESIAN_POINT('',(-3.05037488547616,0.,-10.442));
#1022=CARTESIAN_POINT('Origin',(-3.05037488547616,0.,-10.192));
#1023=CARTESIAN_POINT('',(-1.8625,0.,-10.442));
#1024=CARTESIAN_POINT('',(-1.6125,0.,-10.442));
#1025=CARTESIAN_POINT('',(-1.6125,0.,-10.192));
#1026=CARTESIAN_POINT('Origin',(-1.8625,0.,-10.192));
#1027=CARTESIAN_POINT('',(-1.6125,0.,-3.97332905131201));
#1028=CARTESIAN_POINT('',(-1.6125,0.,-3.66057970135879));
#1029=CARTESIAN_POINT('',(-1.87777777777778,0.,-3.53184804561068));
#1030=CARTESIAN_POINT('Origin',(-2.1125,0.,-3.97332905131201));
#1031=CARTESIAN_POINT('',(1.87777777777778,0.,-3.53184804561068));
#1032=CARTESIAN_POINT('Origin',(0.,0.,0.));
#1033=CARTESIAN_POINT('',(1.6125,0.,-3.97332905131201));
#1034=CARTESIAN_POINT('Origin',(2.1125,0.,-3.97332905131201));
#1035=CARTESIAN_POINT('',(1.6125,0.,-10.192));
#1036=CARTESIAN_POINT('',(1.6125,0.,-10.442));
#1037=CARTESIAN_POINT('Origin',(1.8625,0.,-10.192));
#1038=CARTESIAN_POINT('Origin',(1.8625,0.,-10.192));
#1039=CARTESIAN_POINT('',(1.6125,10.,-10.192));
#1040=CARTESIAN_POINT('Origin',(1.8625,10.,-10.192));
#1041=CARTESIAN_POINT('',(1.6125,0.,-10.192));
#1042=CARTESIAN_POINT('Origin',(1.6125,0.,-10.442));
#1043=CARTESIAN_POINT('',(1.6125,10.,-3.97332905131201));
#1044=CARTESIAN_POINT('',(1.6125,0.,-3.97332905131201));
#1045=CARTESIAN_POINT('',(1.6125,10.,-10.442));
#1046=CARTESIAN_POINT('Origin',(-1.8625,0.,-10.192));
#1047=CARTESIAN_POINT('',(-1.8625,10.,-10.442));
#1048=CARTESIAN_POINT('',(-1.6125,10.,-10.192));
#1049=CARTESIAN_POINT('Origin',(-1.8625,10.,-10.192));
#1050=CARTESIAN_POINT('',(-1.6125,0.,-10.192));
#1051=CARTESIAN_POINT('',(-1.8625,0.,-10.442));
#1052=CARTESIAN_POINT('Origin',(-1.6125,0.,-10.442));
#1053=CARTESIAN_POINT('',(-3.05037488547616,10.,-10.442));
#1054=CARTESIAN_POINT('',(-3.05037488547616,0.,-10.442));
#1055=CARTESIAN_POINT('',(-1.6125,10.,-10.442));
#1056=CARTESIAN_POINT('Origin',(-3.05037488547616,0.,-10.192));
#1057=CARTESIAN_POINT('',(-3.28510137966101,10.,-10.2780434362848));
#1058=CARTESIAN_POINT('Origin',(-3.05037488547616,10.,-10.192));
#1059=CARTESIAN_POINT('',(-3.28510137966101,0.,-10.2780434362848));
#1060=CARTESIAN_POINT('Origin',(-3.225,0.,-10.442));
#1061=CARTESIAN_POINT('',(-4.225,10.,-7.714));
#1062=CARTESIAN_POINT('',(-4.225,0.,-7.714));
#1063=CARTESIAN_POINT('',(-4.225,10.,-7.714));
#1064=CARTESIAN_POINT('Origin',(2.1125,0.,-3.97332905131201));
#1065=CARTESIAN_POINT('',(1.87777777777778,10.,-3.53184804561068));
#1066=CARTESIAN_POINT('Origin',(2.1125,10.,-3.97332905131201));
#1067=CARTESIAN_POINT('',(1.87777777777778,0.,-3.53184804561068));
#1068=CARTESIAN_POINT('Origin',(0.,0.,0.));
#1069=CARTESIAN_POINT('',(-1.87777777777778,10.,-3.53184804561068));
#1070=CARTESIAN_POINT('',(-1.87777777777778,0.,-3.53184804561068));
#1071=CARTESIAN_POINT('Origin',(0.,10.,0.));
#1072=CARTESIAN_POINT('Origin',(-2.1125,0.,-3.97332905131201));
#1073=CARTESIAN_POINT('',(-1.6125,10.,-3.97332905131201));
#1074=CARTESIAN_POINT('Origin',(-2.1125,10.,-3.97332905131201));
#1075=CARTESIAN_POINT('',(-1.6125,0.,-3.97332905131201));
#1076=CARTESIAN_POINT('Origin',(-1.6125,0.,-3.66057970135879));
#1077=CARTESIAN_POINT('',(-1.6125,10.,-3.66057970135879));
#1078=CARTESIAN_POINT('Origin',(3.725,0.,-6.99992599662894));
#1079=CARTESIAN_POINT('',(3.55398992833717,10.,-7.4697723070219));
#1080=CARTESIAN_POINT('',(3.55398992833717,0.,-7.4697723070219));
#1081=CARTESIAN_POINT('',(3.225,10.,-6.99992599662894));
#1082=CARTESIAN_POINT('Origin',(3.725,10.,-6.99992599662894));
#1083=CARTESIAN_POINT('',(3.225,0.,-6.99992599662894));
#1084=CARTESIAN_POINT('Origin',(3.225,0.,-7.3500297657338));
#1085=CARTESIAN_POINT('',(4.225,10.,-7.714));
#1086=CARTESIAN_POINT('',(4.225,0.,-7.714));
#1087=CARTESIAN_POINT('',(4.225,10.,-7.714));
#1088=CARTESIAN_POINT('Origin',(-3.725,0.,-6.99992599662894));
#1089=CARTESIAN_POINT('',(-3.225,10.,-6.99992599662894));
#1090=CARTESIAN_POINT('',(-3.225,0.,-6.99992599662894));
#1091=CARTESIAN_POINT('',(-3.55398992833717,10.,-7.4697723070219));
#1092=CARTESIAN_POINT('Origin',(-3.725,10.,-6.99992599662894));
#1093=CARTESIAN_POINT('',(-3.55398992833717,0.,-7.4697723070219));
#1094=CARTESIAN_POINT('Origin',(-3.225,0.,-7.3500297657338));
#1095=CARTESIAN_POINT('',(-3.225,10.,-5.522));
#1096=CARTESIAN_POINT('',(-3.225,0.,-5.522));
#1097=CARTESIAN_POINT('',(-3.225,10.,-10.442));
#1098=CARTESIAN_POINT('Origin',(9.,0.,-4.86104981558864));
#1099=CARTESIAN_POINT('',(9.5,10.,-4.86104981558864));
#1100=CARTESIAN_POINT('',(9.08682408883347,10.,-4.36864593908254));
#1101=CARTESIAN_POINT('Origin',(9.,10.,-4.86104981558864));
#1102=CARTESIAN_POINT('',(9.08682408883347,0.,-4.36864593908254));
#1103=CARTESIAN_POINT('',(9.5,0.,-4.86104981558864));
#1104=CARTESIAN_POINT('Origin',(9.5,0.,-4.4415));
#1105=CARTESIAN_POINT('',(9.5,10.,-5.522));
#1106=CARTESIAN_POINT('',(9.5,0.,-5.522));
#1107=CARTESIAN_POINT('',(9.5,10.,-4.4415));
#1108=CARTESIAN_POINT('Origin',(-9.,0.,-4.86104981558864));
#1109=CARTESIAN_POINT('',(-9.08682408883346,10.,-4.36864593908254));
#1110=CARTESIAN_POINT('',(-9.5,10.,-4.86104981558864));
#1111=CARTESIAN_POINT('Origin',(-9.,10.,-4.86104981558864));
#1112=CARTESIAN_POINT('',(-9.5,0.,-4.86104981558864));
#1113=CARTESIAN_POINT('',(-9.08682408883346,0.,-4.36864593908254));
#1114=CARTESIAN_POINT('Origin',(-9.5,0.,-5.522));
#1115=CARTESIAN_POINT('',(-9.5,10.,-5.522));
#1116=CARTESIAN_POINT('',(-9.5,10.,-5.522));
#1117=CARTESIAN_POINT('',(-9.5,0.,-5.522));
#1118=CARTESIAN_POINT('Origin',(-6.3817863015486,0.,-2.87624818146254));
#1119=CARTESIAN_POINT('',(-5.47010254418452,10.,-2.46535558411075));
#1120=CARTESIAN_POINT('',(-5.47010254418452,0.,-2.46535558411075));
#1121=CARTESIAN_POINT('',(-6.20813812388167,10.,-3.86105593447475));
#1122=CARTESIAN_POINT('Origin',(-6.3817863015486,10.,-2.87624818146254));
#1123=CARTESIAN_POINT('',(-6.20813812388167,0.,-3.86105593447475));
#1124=CARTESIAN_POINT('Origin',(0.,0.,0.));
#1125=CARTESIAN_POINT('',(5.47010254418452,10.,-2.46535558411075));
#1126=CARTESIAN_POINT('',(5.47010254418452,0.,-2.46535558411075));
#1127=CARTESIAN_POINT('Origin',(0.,10.,0.));
#1128=CARTESIAN_POINT('Origin',(6.3817863015486,0.,-2.87624818146255));
#1129=CARTESIAN_POINT('',(6.20813812388167,10.,-3.86105593447475));
#1130=CARTESIAN_POINT('',(6.20813812388167,0.,-3.86105593447475));
#1131=CARTESIAN_POINT('Origin',(6.3817863015486,10.,-2.87624818146255));
#1132=CARTESIAN_POINT('Origin',(4.79152736608744,0.,-3.61126923671376));
#1133=CARTESIAN_POINT('',(9.5,10.,-4.4415));
#1134=CARTESIAN_POINT('Origin',(3.225,0.,-5.522));
#1135=CARTESIAN_POINT('',(3.225,10.,-5.522));
#1136=CARTESIAN_POINT('',(3.225,10.,-5.522));
#1137=CARTESIAN_POINT('',(3.225,0.,-5.522));
#1138=CARTESIAN_POINT('Origin',(3.885,0.,-5.6550216913466));
#1139=CARTESIAN_POINT('',(4.545,10.,-5.522));
#1140=CARTESIAN_POINT('Origin',(3.885,10.,-5.6550216913466));
#1141=CARTESIAN_POINT('',(4.545,0.,-5.522));
#1142=CARTESIAN_POINT('Origin',(9.5,0.,-5.522));
#1143=CARTESIAN_POINT('',(9.5,10.,-5.522));
#1144=CARTESIAN_POINT('Origin',(-9.5,0.,-4.4415));
#1145=CARTESIAN_POINT('',(-9.5,10.,-4.4415));
#1146=CARTESIAN_POINT('Origin',(-4.545,0.,-5.522));
#1147=CARTESIAN_POINT('',(-4.545,10.,-5.522));
#1148=CARTESIAN_POINT('',(9.5,10.,-5.522));
#1149=CARTESIAN_POINT('',(-4.545,0.,-5.522));
#1150=CARTESIAN_POINT('Origin',(-3.885,0.,-5.6550216913466));
#1151=CARTESIAN_POINT('Origin',(-3.885,10.,-5.6550216913466));
#1152=CARTESIAN_POINT('Origin',(-4.225,0.,-7.714));
#1153=CARTESIAN_POINT('',(-4.225,10.,-7.714));
#1154=CARTESIAN_POINT('Origin',(4.225,0.,-7.714));
#1155=CARTESIAN_POINT('',(4.225,10.,-7.714));
#1156=CARTESIAN_POINT('Origin',(0.,10.,-2.221));
#1157=CARTESIAN_POINT('',(0.,0.,0.));
#1158=UNCERTAINTY_MEASURE_WITH_UNIT(LENGTH_MEASURE(0.01),#1164,
'DISTANCE_ACCURACY_VALUE',
'Maximum model space distance between geometric entities at asserted c
onnectivities');
#1159=UNCERTAINTY_MEASURE_WITH_UNIT(LENGTH_MEASURE(0.01),#1164,
'DISTANCE_ACCURACY_VALUE',
'Maximum model space distance between geometric entities at asserted c
onnectivities');
#1160=UNCERTAINTY_MEASURE_WITH_UNIT(LENGTH_MEASURE(0.01),#1164,
'DISTANCE_ACCURACY_VALUE',
'Maximum model space distance between geometric entities at asserted c
onnectivities');
#1161=(
GEOMETRIC_REPRESENTATION_CONTEXT(3)
GLOBAL_UNCERTAINTY_ASSIGNED_CONTEXT((#1158))
GLOBAL_UNIT_ASSIGNED_CONTEXT((#1164,#1166,#1167))
REPRESENTATION_CONTEXT('','3D')
);
#1162=(
GEOMETRIC_REPRESENTATION_CONTEXT(3)
GLOBAL_UNCERTAINTY_ASSIGNED_CONTEXT((#1159))
GLOBAL_UNIT_ASSIGNED_CONTEXT((#1164,#1166,#1167))
REPRESENTATION_CONTEXT('','3D')
);
#1163=(
GEOMETRIC_REPRESENTATION_CONTEXT(3)
GLOBAL_UNCERTAINTY_ASSIGNED_CONTEXT((#1160))
GLOBAL_UNIT_ASSIGNED_CONTEXT((#1164,#1166,#1167))
REPRESENTATION_CONTEXT('','3D')
);
#1164=(
LENGTH_UNIT()
NAMED_UNIT(*)
SI_UNIT(.MILLI.,.METRE.)
);
#1165=(
LENGTH_UNIT()
NAMED_UNIT(*)
SI_UNIT($,.METRE.)
);
#1166=(
NAMED_UNIT(*)
PLANE_ANGLE_UNIT()
SI_UNIT($,.RADIAN.)
);
#1167=(
NAMED_UNIT(*)
SI_UNIT($,.STERADIAN.)
SOLID_ANGLE_UNIT()
);
#1168=SHAPE_DEFINITION_REPRESENTATION(#1170,#1173);
#1169=SHAPE_DEFINITION_REPRESENTATION(#1171,#1174);
#1170=PRODUCT_DEFINITION_SHAPE('',$,#1176);
#1171=PRODUCT_DEFINITION_SHAPE('',$,#1177);
#1172=PRODUCT_DEFINITION_SHAPE($,$,#14);
#1173=SHAPE_REPRESENTATION('',(#690,#758),#1161);
#1174=SHAPE_REPRESENTATION('',(#691),#1162);
#1175=PRODUCT_DEFINITION_CONTEXT('part definition',#1183,'design');
#1176=PRODUCT_DEFINITION('2026-08-12-19-13-38-505',
'2020_8mm dia_cable guide',#1178,#1175);
#1177=PRODUCT_DEFINITION('2026-10-02-13-50-59-611',
'2020_8mm_cable guide',#1179,#1175);
#1178=PRODUCT_DEFINITION_FORMATION('',$,#1185);
#1179=PRODUCT_DEFINITION_FORMATION('',$,#1186);
#1180=PRODUCT_RELATED_PRODUCT_CATEGORY('2020_8mm dia_cable guide',
'2020_8mm dia_cable guide',(#1185));
#1181=PRODUCT_RELATED_PRODUCT_CATEGORY('2020_8mm_cable guide',
'2020_8mm_cable guide',(#1186));
#1182=APPLICATION_PROTOCOL_DEFINITION('international standard',
'automotive_design',2009,#1183);
#1183=APPLICATION_CONTEXT(
'Core Data for Automotive Mechanical Design Process');
#1184=PRODUCT_CONTEXT('part definition',#1183,'mechanical');
#1185=PRODUCT('2026-08-12-19-13-38-505','2020_8mm dia_cable guide',$,(#1184));
#1186=PRODUCT('2026-10-02-13-50-59-611','2020_8mm_cable guide',$,(#1184));
#1187=PRESENTATION_STYLE_ASSIGNMENT((#1188));
#1188=SURFACE_STYLE_USAGE(.BOTH.,#1189);
#1189=SURFACE_SIDE_STYLE('',(#1190));
#1190=SURFACE_STYLE_FILL_AREA(#1191);
#1191=FILL_AREA_STYLE('Plastic - Glossy (Grey)',(#1192));
#1192=FILL_AREA_STYLE_COLOUR('Plastic - Glossy (Grey)',#1193);
#1193=COLOUR_RGB('Plastic - Glossy (Grey)',0.701960784313725,0.701960784313725,
0.701960784313725);
ENDSEC;
END-ISO-10303-21;
