ISO-10303-21;
HEADER;
/* Generated by software containing ST-Developer
 * from STEP Tools, Inc. (www.steptools.com) 
 */

FILE_DESCRIPTION(
/* description */ (''),
/* implementation_level */ '2;1');

FILE_NAME(
/* name */ '2020 T-Slot cover_wire guide.step',
/* time_stamp */ '2026-10-03T15:22:23-05:00',
/* author */ (''),
/* organization */ (''),
/* preprocessor_version */ 'ST-DEVELOPER v20.1',
/* originating_system */ 'Autodesk Translation Framework v15.8.0.0',
/* authorisation */ '');

FILE_SCHEMA (('AUTOMOTIVE_DESIGN { 1 0 10303 214 3 1 1 }'));
ENDSEC;

DATA;
#10=MECHANICAL_DESIGN_GEOMETRIC_PRESENTATION_REPRESENTATION('',(#17),#605);
#11=ITEM_DEFINED_TRANSFORMATION($,$,#365,#396);
#12=(
REPRESENTATION_RELATIONSHIP($,$,#616,#615)
REPRESENTATION_RELATIONSHIP_WITH_TRANSFORMATION(#11)
SHAPE_REPRESENTATION_RELATIONSHIP()
);
#13=CONTEXT_DEPENDENT_SHAPE_REPRESENTATION(#12,#614);
#14=NEXT_ASSEMBLY_USAGE_OCCURRENCE(
'2020 T-Slot cover_wire guide_ver3:1',
'2020 T-Slot cover_wire guide_ver3:1',
'2020 T-Slot cover_wire guide_ver3:1',#618,#619,
'2020 T-Slot cover_wire guide_ver3:1');
#15=SHAPE_REPRESENTATION_RELATIONSHIP('SRR','None',#616,#16);
#16=ADVANCED_BREP_SHAPE_REPRESENTATION('',(#18),#604);
#17=STYLED_ITEM('',(#629),#18);
#18=MANIFOLD_SOLID_BREP('2020 T-Slot cover_wire guide',#351);
#19=CIRCLE('',#368,0.799999999999999);
#20=CIRCLE('',#369,0.799999999999999);
#21=CIRCLE('',#372,0.799999999999999);
#22=CIRCLE('',#373,0.799999999999999);
#23=CIRCLE('',#376,0.8584);
#24=CIRCLE('',#377,0.8584);
#25=CIRCLE('',#379,0.502998272768277);
#26=CIRCLE('',#380,0.502998272768277);
#27=CIRCLE('',#389,0.502998272768277);
#28=CIRCLE('',#390,0.502998272768277);
#29=CIRCLE('',#392,0.8584);
#30=CIRCLE('',#393,0.8584);
#31=CYLINDRICAL_SURFACE('',#367,0.799999999999999);
#32=CYLINDRICAL_SURFACE('',#371,0.799999999999999);
#33=CYLINDRICAL_SURFACE('',#375,0.8584);
#34=CYLINDRICAL_SURFACE('',#378,0.502998272768277);
#35=CYLINDRICAL_SURFACE('',#388,0.502998272768277);
#36=CYLINDRICAL_SURFACE('',#391,0.8584);
#37=FACE_OUTER_BOUND('',#55,.T.);
#38=FACE_OUTER_BOUND('',#56,.T.);
#39=FACE_OUTER_BOUND('',#57,.T.);
#40=FACE_OUTER_BOUND('',#58,.T.);
#41=FACE_OUTER_BOUND('',#59,.T.);
#42=FACE_OUTER_BOUND('',#60,.T.);
#43=FACE_OUTER_BOUND('',#61,.T.);
#44=FACE_OUTER_BOUND('',#62,.T.);
#45=FACE_OUTER_BOUND('',#63,.T.);
#46=FACE_OUTER_BOUND('',#64,.T.);
#47=FACE_OUTER_BOUND('',#65,.T.);
#48=FACE_OUTER_BOUND('',#66,.T.);
#49=FACE_OUTER_BOUND('',#67,.T.);
#50=FACE_OUTER_BOUND('',#68,.T.);
#51=FACE_OUTER_BOUND('',#69,.T.);
#52=FACE_OUTER_BOUND('',#70,.T.);
#53=FACE_OUTER_BOUND('',#71,.T.);
#54=FACE_OUTER_BOUND('',#72,.T.);
#55=EDGE_LOOP('',(#225,#226,#227,#228));
#56=EDGE_LOOP('',(#229,#230,#231,#232));
#57=EDGE_LOOP('',(#233,#234,#235,#236));
#58=EDGE_LOOP('',(#237,#238,#239,#240));
#59=EDGE_LOOP('',(#241,#242,#243,#244));
#60=EDGE_LOOP('',(#245,#246,#247,#248));
#61=EDGE_LOOP('',(#249,#250,#251,#252));
#62=EDGE_LOOP('',(#253,#254,#255,#256));
#63=EDGE_LOOP('',(#257,#258,#259,#260));
#64=EDGE_LOOP('',(#261,#262,#263,#264));
#65=EDGE_LOOP('',(#265,#266,#267,#268));
#66=EDGE_LOOP('',(#269,#270,#271,#272));
#67=EDGE_LOOP('',(#273,#274,#275,#276));
#68=EDGE_LOOP('',(#277,#278,#279,#280));
#69=EDGE_LOOP('',(#281,#282,#283,#284));
#70=EDGE_LOOP('',(#285,#286,#287,#288));
#71=EDGE_LOOP('',(#289,#290,#291,#292,#293,#294,#295,#296,#297,#298,#299,
#300,#301,#302,#303,#304));
#72=EDGE_LOOP('',(#305,#306,#307,#308,#309,#310,#311,#312,#313,#314,#315,
#316,#317,#318,#319,#320));
#73=LINE('',#504,#109);
#74=LINE('',#506,#110);
#75=LINE('',#508,#111);
#76=LINE('',#509,#112);
#77=LINE('',#515,#113);
#78=LINE('',#518,#114);
#79=LINE('',#520,#115);
#80=LINE('',#521,#116);
#81=LINE('',#527,#117);
#82=LINE('',#530,#118);
#83=LINE('',#532,#119);
#84=LINE('',#533,#120);
#85=LINE('',#539,#121);
#86=LINE('',#545,#122);
#87=LINE('',#548,#123);
#88=LINE('',#550,#124);
#89=LINE('',#551,#125);
#90=LINE('',#554,#126);
#91=LINE('',#556,#127);
#92=LINE('',#557,#128);
#93=LINE('',#560,#129);
#94=LINE('',#562,#130);
#95=LINE('',#563,#131);
#96=LINE('',#566,#132);
#97=LINE('',#568,#133);
#98=LINE('',#569,#134);
#99=LINE('',#572,#135);
#100=LINE('',#574,#136);
#101=LINE('',#575,#137);
#102=LINE('',#578,#138);
#103=LINE('',#580,#139);
#104=LINE('',#581,#140);
#105=LINE('',#584,#141);
#106=LINE('',#586,#142);
#107=LINE('',#587,#143);
#108=LINE('',#593,#144);
#109=VECTOR('',#403,10.);
#110=VECTOR('',#404,10.);
#111=VECTOR('',#405,10.);
#112=VECTOR('',#406,10.);
#113=VECTOR('',#413,10.);
#114=VECTOR('',#416,10.);
#115=VECTOR('',#417,10.);
#116=VECTOR('',#418,10.);
#117=VECTOR('',#425,10.);
#118=VECTOR('',#428,10.);
#119=VECTOR('',#429,10.);
#120=VECTOR('',#430,10.);
#121=VECTOR('',#437,10.);
#122=VECTOR('',#444,10.);
#123=VECTOR('',#447,10.);
#124=VECTOR('',#448,10.);
#125=VECTOR('',#449,10.);
#126=VECTOR('',#452,10.);
#127=VECTOR('',#453,10.);
#128=VECTOR('',#454,10.);
#129=VECTOR('',#457,10.);
#130=VECTOR('',#458,10.);
#131=VECTOR('',#459,10.);
#132=VECTOR('',#462,10.);
#133=VECTOR('',#463,10.);
#134=VECTOR('',#464,10.);
#135=VECTOR('',#467,10.);
#136=VECTOR('',#468,10.);
#137=VECTOR('',#469,10.);
#138=VECTOR('',#472,10.);
#139=VECTOR('',#473,10.);
#140=VECTOR('',#474,10.);
#141=VECTOR('',#477,10.);
#142=VECTOR('',#478,10.);
#143=VECTOR('',#479,10.);
#144=VECTOR('',#486,10.);
#145=VERTEX_POINT('',#502);
#146=VERTEX_POINT('',#503);
#147=VERTEX_POINT('',#505);
#148=VERTEX_POINT('',#507);
#149=VERTEX_POINT('',#511);
#150=VERTEX_POINT('',#513);
#151=VERTEX_POINT('',#517);
#152=VERTEX_POINT('',#519);
#153=VERTEX_POINT('',#523);
#154=VERTEX_POINT('',#525);
#155=VERTEX_POINT('',#529);
#156=VERTEX_POINT('',#531);
#157=VERTEX_POINT('',#535);
#158=VERTEX_POINT('',#537);
#159=VERTEX_POINT('',#541);
#160=VERTEX_POINT('',#543);
#161=VERTEX_POINT('',#547);
#162=VERTEX_POINT('',#549);
#163=VERTEX_POINT('',#553);
#164=VERTEX_POINT('',#555);
#165=VERTEX_POINT('',#559);
#166=VERTEX_POINT('',#561);
#167=VERTEX_POINT('',#565);
#168=VERTEX_POINT('',#567);
#169=VERTEX_POINT('',#571);
#170=VERTEX_POINT('',#573);
#171=VERTEX_POINT('',#577);
#172=VERTEX_POINT('',#579);
#173=VERTEX_POINT('',#583);
#174=VERTEX_POINT('',#585);
#175=VERTEX_POINT('',#589);
#176=VERTEX_POINT('',#591);
#177=EDGE_CURVE('',#145,#146,#73,.T.);
#178=EDGE_CURVE('',#145,#147,#74,.T.);
#179=EDGE_CURVE('',#148,#147,#75,.T.);
#180=EDGE_CURVE('',#146,#148,#76,.T.);
#181=EDGE_CURVE('',#146,#149,#19,.T.);
#182=EDGE_CURVE('',#150,#148,#20,.T.);
#183=EDGE_CURVE('',#149,#150,#77,.T.);
#184=EDGE_CURVE('',#149,#151,#78,.T.);
#185=EDGE_CURVE('',#152,#150,#79,.T.);
#186=EDGE_CURVE('',#151,#152,#80,.T.);
#187=EDGE_CURVE('',#151,#153,#21,.T.);
#188=EDGE_CURVE('',#154,#152,#22,.T.);
#189=EDGE_CURVE('',#153,#154,#81,.T.);
#190=EDGE_CURVE('',#155,#153,#82,.T.);
#191=EDGE_CURVE('',#156,#154,#83,.T.);
#192=EDGE_CURVE('',#155,#156,#84,.T.);
#193=EDGE_CURVE('',#157,#155,#23,.T.);
#194=EDGE_CURVE('',#158,#156,#24,.T.);
#195=EDGE_CURVE('',#157,#158,#85,.T.);
#196=EDGE_CURVE('',#157,#159,#25,.T.);
#197=EDGE_CURVE('',#160,#158,#26,.T.);
#198=EDGE_CURVE('',#159,#160,#86,.T.);
#199=EDGE_CURVE('',#161,#159,#87,.T.);
#200=EDGE_CURVE('',#162,#160,#88,.T.);
#201=EDGE_CURVE('',#161,#162,#89,.T.);
#202=EDGE_CURVE('',#161,#163,#90,.T.);
#203=EDGE_CURVE('',#164,#162,#91,.T.);
#204=EDGE_CURVE('',#163,#164,#92,.T.);
#205=EDGE_CURVE('',#165,#163,#93,.T.);
#206=EDGE_CURVE('',#166,#164,#94,.T.);
#207=EDGE_CURVE('',#165,#166,#95,.T.);
#208=EDGE_CURVE('',#165,#167,#96,.T.);
#209=EDGE_CURVE('',#168,#166,#97,.T.);
#210=EDGE_CURVE('',#167,#168,#98,.T.);
#211=EDGE_CURVE('',#167,#169,#99,.T.);
#212=EDGE_CURVE('',#170,#168,#100,.T.);
#213=EDGE_CURVE('',#169,#170,#101,.T.);
#214=EDGE_CURVE('',#169,#171,#102,.T.);
#215=EDGE_CURVE('',#172,#170,#103,.T.);
#216=EDGE_CURVE('',#171,#172,#104,.T.);
#217=EDGE_CURVE('',#171,#173,#105,.T.);
#218=EDGE_CURVE('',#174,#172,#106,.T.);
#219=EDGE_CURVE('',#173,#174,#107,.T.);
#220=EDGE_CURVE('',#173,#175,#27,.T.);
#221=EDGE_CURVE('',#176,#174,#28,.T.);
#222=EDGE_CURVE('',#175,#176,#108,.T.);
#223=EDGE_CURVE('',#145,#175,#29,.T.);
#224=EDGE_CURVE('',#147,#176,#30,.T.);
#225=ORIENTED_EDGE('',*,*,#177,.F.);
#226=ORIENTED_EDGE('',*,*,#178,.T.);
#227=ORIENTED_EDGE('',*,*,#179,.F.);
#228=ORIENTED_EDGE('',*,*,#180,.F.);
#229=ORIENTED_EDGE('',*,*,#181,.F.);
#230=ORIENTED_EDGE('',*,*,#180,.T.);
#231=ORIENTED_EDGE('',*,*,#182,.F.);
#232=ORIENTED_EDGE('',*,*,#183,.F.);
#233=ORIENTED_EDGE('',*,*,#184,.F.);
#234=ORIENTED_EDGE('',*,*,#183,.T.);
#235=ORIENTED_EDGE('',*,*,#185,.F.);
#236=ORIENTED_EDGE('',*,*,#186,.F.);
#237=ORIENTED_EDGE('',*,*,#187,.F.);
#238=ORIENTED_EDGE('',*,*,#186,.T.);
#239=ORIENTED_EDGE('',*,*,#188,.F.);
#240=ORIENTED_EDGE('',*,*,#189,.F.);
#241=ORIENTED_EDGE('',*,*,#190,.T.);
#242=ORIENTED_EDGE('',*,*,#189,.T.);
#243=ORIENTED_EDGE('',*,*,#191,.F.);
#244=ORIENTED_EDGE('',*,*,#192,.F.);
#245=ORIENTED_EDGE('',*,*,#193,.T.);
#246=ORIENTED_EDGE('',*,*,#192,.T.);
#247=ORIENTED_EDGE('',*,*,#194,.F.);
#248=ORIENTED_EDGE('',*,*,#195,.F.);
#249=ORIENTED_EDGE('',*,*,#196,.F.);
#250=ORIENTED_EDGE('',*,*,#195,.T.);
#251=ORIENTED_EDGE('',*,*,#197,.F.);
#252=ORIENTED_EDGE('',*,*,#198,.F.);
#253=ORIENTED_EDGE('',*,*,#199,.T.);
#254=ORIENTED_EDGE('',*,*,#198,.T.);
#255=ORIENTED_EDGE('',*,*,#200,.F.);
#256=ORIENTED_EDGE('',*,*,#201,.F.);
#257=ORIENTED_EDGE('',*,*,#202,.F.);
#258=ORIENTED_EDGE('',*,*,#201,.T.);
#259=ORIENTED_EDGE('',*,*,#203,.F.);
#260=ORIENTED_EDGE('',*,*,#204,.F.);
#261=ORIENTED_EDGE('',*,*,#205,.T.);
#262=ORIENTED_EDGE('',*,*,#204,.T.);
#263=ORIENTED_EDGE('',*,*,#206,.F.);
#264=ORIENTED_EDGE('',*,*,#207,.F.);
#265=ORIENTED_EDGE('',*,*,#208,.F.);
#266=ORIENTED_EDGE('',*,*,#207,.T.);
#267=ORIENTED_EDGE('',*,*,#209,.F.);
#268=ORIENTED_EDGE('',*,*,#210,.F.);
#269=ORIENTED_EDGE('',*,*,#211,.F.);
#270=ORIENTED_EDGE('',*,*,#210,.T.);
#271=ORIENTED_EDGE('',*,*,#212,.F.);
#272=ORIENTED_EDGE('',*,*,#213,.F.);
#273=ORIENTED_EDGE('',*,*,#214,.F.);
#274=ORIENTED_EDGE('',*,*,#213,.T.);
#275=ORIENTED_EDGE('',*,*,#215,.F.);
#276=ORIENTED_EDGE('',*,*,#216,.F.);
#277=ORIENTED_EDGE('',*,*,#217,.F.);
#278=ORIENTED_EDGE('',*,*,#216,.T.);
#279=ORIENTED_EDGE('',*,*,#218,.F.);
#280=ORIENTED_EDGE('',*,*,#219,.F.);
#281=ORIENTED_EDGE('',*,*,#220,.F.);
#282=ORIENTED_EDGE('',*,*,#219,.T.);
#283=ORIENTED_EDGE('',*,*,#221,.F.);
#284=ORIENTED_EDGE('',*,*,#222,.F.);
#285=ORIENTED_EDGE('',*,*,#223,.T.);
#286=ORIENTED_EDGE('',*,*,#222,.T.);
#287=ORIENTED_EDGE('',*,*,#224,.F.);
#288=ORIENTED_EDGE('',*,*,#178,.F.);
#289=ORIENTED_EDGE('',*,*,#224,.T.);
#290=ORIENTED_EDGE('',*,*,#221,.T.);
#291=ORIENTED_EDGE('',*,*,#218,.T.);
#292=ORIENTED_EDGE('',*,*,#215,.T.);
#293=ORIENTED_EDGE('',*,*,#212,.T.);
#294=ORIENTED_EDGE('',*,*,#209,.T.);
#295=ORIENTED_EDGE('',*,*,#206,.T.);
#296=ORIENTED_EDGE('',*,*,#203,.T.);
#297=ORIENTED_EDGE('',*,*,#200,.T.);
#298=ORIENTED_EDGE('',*,*,#197,.T.);
#299=ORIENTED_EDGE('',*,*,#194,.T.);
#300=ORIENTED_EDGE('',*,*,#191,.T.);
#301=ORIENTED_EDGE('',*,*,#188,.T.);
#302=ORIENTED_EDGE('',*,*,#185,.T.);
#303=ORIENTED_EDGE('',*,*,#182,.T.);
#304=ORIENTED_EDGE('',*,*,#179,.T.);
#305=ORIENTED_EDGE('',*,*,#223,.F.);
#306=ORIENTED_EDGE('',*,*,#177,.T.);
#307=ORIENTED_EDGE('',*,*,#181,.T.);
#308=ORIENTED_EDGE('',*,*,#184,.T.);
#309=ORIENTED_EDGE('',*,*,#187,.T.);
#310=ORIENTED_EDGE('',*,*,#190,.F.);
#311=ORIENTED_EDGE('',*,*,#193,.F.);
#312=ORIENTED_EDGE('',*,*,#196,.T.);
#313=ORIENTED_EDGE('',*,*,#199,.F.);
#314=ORIENTED_EDGE('',*,*,#202,.T.);
#315=ORIENTED_EDGE('',*,*,#205,.F.);
#316=ORIENTED_EDGE('',*,*,#208,.T.);
#317=ORIENTED_EDGE('',*,*,#211,.T.);
#318=ORIENTED_EDGE('',*,*,#214,.T.);
#319=ORIENTED_EDGE('',*,*,#217,.T.);
#320=ORIENTED_EDGE('',*,*,#220,.T.);
#321=PLANE('',#366);
#322=PLANE('',#370);
#323=PLANE('',#374);
#324=PLANE('',#381);
#325=PLANE('',#382);
#326=PLANE('',#383);
#327=PLANE('',#384);
#328=PLANE('',#385);
#329=PLANE('',#386);
#330=PLANE('',#387);
#331=PLANE('',#394);
#332=PLANE('',#395);
#333=ADVANCED_FACE('',(#37),#321,.T.);
#334=ADVANCED_FACE('',(#38),#31,.F.);
#335=ADVANCED_FACE('',(#39),#322,.T.);
#336=ADVANCED_FACE('',(#40),#32,.F.);
#337=ADVANCED_FACE('',(#41),#323,.T.);
#338=ADVANCED_FACE('',(#42),#33,.T.);
#339=ADVANCED_FACE('',(#43),#34,.F.);
#340=ADVANCED_FACE('',(#44),#324,.T.);
#341=ADVANCED_FACE('',(#45),#325,.T.);
#342=ADVANCED_FACE('',(#46),#326,.T.);
#343=ADVANCED_FACE('',(#47),#327,.T.);
#344=ADVANCED_FACE('',(#48),#328,.T.);
#345=ADVANCED_FACE('',(#49),#329,.T.);
#346=ADVANCED_FACE('',(#50),#330,.T.);
#347=ADVANCED_FACE('',(#51),#35,.F.);
#348=ADVANCED_FACE('',(#52),#36,.T.);
#349=ADVANCED_FACE('',(#53),#331,.T.);
#350=ADVANCED_FACE('',(#54),#332,.F.);
#351=CLOSED_SHELL('',(#333,#334,#335,#336,#337,#338,#339,#340,#341,#342,
#343,#344,#345,#346,#347,#348,#349,#350));
#352=DERIVED_UNIT_ELEMENT(#354,1.);
#353=DERIVED_UNIT_ELEMENT(#607,-3.);
#354=(
MASS_UNIT()
NAMED_UNIT(*)
SI_UNIT(.KILO.,.GRAM.)
);
#355=DERIVED_UNIT((#352,#353));
#356=MEASURE_REPRESENTATION_ITEM('density measure',
POSITIVE_RATIO_MEASURE(2700.),#355);
#357=PROPERTY_DEFINITION_REPRESENTATION(#362,#359);
#358=PROPERTY_DEFINITION_REPRESENTATION(#363,#360);
#359=REPRESENTATION('material name',(#361),#604);
#360=REPRESENTATION('density',(#356),#604);
#361=DESCRIPTIVE_REPRESENTATION_ITEM('Aluminum 6061','Aluminum 6061');
#362=PROPERTY_DEFINITION('material property','material name',#619);
#363=PROPERTY_DEFINITION('material property','density of part',#619);
#364=AXIS2_PLACEMENT_3D('',#499,#397,#398);
#365=AXIS2_PLACEMENT_3D('',#500,#399,#400);
#366=AXIS2_PLACEMENT_3D('',#501,#401,#402);
#367=AXIS2_PLACEMENT_3D('',#510,#407,#408);
#368=AXIS2_PLACEMENT_3D('',#512,#409,#410);
#369=AXIS2_PLACEMENT_3D('',#514,#411,#412);
#370=AXIS2_PLACEMENT_3D('',#516,#414,#415);
#371=AXIS2_PLACEMENT_3D('',#522,#419,#420);
#372=AXIS2_PLACEMENT_3D('',#524,#421,#422);
#373=AXIS2_PLACEMENT_3D('',#526,#423,#424);
#374=AXIS2_PLACEMENT_3D('',#528,#426,#427);
#375=AXIS2_PLACEMENT_3D('',#534,#431,#432);
#376=AXIS2_PLACEMENT_3D('',#536,#433,#434);
#377=AXIS2_PLACEMENT_3D('',#538,#435,#436);
#378=AXIS2_PLACEMENT_3D('',#540,#438,#439);
#379=AXIS2_PLACEMENT_3D('',#542,#440,#441);
#380=AXIS2_PLACEMENT_3D('',#544,#442,#443);
#381=AXIS2_PLACEMENT_3D('',#546,#445,#446);
#382=AXIS2_PLACEMENT_3D('',#552,#450,#451);
#383=AXIS2_PLACEMENT_3D('',#558,#455,#456);
#384=AXIS2_PLACEMENT_3D('',#564,#460,#461);
#385=AXIS2_PLACEMENT_3D('',#570,#465,#466);
#386=AXIS2_PLACEMENT_3D('',#576,#470,#471);
#387=AXIS2_PLACEMENT_3D('',#582,#475,#476);
#388=AXIS2_PLACEMENT_3D('',#588,#480,#481);
#389=AXIS2_PLACEMENT_3D('',#590,#482,#483);
#390=AXIS2_PLACEMENT_3D('',#592,#484,#485);
#391=AXIS2_PLACEMENT_3D('',#594,#487,#488);
#392=AXIS2_PLACEMENT_3D('',#595,#489,#490);
#393=AXIS2_PLACEMENT_3D('',#596,#491,#492);
#394=AXIS2_PLACEMENT_3D('',#597,#493,#494);
#395=AXIS2_PLACEMENT_3D('',#598,#495,#496);
#396=AXIS2_PLACEMENT_3D('',#599,#497,#498);
#397=DIRECTION('axis',(0.,0.,1.));
#398=DIRECTION('refdir',(1.,0.,0.));
#399=DIRECTION('axis',(0.,0.,1.));
#400=DIRECTION('refdir',(1.,0.,0.));
#401=DIRECTION('center_axis',(-1.,0.,0.));
#402=DIRECTION('ref_axis',(0.,0.,1.));
#403=DIRECTION('',(0.,0.,-1.));
#404=DIRECTION('',(0.,1.,0.));
#405=DIRECTION('',(0.,0.,1.));
#406=DIRECTION('',(0.,1.,0.));
#407=DIRECTION('center_axis',(0.,1.,0.));
#408=DIRECTION('ref_axis',(1.,0.,6.93889390390723E-16));
#409=DIRECTION('center_axis',(0.,1.,0.));
#410=DIRECTION('ref_axis',(1.,0.,6.93889390390723E-16));
#411=DIRECTION('center_axis',(0.,-1.,0.));
#412=DIRECTION('ref_axis',(1.,0.,6.93889390390723E-16));
#413=DIRECTION('',(0.,1.,0.));
#414=DIRECTION('center_axis',(0.,0.,1.));
#415=DIRECTION('ref_axis',(1.,0.,0.));
#416=DIRECTION('',(-1.,0.,0.));
#417=DIRECTION('',(1.,0.,0.));
#418=DIRECTION('',(0.,1.,0.));
#419=DIRECTION('center_axis',(0.,1.,0.));
#420=DIRECTION('ref_axis',(1.38777878078145E-15,0.,-1.));
#421=DIRECTION('center_axis',(0.,1.,0.));
#422=DIRECTION('ref_axis',(1.38777878078145E-15,0.,-1.));
#423=DIRECTION('center_axis',(0.,-1.,0.));
#424=DIRECTION('ref_axis',(1.38777878078145E-15,0.,-1.));
#425=DIRECTION('',(0.,1.,0.));
#426=DIRECTION('center_axis',(1.,0.,0.));
#427=DIRECTION('ref_axis',(0.,0.,-1.));
#428=DIRECTION('',(0.,0.,-1.));
#429=DIRECTION('',(0.,0.,-1.));
#430=DIRECTION('',(0.,1.,0.));
#431=DIRECTION('center_axis',(0.,1.,0.));
#432=DIRECTION('ref_axis',(-0.412438986435844,0.,0.91098522626208));
#433=DIRECTION('center_axis',(0.,1.,0.));
#434=DIRECTION('ref_axis',(1.,0.,0.));
#435=DIRECTION('center_axis',(0.,1.,0.));
#436=DIRECTION('ref_axis',(1.,0.,0.));
#437=DIRECTION('',(0.,1.,0.));
#438=DIRECTION('center_axis',(0.,1.,0.));
#439=DIRECTION('ref_axis',(0.590729885318092,0.,0.80686938384851));
#440=DIRECTION('center_axis',(0.,1.,0.));
#441=DIRECTION('ref_axis',(0.590729885318092,0.,0.80686938384851));
#442=DIRECTION('center_axis',(0.,-1.,0.));
#443=DIRECTION('ref_axis',(0.590729885318092,0.,0.80686938384851));
#444=DIRECTION('',(0.,1.,0.));
#445=DIRECTION('center_axis',(-1.,0.,0.));
#446=DIRECTION('ref_axis',(0.,0.,1.));
#447=DIRECTION('',(0.,0.,1.));
#448=DIRECTION('',(0.,0.,1.));
#449=DIRECTION('',(0.,1.,0.));
#450=DIRECTION('center_axis',(-0.726932509019601,0.,0.686708910187183));
#451=DIRECTION('ref_axis',(0.686708910187183,0.,0.726932509019601));
#452=DIRECTION('',(-0.686708910187183,0.,-0.726932509019601));
#453=DIRECTION('',(0.686708910187183,0.,0.726932509019601));
#454=DIRECTION('',(0.,1.,0.));
#455=DIRECTION('center_axis',(-1.,0.,0.));
#456=DIRECTION('ref_axis',(0.,0.,1.));
#457=DIRECTION('',(0.,0.,1.));
#458=DIRECTION('',(0.,0.,1.));
#459=DIRECTION('',(0.,1.,0.));
#460=DIRECTION('center_axis',(1.60116110105631E-33,0.,-1.));
#461=DIRECTION('ref_axis',(-1.,0.,-1.60116110105631E-33));
#462=DIRECTION('',(1.,0.,1.60116110105631E-33));
#463=DIRECTION('',(-1.,0.,-1.60116110105631E-33));
#464=DIRECTION('',(0.,1.,0.));
#465=DIRECTION('center_axis',(1.,0.,0.));
#466=DIRECTION('ref_axis',(0.,0.,-1.));
#467=DIRECTION('',(0.,0.,1.));
#468=DIRECTION('',(0.,0.,-1.));
#469=DIRECTION('',(0.,1.,0.));
#470=DIRECTION('center_axis',(0.726932509019601,0.,0.686708910187183));
#471=DIRECTION('ref_axis',(0.686708910187183,0.,-0.726932509019601));
#472=DIRECTION('',(-0.686708910187183,0.,0.726932509019601));
#473=DIRECTION('',(0.686708910187183,0.,-0.726932509019601));
#474=DIRECTION('',(0.,1.,0.));
#475=DIRECTION('center_axis',(1.,0.,0.));
#476=DIRECTION('ref_axis',(0.,0.,-1.));
#477=DIRECTION('',(0.,0.,1.));
#478=DIRECTION('',(0.,0.,-1.));
#479=DIRECTION('',(0.,1.,0.));
#480=DIRECTION('center_axis',(0.,1.,0.));
#481=DIRECTION('ref_axis',(-1.,0.,0.));
#482=DIRECTION('center_axis',(0.,1.,0.));
#483=DIRECTION('ref_axis',(-1.,0.,0.));
#484=DIRECTION('center_axis',(0.,-1.,0.));
#485=DIRECTION('ref_axis',(-1.,0.,0.));
#486=DIRECTION('',(0.,1.,0.));
#487=DIRECTION('center_axis',(0.,1.,0.));
#488=DIRECTION('ref_axis',(1.,0.,0.));
#489=DIRECTION('center_axis',(0.,1.,0.));
#490=DIRECTION('ref_axis',(1.,0.,0.));
#491=DIRECTION('center_axis',(0.,1.,0.));
#492=DIRECTION('ref_axis',(1.,0.,0.));
#493=DIRECTION('center_axis',(0.,1.,0.));
#494=DIRECTION('ref_axis',(1.,0.,0.));
#495=DIRECTION('center_axis',(0.,1.,0.));
#496=DIRECTION('ref_axis',(1.,0.,0.));
#497=DIRECTION('',(0.,0.,1.));
#498=DIRECTION('',(1.,0.,0.));
#499=CARTESIAN_POINT('',(0.,0.,0.));
#500=CARTESIAN_POINT('',(0.,0.,0.));
#501=CARTESIAN_POINT('Origin',(1.6811,0.,1.7539));
#502=CARTESIAN_POINT('',(1.6811,0.,2.7509));
#503=CARTESIAN_POINT('',(1.6811,0.,1.7539));
#504=CARTESIAN_POINT('',(1.6811,0.,2.7509));
#505=CARTESIAN_POINT('',(1.6811,100.,2.7509));
#506=CARTESIAN_POINT('',(1.6811,0.,2.7509));
#507=CARTESIAN_POINT('',(1.6811,100.,1.7539));
#508=CARTESIAN_POINT('',(1.6811,100.,2.7509));
#509=CARTESIAN_POINT('',(1.6811,0.,1.7539));
#510=CARTESIAN_POINT('Origin',(0.881100000000001,0.,1.7539));
#511=CARTESIAN_POINT('',(0.8811,0.,0.9539));
#512=CARTESIAN_POINT('Origin',(0.881100000000001,0.,1.7539));
#513=CARTESIAN_POINT('',(0.8811,100.,0.9539));
#514=CARTESIAN_POINT('Origin',(0.881100000000001,100.,1.7539));
#515=CARTESIAN_POINT('',(0.8811,0.,0.9539));
#516=CARTESIAN_POINT('Origin',(-0.8811,0.,0.9539));
#517=CARTESIAN_POINT('',(-0.8811,0.,0.9539));
#518=CARTESIAN_POINT('',(-0.8,0.,0.9539));
#519=CARTESIAN_POINT('',(-0.8811,100.,0.9539));
#520=CARTESIAN_POINT('',(-0.8,100.,0.9539));
#521=CARTESIAN_POINT('',(-0.8811,0.,0.9539));
#522=CARTESIAN_POINT('Origin',(-0.881100000000001,0.,1.7539));
#523=CARTESIAN_POINT('',(-1.6811,0.,1.7539));
#524=CARTESIAN_POINT('Origin',(-0.881100000000001,0.,1.7539));
#525=CARTESIAN_POINT('',(-1.6811,100.,1.7539));
#526=CARTESIAN_POINT('Origin',(-0.881100000000001,100.,1.7539));
#527=CARTESIAN_POINT('',(-1.6811,0.,1.7539));
#528=CARTESIAN_POINT('Origin',(-1.6811,0.,2.7509));
#529=CARTESIAN_POINT('',(-1.6811,0.,2.7509));
#530=CARTESIAN_POINT('',(-1.6811,0.,2.7509));
#531=CARTESIAN_POINT('',(-1.6811,100.,2.7509));
#532=CARTESIAN_POINT('',(-1.6811,100.,2.7509));
#533=CARTESIAN_POINT('',(-1.6811,0.,2.7509));
#534=CARTESIAN_POINT('Origin',(-2.5395,0.,2.7509));
#535=CARTESIAN_POINT('',(-3.10586216078067,0.,2.10585390642541));
#536=CARTESIAN_POINT('Origin',(-2.5395,0.,2.7509));
#537=CARTESIAN_POINT('',(-3.10586216078067,100.,2.10585390642541));
#538=CARTESIAN_POINT('Origin',(-2.5395,100.,2.7509));
#539=CARTESIAN_POINT('',(-3.10586216078067,0.,2.10585390642541));
#540=CARTESIAN_POINT('Origin',(-3.40299827276828,0.,1.7));
#541=CARTESIAN_POINT('',(-2.9,0.,1.7));
#542=CARTESIAN_POINT('Origin',(-3.40299827276828,0.,1.7));
#543=CARTESIAN_POINT('',(-2.9,100.,1.7));
#544=CARTESIAN_POINT('Origin',(-3.40299827276828,100.,1.7));
#545=CARTESIAN_POINT('',(-2.9,0.,1.7));
#546=CARTESIAN_POINT('Origin',(-2.9,0.,0.9));
#547=CARTESIAN_POINT('',(-2.9,0.,0.9));
#548=CARTESIAN_POINT('',(-2.9,0.,0.9));
#549=CARTESIAN_POINT('',(-2.9,100.,0.9));
#550=CARTESIAN_POINT('',(-2.9,100.,0.9));
#551=CARTESIAN_POINT('',(-2.9,0.,0.9));
#552=CARTESIAN_POINT('Origin',(-3.6085,0.,0.15));
#553=CARTESIAN_POINT('',(-3.6085,0.,0.15));
#554=CARTESIAN_POINT('',(-2.9,0.,0.9));
#555=CARTESIAN_POINT('',(-3.6085,100.,0.15));
#556=CARTESIAN_POINT('',(-2.9,100.,0.9));
#557=CARTESIAN_POINT('',(-3.6085,0.,0.15));
#558=CARTESIAN_POINT('Origin',(-3.6085,0.,-1.07321149722467E-33));
#559=CARTESIAN_POINT('',(-3.6085,0.,-1.07321149722467E-33));
#560=CARTESIAN_POINT('',(-3.6085,0.,-1.07321149722467E-33));
#561=CARTESIAN_POINT('',(-3.6085,100.,0.));
#562=CARTESIAN_POINT('',(-3.6085,100.,-1.07321149722467E-33));
#563=CARTESIAN_POINT('',(-3.6085,0.,-1.07321149722467E-33));
#564=CARTESIAN_POINT('Origin',(3.6085,0.,1.04823681690987E-32));
#565=CARTESIAN_POINT('',(3.6085,0.,1.04823681690987E-32));
#566=CARTESIAN_POINT('',(-3.6085,0.,-1.07321149722467E-33));
#567=CARTESIAN_POINT('',(3.6085,100.,0.));
#568=CARTESIAN_POINT('',(-3.6085,100.,-1.07321149722467E-33));
#569=CARTESIAN_POINT('',(3.6085,0.,1.04823681690987E-32));
#570=CARTESIAN_POINT('Origin',(3.6085,0.,0.15));
#571=CARTESIAN_POINT('',(3.6085,0.,0.15));
#572=CARTESIAN_POINT('',(3.6085,0.,1.04823681690987E-32));
#573=CARTESIAN_POINT('',(3.6085,100.,0.15));
#574=CARTESIAN_POINT('',(3.6085,100.,1.04823681690987E-32));
#575=CARTESIAN_POINT('',(3.6085,0.,0.15));
#576=CARTESIAN_POINT('Origin',(2.9,0.,0.9));
#577=CARTESIAN_POINT('',(2.9,0.,0.9));
#578=CARTESIAN_POINT('',(3.6085,0.,0.15));
#579=CARTESIAN_POINT('',(2.9,100.,0.9));
#580=CARTESIAN_POINT('',(3.6085,100.,0.15));
#581=CARTESIAN_POINT('',(2.9,0.,0.9));
#582=CARTESIAN_POINT('Origin',(2.9,0.,1.7));
#583=CARTESIAN_POINT('',(2.9,0.,1.7));
#584=CARTESIAN_POINT('',(2.9,0.,0.9));
#585=CARTESIAN_POINT('',(2.9,100.,1.7));
#586=CARTESIAN_POINT('',(2.9,100.,0.9));
#587=CARTESIAN_POINT('',(2.9,0.,1.7));
#588=CARTESIAN_POINT('Origin',(3.40299827276828,0.,1.7));
#589=CARTESIAN_POINT('',(3.10586216078067,0.,2.10585390642541));
#590=CARTESIAN_POINT('Origin',(3.40299827276828,0.,1.7));
#591=CARTESIAN_POINT('',(3.10586216078067,100.,2.10585390642541));
#592=CARTESIAN_POINT('Origin',(3.40299827276828,100.,1.7));
#593=CARTESIAN_POINT('',(3.10586216078067,0.,2.10585390642541));
#594=CARTESIAN_POINT('Origin',(2.5395,0.,2.7509));
#595=CARTESIAN_POINT('Origin',(2.5395,0.,2.7509));
#596=CARTESIAN_POINT('Origin',(2.5395,100.,2.7509));
#597=CARTESIAN_POINT('Origin',(0.,100.,1.80465));
#598=CARTESIAN_POINT('Origin',(0.,0.,1.80465));
#599=CARTESIAN_POINT('',(0.,0.,0.));
#600=UNCERTAINTY_MEASURE_WITH_UNIT(LENGTH_MEASURE(0.01),#606,
'DISTANCE_ACCURACY_VALUE',
'Maximum model space distance between geometric entities at asserted c
onnectivities');
#601=UNCERTAINTY_MEASURE_WITH_UNIT(LENGTH_MEASURE(0.01),#606,
'DISTANCE_ACCURACY_VALUE',
'Maximum model space distance between geometric entities at asserted c
onnectivities');
#602=UNCERTAINTY_MEASURE_WITH_UNIT(LENGTH_MEASURE(0.01),#606,
'DISTANCE_ACCURACY_VALUE',
'Maximum model space distance between geometric entities at asserted c
onnectivities');
#603=(
GEOMETRIC_REPRESENTATION_CONTEXT(3)
GLOBAL_UNCERTAINTY_ASSIGNED_CONTEXT((#600))
GLOBAL_UNIT_ASSIGNED_CONTEXT((#606,#608,#609))
REPRESENTATION_CONTEXT('','3D')
);
#604=(
GEOMETRIC_REPRESENTATION_CONTEXT(3)
GLOBAL_UNCERTAINTY_ASSIGNED_CONTEXT((#601))
GLOBAL_UNIT_ASSIGNED_CONTEXT((#606,#608,#609))
REPRESENTATION_CONTEXT('','3D')
);
#605=(
GEOMETRIC_REPRESENTATION_CONTEXT(3)
GLOBAL_UNCERTAINTY_ASSIGNED_CONTEXT((#602))
GLOBAL_UNIT_ASSIGNED_CONTEXT((#606,#608,#609))
REPRESENTATION_CONTEXT('','3D')
);
#606=(
LENGTH_UNIT()
NAMED_UNIT(*)
SI_UNIT(.MILLI.,.METRE.)
);
#607=(
LENGTH_UNIT()
NAMED_UNIT(*)
SI_UNIT($,.METRE.)
);
#608=(
NAMED_UNIT(*)
PLANE_ANGLE_UNIT()
SI_UNIT($,.RADIAN.)
);
#609=(
NAMED_UNIT(*)
SI_UNIT($,.STERADIAN.)
SOLID_ANGLE_UNIT()
);
#610=SHAPE_DEFINITION_REPRESENTATION(#612,#615);
#611=SHAPE_DEFINITION_REPRESENTATION(#613,#616);
#612=PRODUCT_DEFINITION_SHAPE('',$,#618);
#613=PRODUCT_DEFINITION_SHAPE('',$,#619);
#614=PRODUCT_DEFINITION_SHAPE($,$,#14);
#615=SHAPE_REPRESENTATION('',(#364,#396),#603);
#616=SHAPE_REPRESENTATION('',(#365),#604);
#617=PRODUCT_DEFINITION_CONTEXT('part definition',#625,'design');
#618=PRODUCT_DEFINITION('2026-10-03-13-54-46-360',
'2020 T-Slot cover_wire guide_ver3 (1)',#620,#617);
#619=PRODUCT_DEFINITION('2026-10-03-13-54-59-906',
'2020 T-Slot cover_wire guide_ver3',#621,#617);
#620=PRODUCT_DEFINITION_FORMATION('',$,#627);
#621=PRODUCT_DEFINITION_FORMATION('',$,#628);
#622=PRODUCT_RELATED_PRODUCT_CATEGORY(
'2020 T-Slot cover_wire guide_ver3 (1)',
'2020 T-Slot cover_wire guide_ver3 (1)',(#627));
#623=PRODUCT_RELATED_PRODUCT_CATEGORY(
'2020 T-Slot cover_wire guide_ver3','2020 T-Slot cover_wire guide_ver3',
(#628));
#624=APPLICATION_PROTOCOL_DEFINITION('international standard',
'automotive_design',2009,#625);
#625=APPLICATION_CONTEXT(
'Core Data for Automotive Mechanical Design Process');
#626=PRODUCT_CONTEXT('part definition',#625,'mechanical');
#627=PRODUCT('2026-10-03-13-54-46-360',
'2020 T-Slot cover_wire guide_ver3 (1)',$,(#626));
#628=PRODUCT('2026-10-03-13-54-59-906',
'2020 T-Slot cover_wire guide_ver3',$,(#626));
#629=PRESENTATION_STYLE_ASSIGNMENT((#630));
#630=SURFACE_STYLE_USAGE(.BOTH.,#631);
#631=SURFACE_SIDE_STYLE('',(#632));
#632=SURFACE_STYLE_FILL_AREA(#633);
#633=FILL_AREA_STYLE('Aluminum - Satin',(#634));
#634=FILL_AREA_STYLE_COLOUR('Aluminum - Satin',#635);
#635=COLOUR_RGB('Aluminum - Satin',0.96078431372549,0.96078431372549,0.964705882352941);
ENDSEC;
END-ISO-10303-21;
