ISO-10303-21;
HEADER;
/* Generated by software containing ST-Developer
 * from STEP Tools, Inc. (www.steptools.com) 
 */

FILE_DESCRIPTION(
/* description */ (''),
/* implementation_level */ '2;1');

FILE_NAME(
/* name */ 'acrylic plate diffuser_hole drilling jig.step',
/* time_stamp */ '2026-10-04T13:13:38-05:00',
/* author */ (''),
/* organization */ (''),
/* preprocessor_version */ 'ST-DEVELOPER v20.1',
/* originating_system */ 'Autodesk Translation Framework v15.8.0.0',
/* authorisation */ '');

FILE_SCHEMA (('AUTOMOTIVE_DESIGN { 1 0 10303 214 3 1 1 }'));
ENDSEC;

DATA;
#10=MECHANICAL_DESIGN_GEOMETRIC_PRESENTATION_REPRESENTATION('',(#13),#523);
#11=SHAPE_REPRESENTATION_RELATIONSHIP('SRR','None',#530,#12);
#12=ADVANCED_BREP_SHAPE_REPRESENTATION('',(#14),#522);
#13=STYLED_ITEM('',(#539),#14);
#14=MANIFOLD_SOLID_BREP('Body1',#295);
#15=TOROIDAL_SURFACE('',#333,6.,1.);
#16=TOROIDAL_SURFACE('',#338,6.,1.);
#17=CYLINDRICAL_SURFACE('',#315,1.5875);
#18=CYLINDRICAL_SURFACE('',#323,1.5875);
#19=CYLINDRICAL_SURFACE('',#327,5.);
#20=CYLINDRICAL_SURFACE('',#331,5.);
#21=FACE_BOUND('',#55,.T.);
#22=FACE_BOUND('',#59,.T.);
#23=FACE_BOUND('',#67,.T.);
#24=FACE_BOUND('',#68,.T.);
#25=FACE_BOUND('',#75,.T.);
#26=FACE_BOUND('',#76,.T.);
#27=PLANE('',#313);
#28=PLANE('',#321);
#29=PLANE('',#336);
#30=PLANE('',#340);
#31=PLANE('',#341);
#32=PLANE('',#342);
#33=PLANE('',#343);
#34=PLANE('',#344);
#35=FACE_OUTER_BOUND('',#53,.T.);
#36=FACE_OUTER_BOUND('',#54,.T.);
#37=FACE_OUTER_BOUND('',#56,.T.);
#38=FACE_OUTER_BOUND('',#57,.T.);
#39=FACE_OUTER_BOUND('',#58,.T.);
#40=FACE_OUTER_BOUND('',#60,.T.);
#41=FACE_OUTER_BOUND('',#61,.T.);
#42=FACE_OUTER_BOUND('',#62,.T.);
#43=FACE_OUTER_BOUND('',#63,.T.);
#44=FACE_OUTER_BOUND('',#64,.T.);
#45=FACE_OUTER_BOUND('',#65,.T.);
#46=FACE_OUTER_BOUND('',#66,.T.);
#47=FACE_OUTER_BOUND('',#69,.T.);
#48=FACE_OUTER_BOUND('',#70,.T.);
#49=FACE_OUTER_BOUND('',#71,.T.);
#50=FACE_OUTER_BOUND('',#72,.T.);
#51=FACE_OUTER_BOUND('',#73,.T.);
#52=FACE_OUTER_BOUND('',#74,.T.);
#53=EDGE_LOOP('',(#197,#198,#199,#200,#201));
#54=EDGE_LOOP('',(#202));
#55=EDGE_LOOP('',(#203));
#56=EDGE_LOOP('',(#204,#205,#206,#207,#208));
#57=EDGE_LOOP('',(#209,#210,#211,#212,#213));
#58=EDGE_LOOP('',(#214));
#59=EDGE_LOOP('',(#215));
#60=EDGE_LOOP('',(#216,#217,#218,#219,#220));
#61=EDGE_LOOP('',(#221,#222,#223,#224));
#62=EDGE_LOOP('',(#225,#226,#227,#228));
#63=EDGE_LOOP('',(#229,#230,#231,#232));
#64=EDGE_LOOP('',(#233,#234,#235,#236));
#65=EDGE_LOOP('',(#237,#238,#239,#240));
#66=EDGE_LOOP('',(#241,#242,#243,#244));
#67=EDGE_LOOP('',(#245));
#68=EDGE_LOOP('',(#246));
#69=EDGE_LOOP('',(#247,#248,#249,#250));
#70=EDGE_LOOP('',(#251,#252,#253,#254));
#71=EDGE_LOOP('',(#255,#256,#257,#258));
#72=EDGE_LOOP('',(#259,#260,#261,#262));
#73=EDGE_LOOP('',(#263,#264,#265,#266));
#74=EDGE_LOOP('',(#267,#268,#269,#270));
#75=EDGE_LOOP('',(#271));
#76=EDGE_LOOP('',(#272));
#77=LINE('',#444,#97);
#78=LINE('',#453,#98);
#79=LINE('',#459,#99);
#80=LINE('',#468,#100);
#81=LINE('',#472,#101);
#82=LINE('',#476,#102);
#83=LINE('',#480,#103);
#84=LINE('',#484,#104);
#85=LINE('',#493,#105);
#86=LINE('',#495,#106);
#87=LINE('',#497,#107);
#88=LINE('',#498,#108);
#89=LINE('',#506,#109);
#90=LINE('',#507,#110);
#91=LINE('',#508,#111);
#92=LINE('',#511,#112);
#93=LINE('',#512,#113);
#94=LINE('',#515,#114);
#95=LINE('',#516,#115);
#96=LINE('',#518,#116);
#97=VECTOR('',#351,1.73750000000001);
#98=VECTOR('',#362,1.5875);
#99=VECTOR('',#369,1.7375);
#100=VECTOR('',#380,1.5875);
#101=VECTOR('',#385,4.85);
#102=VECTOR('',#390,5.);
#103=VECTOR('',#395,4.85);
#104=VECTOR('',#400,5.);
#105=VECTOR('',#411,10.);
#106=VECTOR('',#412,10.);
#107=VECTOR('',#413,10.);
#108=VECTOR('',#414,10.);
#109=VECTOR('',#423,10.);
#110=VECTOR('',#424,10.);
#111=VECTOR('',#425,10.);
#112=VECTOR('',#428,10.);
#113=VECTOR('',#429,10.);
#114=VECTOR('',#432,10.);
#115=VECTOR('',#433,10.);
#116=VECTOR('',#436,10.);
#117=CIRCLE('',#310,1.88750000000001);
#118=CIRCLE('',#311,1.5875);
#119=CIRCLE('',#312,1.5875);
#120=CIRCLE('',#314,4.7);
#121=CIRCLE('',#316,1.5875);
#122=CIRCLE('',#318,1.8875);
#123=CIRCLE('',#319,1.5875);
#124=CIRCLE('',#320,1.5875);
#125=CIRCLE('',#322,4.7);
#126=CIRCLE('',#324,1.5875);
#127=CIRCLE('',#326,5.);
#128=CIRCLE('',#328,5.);
#129=CIRCLE('',#330,5.);
#130=CIRCLE('',#332,5.);
#131=CIRCLE('',#334,1.);
#132=CIRCLE('',#335,6.);
#133=CIRCLE('',#337,6.);
#134=CIRCLE('',#339,1.);
#135=VERTEX_POINT('',#441);
#136=VERTEX_POINT('',#443);
#137=VERTEX_POINT('',#445);
#138=VERTEX_POINT('',#449);
#139=VERTEX_POINT('',#452);
#140=VERTEX_POINT('',#456);
#141=VERTEX_POINT('',#458);
#142=VERTEX_POINT('',#460);
#143=VERTEX_POINT('',#464);
#144=VERTEX_POINT('',#467);
#145=VERTEX_POINT('',#471);
#146=VERTEX_POINT('',#475);
#147=VERTEX_POINT('',#479);
#148=VERTEX_POINT('',#483);
#149=VERTEX_POINT('',#487);
#150=VERTEX_POINT('',#491);
#151=VERTEX_POINT('',#492);
#152=VERTEX_POINT('',#494);
#153=VERTEX_POINT('',#496);
#154=VERTEX_POINT('',#499);
#155=VERTEX_POINT('',#504);
#156=VERTEX_POINT('',#505);
#157=VERTEX_POINT('',#510);
#158=VERTEX_POINT('',#514);
#159=EDGE_CURVE('',#135,#135,#117,.T.);
#160=EDGE_CURVE('',#135,#136,#77,.T.);
#161=EDGE_CURVE('',#136,#137,#118,.T.);
#162=EDGE_CURVE('',#137,#136,#119,.T.);
#163=EDGE_CURVE('',#138,#138,#120,.T.);
#164=EDGE_CURVE('',#137,#139,#78,.T.);
#165=EDGE_CURVE('',#139,#139,#121,.T.);
#166=EDGE_CURVE('',#140,#140,#122,.T.);
#167=EDGE_CURVE('',#140,#141,#79,.T.);
#168=EDGE_CURVE('',#141,#142,#123,.T.);
#169=EDGE_CURVE('',#142,#141,#124,.T.);
#170=EDGE_CURVE('',#143,#143,#125,.T.);
#171=EDGE_CURVE('',#142,#144,#80,.T.);
#172=EDGE_CURVE('',#144,#144,#126,.T.);
#173=EDGE_CURVE('',#143,#145,#81,.T.);
#174=EDGE_CURVE('',#145,#145,#127,.T.);
#175=EDGE_CURVE('',#145,#146,#82,.T.);
#176=EDGE_CURVE('',#146,#146,#128,.T.);
#177=EDGE_CURVE('',#138,#147,#83,.T.);
#178=EDGE_CURVE('',#147,#147,#129,.T.);
#179=EDGE_CURVE('',#147,#148,#84,.T.);
#180=EDGE_CURVE('',#148,#148,#130,.T.);
#181=EDGE_CURVE('',#146,#149,#131,.T.);
#182=EDGE_CURVE('',#149,#149,#132,.T.);
#183=EDGE_CURVE('',#150,#151,#85,.T.);
#184=EDGE_CURVE('',#151,#152,#86,.T.);
#185=EDGE_CURVE('',#152,#153,#87,.T.);
#186=EDGE_CURVE('',#153,#150,#88,.T.);
#187=EDGE_CURVE('',#154,#154,#133,.T.);
#188=EDGE_CURVE('',#148,#154,#134,.T.);
#189=EDGE_CURVE('',#155,#156,#89,.T.);
#190=EDGE_CURVE('',#155,#150,#90,.T.);
#191=EDGE_CURVE('',#156,#153,#91,.T.);
#192=EDGE_CURVE('',#156,#157,#92,.T.);
#193=EDGE_CURVE('',#157,#152,#93,.T.);
#194=EDGE_CURVE('',#157,#158,#94,.T.);
#195=EDGE_CURVE('',#158,#151,#95,.T.);
#196=EDGE_CURVE('',#158,#155,#96,.T.);
#197=ORIENTED_EDGE('',*,*,#159,.T.);
#198=ORIENTED_EDGE('',*,*,#160,.T.);
#199=ORIENTED_EDGE('',*,*,#161,.T.);
#200=ORIENTED_EDGE('',*,*,#162,.T.);
#201=ORIENTED_EDGE('',*,*,#160,.F.);
#202=ORIENTED_EDGE('',*,*,#163,.F.);
#203=ORIENTED_EDGE('',*,*,#159,.F.);
#204=ORIENTED_EDGE('',*,*,#161,.F.);
#205=ORIENTED_EDGE('',*,*,#162,.F.);
#206=ORIENTED_EDGE('',*,*,#164,.T.);
#207=ORIENTED_EDGE('',*,*,#165,.T.);
#208=ORIENTED_EDGE('',*,*,#164,.F.);
#209=ORIENTED_EDGE('',*,*,#166,.T.);
#210=ORIENTED_EDGE('',*,*,#167,.T.);
#211=ORIENTED_EDGE('',*,*,#168,.T.);
#212=ORIENTED_EDGE('',*,*,#169,.T.);
#213=ORIENTED_EDGE('',*,*,#167,.F.);
#214=ORIENTED_EDGE('',*,*,#170,.F.);
#215=ORIENTED_EDGE('',*,*,#166,.F.);
#216=ORIENTED_EDGE('',*,*,#168,.F.);
#217=ORIENTED_EDGE('',*,*,#169,.F.);
#218=ORIENTED_EDGE('',*,*,#171,.T.);
#219=ORIENTED_EDGE('',*,*,#172,.T.);
#220=ORIENTED_EDGE('',*,*,#171,.F.);
#221=ORIENTED_EDGE('',*,*,#170,.T.);
#222=ORIENTED_EDGE('',*,*,#173,.T.);
#223=ORIENTED_EDGE('',*,*,#174,.T.);
#224=ORIENTED_EDGE('',*,*,#173,.F.);
#225=ORIENTED_EDGE('',*,*,#174,.F.);
#226=ORIENTED_EDGE('',*,*,#175,.T.);
#227=ORIENTED_EDGE('',*,*,#176,.F.);
#228=ORIENTED_EDGE('',*,*,#175,.F.);
#229=ORIENTED_EDGE('',*,*,#163,.T.);
#230=ORIENTED_EDGE('',*,*,#177,.T.);
#231=ORIENTED_EDGE('',*,*,#178,.T.);
#232=ORIENTED_EDGE('',*,*,#177,.F.);
#233=ORIENTED_EDGE('',*,*,#178,.F.);
#234=ORIENTED_EDGE('',*,*,#179,.T.);
#235=ORIENTED_EDGE('',*,*,#180,.F.);
#236=ORIENTED_EDGE('',*,*,#179,.F.);
#237=ORIENTED_EDGE('',*,*,#176,.T.);
#238=ORIENTED_EDGE('',*,*,#181,.T.);
#239=ORIENTED_EDGE('',*,*,#182,.T.);
#240=ORIENTED_EDGE('',*,*,#181,.F.);
#241=ORIENTED_EDGE('',*,*,#183,.T.);
#242=ORIENTED_EDGE('',*,*,#184,.T.);
#243=ORIENTED_EDGE('',*,*,#185,.T.);
#244=ORIENTED_EDGE('',*,*,#186,.T.);
#245=ORIENTED_EDGE('',*,*,#187,.F.);
#246=ORIENTED_EDGE('',*,*,#182,.F.);
#247=ORIENTED_EDGE('',*,*,#180,.T.);
#248=ORIENTED_EDGE('',*,*,#188,.T.);
#249=ORIENTED_EDGE('',*,*,#187,.T.);
#250=ORIENTED_EDGE('',*,*,#188,.F.);
#251=ORIENTED_EDGE('',*,*,#189,.F.);
#252=ORIENTED_EDGE('',*,*,#190,.T.);
#253=ORIENTED_EDGE('',*,*,#186,.F.);
#254=ORIENTED_EDGE('',*,*,#191,.F.);
#255=ORIENTED_EDGE('',*,*,#192,.F.);
#256=ORIENTED_EDGE('',*,*,#191,.T.);
#257=ORIENTED_EDGE('',*,*,#185,.F.);
#258=ORIENTED_EDGE('',*,*,#193,.F.);
#259=ORIENTED_EDGE('',*,*,#194,.F.);
#260=ORIENTED_EDGE('',*,*,#193,.T.);
#261=ORIENTED_EDGE('',*,*,#184,.F.);
#262=ORIENTED_EDGE('',*,*,#195,.F.);
#263=ORIENTED_EDGE('',*,*,#196,.F.);
#264=ORIENTED_EDGE('',*,*,#195,.T.);
#265=ORIENTED_EDGE('',*,*,#183,.F.);
#266=ORIENTED_EDGE('',*,*,#190,.F.);
#267=ORIENTED_EDGE('',*,*,#196,.T.);
#268=ORIENTED_EDGE('',*,*,#189,.T.);
#269=ORIENTED_EDGE('',*,*,#192,.T.);
#270=ORIENTED_EDGE('',*,*,#194,.T.);
#271=ORIENTED_EDGE('',*,*,#172,.F.);
#272=ORIENTED_EDGE('',*,*,#165,.F.);
#273=CONICAL_SURFACE('',#309,1.73750000000001,0.785398163397452);
#274=CONICAL_SURFACE('',#317,1.7375,0.785398163397452);
#275=CONICAL_SURFACE('',#325,4.85,0.785398163397445);
#276=CONICAL_SURFACE('',#329,4.85,0.785398163397452);
#277=ADVANCED_FACE('',(#35),#273,.F.);
#278=ADVANCED_FACE('',(#36,#21),#27,.T.);
#279=ADVANCED_FACE('',(#37),#17,.F.);
#280=ADVANCED_FACE('',(#38),#274,.F.);
#281=ADVANCED_FACE('',(#39,#22),#28,.T.);
#282=ADVANCED_FACE('',(#40),#18,.F.);
#283=ADVANCED_FACE('',(#41),#275,.T.);
#284=ADVANCED_FACE('',(#42),#19,.T.);
#285=ADVANCED_FACE('',(#43),#276,.T.);
#286=ADVANCED_FACE('',(#44),#20,.T.);
#287=ADVANCED_FACE('',(#45),#15,.F.);
#288=ADVANCED_FACE('',(#46,#23,#24),#29,.T.);
#289=ADVANCED_FACE('',(#47),#16,.F.);
#290=ADVANCED_FACE('',(#48),#30,.T.);
#291=ADVANCED_FACE('',(#49),#31,.T.);
#292=ADVANCED_FACE('',(#50),#32,.T.);
#293=ADVANCED_FACE('',(#51),#33,.T.);
#294=ADVANCED_FACE('',(#52,#25,#26),#34,.F.);
#295=CLOSED_SHELL('',(#277,#278,#279,#280,#281,#282,#283,#284,#285,#286,
#287,#288,#289,#290,#291,#292,#293,#294));
#296=DERIVED_UNIT_ELEMENT(#298,1.);
#297=DERIVED_UNIT_ELEMENT(#525,-3.);
#298=(
MASS_UNIT()
NAMED_UNIT(*)
SI_UNIT(.KILO.,.GRAM.)
);
#299=DERIVED_UNIT((#296,#297));
#300=MEASURE_REPRESENTATION_ITEM('density measure',
POSITIVE_RATIO_MEASURE(2700.),#299);
#301=PROPERTY_DEFINITION_REPRESENTATION(#306,#303);
#302=PROPERTY_DEFINITION_REPRESENTATION(#307,#304);
#303=REPRESENTATION('material name',(#305),#522);
#304=REPRESENTATION('density',(#300),#522);
#305=DESCRIPTIVE_REPRESENTATION_ITEM('Aluminum 6061','Aluminum 6061');
#306=PROPERTY_DEFINITION('material property','material name',#532);
#307=PROPERTY_DEFINITION('material property','density of part',#532);
#308=AXIS2_PLACEMENT_3D('',#439,#345,#346);
#309=AXIS2_PLACEMENT_3D('',#440,#347,#348);
#310=AXIS2_PLACEMENT_3D('',#442,#349,#350);
#311=AXIS2_PLACEMENT_3D('',#446,#352,#353);
#312=AXIS2_PLACEMENT_3D('',#447,#354,#355);
#313=AXIS2_PLACEMENT_3D('',#448,#356,#357);
#314=AXIS2_PLACEMENT_3D('',#450,#358,#359);
#315=AXIS2_PLACEMENT_3D('',#451,#360,#361);
#316=AXIS2_PLACEMENT_3D('',#454,#363,#364);
#317=AXIS2_PLACEMENT_3D('',#455,#365,#366);
#318=AXIS2_PLACEMENT_3D('',#457,#367,#368);
#319=AXIS2_PLACEMENT_3D('',#461,#370,#371);
#320=AXIS2_PLACEMENT_3D('',#462,#372,#373);
#321=AXIS2_PLACEMENT_3D('',#463,#374,#375);
#322=AXIS2_PLACEMENT_3D('',#465,#376,#377);
#323=AXIS2_PLACEMENT_3D('',#466,#378,#379);
#324=AXIS2_PLACEMENT_3D('',#469,#381,#382);
#325=AXIS2_PLACEMENT_3D('',#470,#383,#384);
#326=AXIS2_PLACEMENT_3D('',#473,#386,#387);
#327=AXIS2_PLACEMENT_3D('',#474,#388,#389);
#328=AXIS2_PLACEMENT_3D('',#477,#391,#392);
#329=AXIS2_PLACEMENT_3D('',#478,#393,#394);
#330=AXIS2_PLACEMENT_3D('',#481,#396,#397);
#331=AXIS2_PLACEMENT_3D('',#482,#398,#399);
#332=AXIS2_PLACEMENT_3D('',#485,#401,#402);
#333=AXIS2_PLACEMENT_3D('',#486,#403,#404);
#334=AXIS2_PLACEMENT_3D('',#488,#405,#406);
#335=AXIS2_PLACEMENT_3D('',#489,#407,#408);
#336=AXIS2_PLACEMENT_3D('',#490,#409,#410);
#337=AXIS2_PLACEMENT_3D('',#500,#415,#416);
#338=AXIS2_PLACEMENT_3D('',#501,#417,#418);
#339=AXIS2_PLACEMENT_3D('',#502,#419,#420);
#340=AXIS2_PLACEMENT_3D('',#503,#421,#422);
#341=AXIS2_PLACEMENT_3D('',#509,#426,#427);
#342=AXIS2_PLACEMENT_3D('',#513,#430,#431);
#343=AXIS2_PLACEMENT_3D('',#517,#434,#435);
#344=AXIS2_PLACEMENT_3D('',#519,#437,#438);
#345=DIRECTION('axis',(0.,0.,1.));
#346=DIRECTION('refdir',(1.,0.,0.));
#347=DIRECTION('center_axis',(0.,0.,1.));
#348=DIRECTION('ref_axis',(-1.,0.,0.));
#349=DIRECTION('center_axis',(0.,0.,1.));
#350=DIRECTION('ref_axis',(-1.,0.,0.));
#351=DIRECTION('',(-0.70710678118655,-8.65956056235496E-17,-0.707106781186545));
#352=DIRECTION('center_axis',(0.,0.,-1.));
#353=DIRECTION('ref_axis',(-1.,0.,0.));
#354=DIRECTION('center_axis',(0.,0.,-1.));
#355=DIRECTION('ref_axis',(-1.,0.,0.));
#356=DIRECTION('center_axis',(0.,0.,1.));
#357=DIRECTION('ref_axis',(-1.,0.,0.));
#358=DIRECTION('center_axis',(0.,0.,-1.));
#359=DIRECTION('ref_axis',(-1.,0.,0.));
#360=DIRECTION('center_axis',(0.,0.,1.));
#361=DIRECTION('ref_axis',(1.,0.,0.));
#362=DIRECTION('',(0.,0.,-1.));
#363=DIRECTION('center_axis',(0.,0.,-1.));
#364=DIRECTION('ref_axis',(1.,0.,0.));
#365=DIRECTION('center_axis',(0.,0.,1.));
#366=DIRECTION('ref_axis',(-1.,0.,0.));
#367=DIRECTION('center_axis',(0.,0.,1.));
#368=DIRECTION('ref_axis',(-1.,0.,0.));
#369=DIRECTION('',(-0.70710678118655,-8.65956056235497E-17,-0.707106781186545));
#370=DIRECTION('center_axis',(0.,0.,-1.));
#371=DIRECTION('ref_axis',(-1.,0.,0.));
#372=DIRECTION('center_axis',(0.,0.,-1.));
#373=DIRECTION('ref_axis',(-1.,0.,0.));
#374=DIRECTION('center_axis',(0.,0.,1.));
#375=DIRECTION('ref_axis',(-1.,0.,0.));
#376=DIRECTION('center_axis',(0.,0.,-1.));
#377=DIRECTION('ref_axis',(-1.,0.,0.));
#378=DIRECTION('center_axis',(0.,0.,1.));
#379=DIRECTION('ref_axis',(1.,0.,0.));
#380=DIRECTION('',(0.,0.,-1.));
#381=DIRECTION('center_axis',(0.,0.,-1.));
#382=DIRECTION('ref_axis',(1.,0.,0.));
#383=DIRECTION('center_axis',(0.,0.,-1.));
#384=DIRECTION('ref_axis',(-1.,0.,0.));
#385=DIRECTION('',(0.707106781186545,8.6595605623549E-17,-0.70710678118655));
#386=DIRECTION('center_axis',(0.,0.,1.));
#387=DIRECTION('ref_axis',(-1.,0.,0.));
#388=DIRECTION('center_axis',(0.,0.,1.));
#389=DIRECTION('ref_axis',(-1.,0.,0.));
#390=DIRECTION('',(0.,0.,-1.));
#391=DIRECTION('center_axis',(0.,0.,-1.));
#392=DIRECTION('ref_axis',(-1.,0.,0.));
#393=DIRECTION('center_axis',(0.,0.,-1.));
#394=DIRECTION('ref_axis',(-1.,0.,0.));
#395=DIRECTION('',(0.70710678118655,8.65956056235496E-17,-0.707106781186545));
#396=DIRECTION('center_axis',(0.,0.,1.));
#397=DIRECTION('ref_axis',(-1.,0.,0.));
#398=DIRECTION('center_axis',(0.,0.,1.));
#399=DIRECTION('ref_axis',(-1.,0.,0.));
#400=DIRECTION('',(0.,0.,-1.));
#401=DIRECTION('center_axis',(0.,0.,-1.));
#402=DIRECTION('ref_axis',(-1.,0.,0.));
#403=DIRECTION('center_axis',(0.,0.,-1.));
#404=DIRECTION('ref_axis',(-1.,0.,0.));
#405=DIRECTION('center_axis',(0.,-1.,0.));
#406=DIRECTION('ref_axis',(1.,0.,0.));
#407=DIRECTION('center_axis',(0.,0.,1.));
#408=DIRECTION('ref_axis',(-1.,0.,0.));
#409=DIRECTION('center_axis',(0.,0.,1.));
#410=DIRECTION('ref_axis',(1.,0.,0.));
#411=DIRECTION('',(-1.,0.,0.));
#412=DIRECTION('',(0.,-1.,0.));
#413=DIRECTION('',(1.,0.,0.));
#414=DIRECTION('',(0.,1.,0.));
#415=DIRECTION('center_axis',(0.,0.,1.));
#416=DIRECTION('ref_axis',(-1.,0.,0.));
#417=DIRECTION('center_axis',(0.,0.,-1.));
#418=DIRECTION('ref_axis',(-1.,0.,0.));
#419=DIRECTION('center_axis',(0.,-1.,0.));
#420=DIRECTION('ref_axis',(1.,0.,0.));
#421=DIRECTION('center_axis',(1.,0.,0.));
#422=DIRECTION('ref_axis',(0.,1.,0.));
#423=DIRECTION('',(0.,-1.,0.));
#424=DIRECTION('',(0.,0.,1.));
#425=DIRECTION('',(0.,0.,1.));
#426=DIRECTION('center_axis',(0.,-1.,0.));
#427=DIRECTION('ref_axis',(1.,0.,0.));
#428=DIRECTION('',(-1.,0.,0.));
#429=DIRECTION('',(0.,0.,1.));
#430=DIRECTION('center_axis',(-1.,0.,0.));
#431=DIRECTION('ref_axis',(0.,-1.,0.));
#432=DIRECTION('',(0.,1.,0.));
#433=DIRECTION('',(0.,0.,1.));
#434=DIRECTION('center_axis',(0.,1.,0.));
#435=DIRECTION('ref_axis',(-1.,0.,0.));
#436=DIRECTION('',(1.,0.,0.));
#437=DIRECTION('center_axis',(0.,0.,1.));
#438=DIRECTION('ref_axis',(1.,0.,0.));
#439=CARTESIAN_POINT('',(0.,0.,0.));
#440=CARTESIAN_POINT('Origin',(-43.75,46.9375,9.85));
#441=CARTESIAN_POINT('',(-41.8625,46.9375,10.));
#442=CARTESIAN_POINT('Origin',(-43.75,46.9375,10.));
#443=CARTESIAN_POINT('',(-42.1625,46.9375,9.7));
#444=CARTESIAN_POINT('',(-42.0125,46.9375,9.85));
#445=CARTESIAN_POINT('',(-45.3375,46.9375,9.7));
#446=CARTESIAN_POINT('Origin',(-43.75,46.9375,9.7));
#447=CARTESIAN_POINT('Origin',(-43.75,46.9375,9.7));
#448=CARTESIAN_POINT('Origin',(-43.75,46.9375,10.));
#449=CARTESIAN_POINT('',(-39.05,46.9375,10.));
#450=CARTESIAN_POINT('Origin',(-43.75,46.9375,10.));
#451=CARTESIAN_POINT('Origin',(-43.75,46.9375,0.));
#452=CARTESIAN_POINT('',(-45.3375,46.9375,0.));
#453=CARTESIAN_POINT('',(-45.3375,46.9375,0.));
#454=CARTESIAN_POINT('Origin',(-43.75,46.9375,0.));
#455=CARTESIAN_POINT('Origin',(43.75,46.9375,9.85));
#456=CARTESIAN_POINT('',(45.6375,46.9375,10.));
#457=CARTESIAN_POINT('Origin',(43.75,46.9375,10.));
#458=CARTESIAN_POINT('',(45.3375,46.9375,9.7));
#459=CARTESIAN_POINT('',(45.4875,46.9375,9.85));
#460=CARTESIAN_POINT('',(42.1625,46.9375,9.7));
#461=CARTESIAN_POINT('Origin',(43.75,46.9375,9.7));
#462=CARTESIAN_POINT('Origin',(43.75,46.9375,9.7));
#463=CARTESIAN_POINT('Origin',(43.75,46.9375,10.));
#464=CARTESIAN_POINT('',(48.45,46.9375,10.));
#465=CARTESIAN_POINT('Origin',(43.75,46.9375,10.));
#466=CARTESIAN_POINT('Origin',(43.75,46.9375,0.));
#467=CARTESIAN_POINT('',(42.1625,46.9375,0.));
#468=CARTESIAN_POINT('',(42.1625,46.9375,0.));
#469=CARTESIAN_POINT('Origin',(43.75,46.9375,0.));
#470=CARTESIAN_POINT('Origin',(43.75,46.9375,9.85));
#471=CARTESIAN_POINT('',(48.75,46.9375,9.7));
#472=CARTESIAN_POINT('',(48.6,46.9375,9.85));
#473=CARTESIAN_POINT('Origin',(43.75,46.9375,9.7));
#474=CARTESIAN_POINT('Origin',(43.75,46.9375,3.));
#475=CARTESIAN_POINT('',(48.75,46.9375,4.));
#476=CARTESIAN_POINT('',(48.75,46.9375,3.));
#477=CARTESIAN_POINT('Origin',(43.75,46.9375,4.));
#478=CARTESIAN_POINT('Origin',(-43.75,46.9375,9.85));
#479=CARTESIAN_POINT('',(-38.75,46.9375,9.7));
#480=CARTESIAN_POINT('',(-38.9,46.9375,9.85));
#481=CARTESIAN_POINT('Origin',(-43.75,46.9375,9.7));
#482=CARTESIAN_POINT('Origin',(-43.75,46.9375,3.));
#483=CARTESIAN_POINT('',(-38.75,46.9375,4.));
#484=CARTESIAN_POINT('',(-38.75,46.9375,3.));
#485=CARTESIAN_POINT('Origin',(-43.75,46.9375,4.));
#486=CARTESIAN_POINT('Origin',(43.75,46.9375,4.));
#487=CARTESIAN_POINT('',(49.75,46.9375,3.));
#488=CARTESIAN_POINT('Origin',(49.75,46.9375,4.));
#489=CARTESIAN_POINT('Origin',(43.75,46.9375,3.));
#490=CARTESIAN_POINT('Origin',(0.,0.,3.));
#491=CARTESIAN_POINT('',(50.8,55.5625,3.));
#492=CARTESIAN_POINT('',(-50.8,55.5625,3.));
#493=CARTESIAN_POINT('',(-50.8,55.5625,3.));
#494=CARTESIAN_POINT('',(-50.8,-55.5625,3.));
#495=CARTESIAN_POINT('',(-50.8,-55.5625,3.));
#496=CARTESIAN_POINT('',(50.8,-55.5625,3.));
#497=CARTESIAN_POINT('',(50.8,-55.5625,3.));
#498=CARTESIAN_POINT('',(50.8,55.5625,3.));
#499=CARTESIAN_POINT('',(-37.75,46.9375,3.));
#500=CARTESIAN_POINT('Origin',(-43.75,46.9375,3.));
#501=CARTESIAN_POINT('Origin',(-43.75,46.9375,4.));
#502=CARTESIAN_POINT('Origin',(-37.75,46.9375,4.));
#503=CARTESIAN_POINT('Origin',(50.8,-55.5625,0.));
#504=CARTESIAN_POINT('',(50.8,55.5625,0.));
#505=CARTESIAN_POINT('',(50.8,-55.5625,0.));
#506=CARTESIAN_POINT('',(50.8,55.5625,0.));
#507=CARTESIAN_POINT('',(50.8,55.5625,0.));
#508=CARTESIAN_POINT('',(50.8,-55.5625,0.));
#509=CARTESIAN_POINT('Origin',(-50.8,-55.5625,0.));
#510=CARTESIAN_POINT('',(-50.8,-55.5625,0.));
#511=CARTESIAN_POINT('',(50.8,-55.5625,0.));
#512=CARTESIAN_POINT('',(-50.8,-55.5625,0.));
#513=CARTESIAN_POINT('Origin',(-50.8,55.5625,0.));
#514=CARTESIAN_POINT('',(-50.8,55.5625,0.));
#515=CARTESIAN_POINT('',(-50.8,-55.5625,0.));
#516=CARTESIAN_POINT('',(-50.8,55.5625,0.));
#517=CARTESIAN_POINT('Origin',(50.8,55.5625,0.));
#518=CARTESIAN_POINT('',(-50.8,55.5625,0.));
#519=CARTESIAN_POINT('Origin',(0.,0.,0.));
#520=UNCERTAINTY_MEASURE_WITH_UNIT(LENGTH_MEASURE(0.01),#524,
'DISTANCE_ACCURACY_VALUE',
'Maximum model space distance between geometric entities at asserted c
onnectivities');
#521=UNCERTAINTY_MEASURE_WITH_UNIT(LENGTH_MEASURE(0.01),#524,
'DISTANCE_ACCURACY_VALUE',
'Maximum model space distance between geometric entities at asserted c
onnectivities');
#522=(
GEOMETRIC_REPRESENTATION_CONTEXT(3)
GLOBAL_UNCERTAINTY_ASSIGNED_CONTEXT((#520))
GLOBAL_UNIT_ASSIGNED_CONTEXT((#524,#526,#527))
REPRESENTATION_CONTEXT('','3D')
);
#523=(
GEOMETRIC_REPRESENTATION_CONTEXT(3)
GLOBAL_UNCERTAINTY_ASSIGNED_CONTEXT((#521))
GLOBAL_UNIT_ASSIGNED_CONTEXT((#524,#526,#527))
REPRESENTATION_CONTEXT('','3D')
);
#524=(
LENGTH_UNIT()
NAMED_UNIT(*)
SI_UNIT(.MILLI.,.METRE.)
);
#525=(
LENGTH_UNIT()
NAMED_UNIT(*)
SI_UNIT($,.METRE.)
);
#526=(
NAMED_UNIT(*)
PLANE_ANGLE_UNIT()
SI_UNIT($,.RADIAN.)
);
#527=(
NAMED_UNIT(*)
SI_UNIT($,.STERADIAN.)
SOLID_ANGLE_UNIT()
);
#528=SHAPE_DEFINITION_REPRESENTATION(#529,#530);
#529=PRODUCT_DEFINITION_SHAPE('',$,#532);
#530=SHAPE_REPRESENTATION('',(#308),#522);
#531=PRODUCT_DEFINITION_CONTEXT('part definition',#536,'design');
#532=PRODUCT_DEFINITION('acrylic plate diffuser_hole drilling jig',
'acrylic plate diffuser_hole drilling jig',#533,#531);
#533=PRODUCT_DEFINITION_FORMATION('',$,#538);
#534=PRODUCT_RELATED_PRODUCT_CATEGORY(
'acrylic plate diffuser_hole drilling jig',
'acrylic plate diffuser_hole drilling jig',(#538));
#535=APPLICATION_PROTOCOL_DEFINITION('international standard',
'automotive_design',2009,#536);
#536=APPLICATION_CONTEXT(
'Core Data for Automotive Mechanical Design Process');
#537=PRODUCT_CONTEXT('part definition',#536,'mechanical');
#538=PRODUCT('acrylic plate diffuser_hole drilling jig',
'acrylic plate diffuser_hole drilling jig',$,(#537));
#539=PRESENTATION_STYLE_ASSIGNMENT((#540));
#540=SURFACE_STYLE_USAGE(.BOTH.,#541);
#541=SURFACE_SIDE_STYLE('',(#542));
#542=SURFACE_STYLE_FILL_AREA(#543);
#543=FILL_AREA_STYLE(
'EPX 150 - Air Baked (with Carbon M2 M3 L1 3D Printers)',(#544));
#544=FILL_AREA_STYLE_COLOUR(
'EPX 150 - Air Baked (with Carbon M2 M3 L1 3D Printers)',#545);
#545=COLOUR_RGB(
'EPX 150 - Air Baked (with Carbon M2 M3 L1 3D Printers)',0.247058823529412,
0.247058823529412,0.247058823529412);
ENDSEC;
END-ISO-10303-21;
