ISO-10303-21;
HEADER;
/* Generated by software containing ST-Developer
 * from STEP Tools, Inc. (www.steptools.com) 
 */

FILE_DESCRIPTION(
/* description */ (''),
/* implementation_level */ '2;1');

FILE_NAME(
/* name */ 'corner bracket.step',
/* time_stamp */ '2026-10-04T13:12:23-05:00',
/* author */ (''),
/* organization */ (''),
/* preprocessor_version */ 'ST-DEVELOPER v20.1',
/* originating_system */ 'Autodesk Translation Framework v15.8.0.0',
/* authorisation */ '');

FILE_SCHEMA (('AUTOMOTIVE_DESIGN { 1 0 10303 214 3 1 1 }'));
ENDSEC;

DATA;
#10=MECHANICAL_DESIGN_GEOMETRIC_PRESENTATION_REPRESENTATION('',(#13),#1675);
#11=SHAPE_REPRESENTATION_RELATIONSHIP('SRR','None',#1682,#12);
#12=ADVANCED_BREP_SHAPE_REPRESENTATION('',(#14),#1674);
#13=STYLED_ITEM('',(#1691),#14);
#14=MANIFOLD_SOLID_BREP('Body1',#959);
#15=FACE_BOUND('',#322,.T.);
#16=FACE_BOUND('',#330,.T.);
#17=FACE_BOUND('',#336,.T.);
#18=FACE_BOUND('',#343,.T.);
#19=TOROIDAL_SURFACE('',#1003,3.15,0.5);
#20=TOROIDAL_SURFACE('',#1012,3.15,0.5);
#21=TOROIDAL_SURFACE('',#1019,3.65,0.5);
#22=TOROIDAL_SURFACE('',#1028,3.65,0.5);
#23=TOROIDAL_SURFACE('',#1038,3.65,0.5);
#24=TOROIDAL_SURFACE('',#1042,3.65,0.5);
#25=TOROIDAL_SURFACE('',#1047,3.15,0.5);
#26=TOROIDAL_SURFACE('',#1056,3.15,0.5);
#27=PLANE('',#998);
#28=PLANE('',#999);
#29=PLANE('',#1000);
#30=PLANE('',#1001);
#31=PLANE('',#1002);
#32=PLANE('',#1015);
#33=PLANE('',#1018);
#34=PLANE('',#1031);
#35=PLANE('',#1034);
#36=PLANE('',#1046);
#37=PLANE('',#1059);
#38=PLANE('',#1077);
#39=PLANE('',#1078);
#40=PLANE('',#1079);
#41=PLANE('',#1080);
#42=PLANE('',#1081);
#43=PLANE('',#1082);
#44=PLANE('',#1083);
#45=PLANE('',#1085);
#46=PLANE('',#1086);
#47=ELLIPSE('',#980,0.541196100146196,0.5);
#48=ELLIPSE('',#988,0.541196100146197,0.5);
#49=ELLIPSE('',#990,0.541196100146197,0.5);
#50=ELLIPSE('',#995,0.541196100146195,0.5);
#51=ELLIPSE('',#1069,1.,0.5);
#52=ELLIPSE('',#1072,1.,0.5);
#53=ELLIPSE('',#1074,1.,0.5);
#54=ELLIPSE('',#1076,1.,0.5);
#55=LINE('',#1409,#135);
#56=LINE('',#1410,#136);
#57=LINE('',#1413,#137);
#58=LINE('',#1415,#138);
#59=LINE('',#1425,#139);
#60=LINE('',#1426,#140);
#61=LINE('',#1430,#141);
#62=LINE('',#1434,#142);
#63=LINE('',#1438,#143);
#64=LINE('',#1440,#144);
#65=LINE('',#1443,#145);
#66=LINE('',#1444,#146);
#67=LINE('',#1449,#147);
#68=LINE('',#1450,#148);
#69=LINE('',#1453,#149);
#70=LINE('',#1455,#150);
#71=LINE('',#1459,#151);
#72=LINE('',#1462,#152);
#73=LINE('',#1464,#153);
#74=LINE('',#1467,#154);
#75=LINE('',#1469,#155);
#76=LINE('',#1470,#156);
#77=LINE('',#1473,#157);
#78=LINE('',#1475,#158);
#79=LINE('',#1477,#159);
#80=LINE('',#1478,#160);
#81=LINE('',#1481,#161);
#82=LINE('',#1482,#162);
#83=LINE('',#1485,#163);
#84=LINE('',#1487,#164);
#85=LINE('',#1488,#165);
#86=LINE('',#1489,#166);
#87=LINE('',#1503,#167);
#88=LINE('',#1504,#168);
#89=LINE('',#1509,#169);
#90=LINE('',#1510,#170);
#91=LINE('',#1516,#171);
#92=LINE('',#1518,#172);
#93=LINE('',#1519,#173);
#94=LINE('',#1522,#174);
#95=LINE('',#1525,#175);
#96=LINE('',#1539,#176);
#97=LINE('',#1540,#177);
#98=LINE('',#1545,#178);
#99=LINE('',#1546,#179);
#100=LINE('',#1552,#180);
#101=LINE('',#1554,#181);
#102=LINE('',#1555,#182);
#103=LINE('',#1558,#183);
#104=LINE('',#1561,#184);
#105=LINE('',#1567,#185);
#106=LINE('',#1579,#186);
#107=LINE('',#1580,#187);
#108=LINE('',#1584,#188);
#109=LINE('',#1586,#189);
#110=LINE('',#1588,#190);
#111=LINE('',#1590,#191);
#112=LINE('',#1592,#192);
#113=LINE('',#1593,#193);
#114=LINE('',#1605,#194);
#115=LINE('',#1606,#195);
#116=LINE('',#1610,#196);
#117=LINE('',#1614,#197);
#118=LINE('',#1618,#198);
#119=LINE('',#1620,#199);
#120=LINE('',#1622,#200);
#121=LINE('',#1624,#201);
#122=LINE('',#1626,#202);
#123=LINE('',#1627,#203);
#124=LINE('',#1641,#204);
#125=LINE('',#1646,#205);
#126=LINE('',#1650,#206);
#127=LINE('',#1654,#207);
#128=LINE('',#1656,#208);
#129=LINE('',#1658,#209);
#130=LINE('',#1659,#210);
#131=LINE('',#1661,#211);
#132=LINE('',#1662,#212);
#133=LINE('',#1663,#213);
#134=LINE('',#1668,#214);
#135=VECTOR('',#1101,10.);
#136=VECTOR('',#1102,10.);
#137=VECTOR('',#1105,10.);
#138=VECTOR('',#1106,10.);
#139=VECTOR('',#1119,10.);
#140=VECTOR('',#1120,10.);
#141=VECTOR('',#1123,10.);
#142=VECTOR('',#1126,10.);
#143=VECTOR('',#1131,10.);
#144=VECTOR('',#1132,10.);
#145=VECTOR('',#1137,10.);
#146=VECTOR('',#1138,10.);
#147=VECTOR('',#1143,10.);
#148=VECTOR('',#1144,10.);
#149=VECTOR('',#1147,10.);
#150=VECTOR('',#1148,10.);
#151=VECTOR('',#1153,10.);
#152=VECTOR('',#1156,10.);
#153=VECTOR('',#1159,10.);
#154=VECTOR('',#1162,10.);
#155=VECTOR('',#1163,10.);
#156=VECTOR('',#1164,10.);
#157=VECTOR('',#1167,10.);
#158=VECTOR('',#1168,10.);
#159=VECTOR('',#1169,10.);
#160=VECTOR('',#1170,10.);
#161=VECTOR('',#1173,10.);
#162=VECTOR('',#1174,10.);
#163=VECTOR('',#1177,10.);
#164=VECTOR('',#1178,10.);
#165=VECTOR('',#1179,10.);
#166=VECTOR('',#1180,10.);
#167=VECTOR('',#1195,0.5);
#168=VECTOR('',#1196,0.5);
#169=VECTOR('',#1201,0.5);
#170=VECTOR('',#1202,0.5);
#171=VECTOR('',#1211,10.);
#172=VECTOR('',#1212,0.5);
#173=VECTOR('',#1213,10.);
#174=VECTOR('',#1216,10.);
#175=VECTOR('',#1221,10.);
#176=VECTOR('',#1236,0.5);
#177=VECTOR('',#1237,0.5);
#178=VECTOR('',#1242,0.5);
#179=VECTOR('',#1243,0.5);
#180=VECTOR('',#1252,10.);
#181=VECTOR('',#1253,0.5);
#182=VECTOR('',#1254,10.);
#183=VECTOR('',#1257,10.);
#184=VECTOR('',#1262,10.);
#185=VECTOR('',#1269,0.5);
#186=VECTOR('',#1286,0.5);
#187=VECTOR('',#1287,0.5);
#188=VECTOR('',#1290,10.);
#189=VECTOR('',#1291,10.);
#190=VECTOR('',#1292,10.);
#191=VECTOR('',#1293,10.);
#192=VECTOR('',#1294,10.);
#193=VECTOR('',#1295,10.);
#194=VECTOR('',#1310,0.5);
#195=VECTOR('',#1311,0.5);
#196=VECTOR('',#1316,0.5);
#197=VECTOR('',#1323,10.);
#198=VECTOR('',#1326,10.);
#199=VECTOR('',#1327,10.);
#200=VECTOR('',#1328,10.);
#201=VECTOR('',#1329,10.);
#202=VECTOR('',#1330,10.);
#203=VECTOR('',#1331,10.);
#204=VECTOR('',#1352,10.);
#205=VECTOR('',#1359,10.);
#206=VECTOR('',#1364,10.);
#207=VECTOR('',#1369,10.);
#208=VECTOR('',#1372,10.);
#209=VECTOR('',#1375,10.);
#210=VECTOR('',#1376,10.);
#211=VECTOR('',#1379,10.);
#212=VECTOR('',#1380,10.);
#213=VECTOR('',#1381,10.);
#214=VECTOR('',#1390,10.);
#215=CYLINDRICAL_SURFACE('',#977,0.5);
#216=CYLINDRICAL_SURFACE('',#979,0.5);
#217=CYLINDRICAL_SURFACE('',#985,0.5);
#218=CYLINDRICAL_SURFACE('',#986,0.5);
#219=CYLINDRICAL_SURFACE('',#989,0.5);
#220=CYLINDRICAL_SURFACE('',#991,0.5);
#221=CYLINDRICAL_SURFACE('',#992,0.5);
#222=CYLINDRICAL_SURFACE('',#994,0.5);
#223=CYLINDRICAL_SURFACE('',#996,0.5);
#224=CYLINDRICAL_SURFACE('',#1008,0.5);
#225=CYLINDRICAL_SURFACE('',#1010,0.5);
#226=CYLINDRICAL_SURFACE('',#1016,2.65);
#227=CYLINDRICAL_SURFACE('',#1024,0.5);
#228=CYLINDRICAL_SURFACE('',#1026,0.5);
#229=CYLINDRICAL_SURFACE('',#1032,3.15);
#230=CYLINDRICAL_SURFACE('',#1035,0.5);
#231=CYLINDRICAL_SURFACE('',#1045,0.5);
#232=CYLINDRICAL_SURFACE('',#1052,0.5);
#233=CYLINDRICAL_SURFACE('',#1054,0.5);
#234=CYLINDRICAL_SURFACE('',#1058,2.65);
#235=CYLINDRICAL_SURFACE('',#1068,0.5);
#236=CYLINDRICAL_SURFACE('',#1070,0.5);
#237=CYLINDRICAL_SURFACE('',#1071,0.5);
#238=CYLINDRICAL_SURFACE('',#1073,0.5);
#239=CYLINDRICAL_SURFACE('',#1075,0.5);
#240=CYLINDRICAL_SURFACE('',#1084,3.15);
#241=FACE_OUTER_BOUND('',#299,.T.);
#242=FACE_OUTER_BOUND('',#300,.T.);
#243=FACE_OUTER_BOUND('',#301,.T.);
#244=FACE_OUTER_BOUND('',#302,.T.);
#245=FACE_OUTER_BOUND('',#303,.T.);
#246=FACE_OUTER_BOUND('',#304,.T.);
#247=FACE_OUTER_BOUND('',#305,.T.);
#248=FACE_OUTER_BOUND('',#306,.T.);
#249=FACE_OUTER_BOUND('',#307,.T.);
#250=FACE_OUTER_BOUND('',#308,.T.);
#251=FACE_OUTER_BOUND('',#309,.T.);
#252=FACE_OUTER_BOUND('',#310,.T.);
#253=FACE_OUTER_BOUND('',#311,.T.);
#254=FACE_OUTER_BOUND('',#312,.T.);
#255=FACE_OUTER_BOUND('',#313,.T.);
#256=FACE_OUTER_BOUND('',#314,.T.);
#257=FACE_OUTER_BOUND('',#315,.T.);
#258=FACE_OUTER_BOUND('',#316,.T.);
#259=FACE_OUTER_BOUND('',#317,.T.);
#260=FACE_OUTER_BOUND('',#318,.T.);
#261=FACE_OUTER_BOUND('',#319,.T.);
#262=FACE_OUTER_BOUND('',#320,.T.);
#263=FACE_OUTER_BOUND('',#321,.T.);
#264=FACE_OUTER_BOUND('',#323,.T.);
#265=FACE_OUTER_BOUND('',#324,.T.);
#266=FACE_OUTER_BOUND('',#325,.T.);
#267=FACE_OUTER_BOUND('',#326,.T.);
#268=FACE_OUTER_BOUND('',#327,.T.);
#269=FACE_OUTER_BOUND('',#328,.T.);
#270=FACE_OUTER_BOUND('',#329,.T.);
#271=FACE_OUTER_BOUND('',#331,.T.);
#272=FACE_OUTER_BOUND('',#332,.T.);
#273=FACE_OUTER_BOUND('',#333,.T.);
#274=FACE_OUTER_BOUND('',#334,.T.);
#275=FACE_OUTER_BOUND('',#335,.T.);
#276=FACE_OUTER_BOUND('',#337,.T.);
#277=FACE_OUTER_BOUND('',#338,.T.);
#278=FACE_OUTER_BOUND('',#339,.T.);
#279=FACE_OUTER_BOUND('',#340,.T.);
#280=FACE_OUTER_BOUND('',#341,.T.);
#281=FACE_OUTER_BOUND('',#342,.T.);
#282=FACE_OUTER_BOUND('',#344,.T.);
#283=FACE_OUTER_BOUND('',#345,.T.);
#284=FACE_OUTER_BOUND('',#346,.T.);
#285=FACE_OUTER_BOUND('',#347,.T.);
#286=FACE_OUTER_BOUND('',#348,.T.);
#287=FACE_OUTER_BOUND('',#349,.T.);
#288=FACE_OUTER_BOUND('',#350,.T.);
#289=FACE_OUTER_BOUND('',#351,.T.);
#290=FACE_OUTER_BOUND('',#352,.T.);
#291=FACE_OUTER_BOUND('',#353,.T.);
#292=FACE_OUTER_BOUND('',#354,.T.);
#293=FACE_OUTER_BOUND('',#355,.T.);
#294=FACE_OUTER_BOUND('',#356,.T.);
#295=FACE_OUTER_BOUND('',#357,.T.);
#296=FACE_OUTER_BOUND('',#358,.T.);
#297=FACE_OUTER_BOUND('',#359,.T.);
#298=FACE_OUTER_BOUND('',#360,.T.);
#299=EDGE_LOOP('',(#625,#626,#627));
#300=EDGE_LOOP('',(#628,#629,#630,#631));
#301=EDGE_LOOP('',(#632,#633,#634,#635));
#302=EDGE_LOOP('',(#636,#637,#638));
#303=EDGE_LOOP('',(#639,#640,#641,#642));
#304=EDGE_LOOP('',(#643,#644,#645,#646));
#305=EDGE_LOOP('',(#647,#648,#649,#650));
#306=EDGE_LOOP('',(#651,#652,#653,#654));
#307=EDGE_LOOP('',(#655,#656,#657,#658));
#308=EDGE_LOOP('',(#659,#660,#661,#662));
#309=EDGE_LOOP('',(#663,#664,#665,#666));
#310=EDGE_LOOP('',(#667,#668,#669,#670,#671));
#311=EDGE_LOOP('',(#672,#673,#674,#675));
#312=EDGE_LOOP('',(#676,#677,#678,#679,#680,#681,#682,#683));
#313=EDGE_LOOP('',(#684,#685,#686,#687));
#314=EDGE_LOOP('',(#688,#689,#690,#691,#692,#693,#694,#695));
#315=EDGE_LOOP('',(#696,#697,#698,#699));
#316=EDGE_LOOP('',(#700,#701,#702,#703));
#317=EDGE_LOOP('',(#704,#705,#706,#707));
#318=EDGE_LOOP('',(#708,#709,#710,#711));
#319=EDGE_LOOP('',(#712,#713,#714,#715));
#320=EDGE_LOOP('',(#716,#717,#718,#719));
#321=EDGE_LOOP('',(#720,#721,#722,#723));
#322=EDGE_LOOP('',(#724,#725,#726,#727));
#323=EDGE_LOOP('',(#728,#729,#730,#731));
#324=EDGE_LOOP('',(#732,#733,#734,#735));
#325=EDGE_LOOP('',(#736,#737,#738,#739));
#326=EDGE_LOOP('',(#740,#741,#742,#743));
#327=EDGE_LOOP('',(#744,#745,#746,#747));
#328=EDGE_LOOP('',(#748,#749,#750,#751));
#329=EDGE_LOOP('',(#752,#753,#754,#755,#756,#757,#758,#759));
#330=EDGE_LOOP('',(#760,#761,#762,#763));
#331=EDGE_LOOP('',(#764,#765,#766,#767));
#332=EDGE_LOOP('',(#768,#769,#770,#771));
#333=EDGE_LOOP('',(#772,#773,#774,#775));
#334=EDGE_LOOP('',(#776,#777,#778,#779));
#335=EDGE_LOOP('',(#780,#781,#782,#783,#784,#785));
#336=EDGE_LOOP('',(#786,#787,#788,#789));
#337=EDGE_LOOP('',(#790,#791,#792,#793));
#338=EDGE_LOOP('',(#794,#795,#796,#797));
#339=EDGE_LOOP('',(#798,#799,#800,#801));
#340=EDGE_LOOP('',(#802,#803,#804,#805));
#341=EDGE_LOOP('',(#806,#807,#808,#809));
#342=EDGE_LOOP('',(#810,#811,#812,#813,#814,#815));
#343=EDGE_LOOP('',(#816,#817,#818,#819));
#344=EDGE_LOOP('',(#820,#821,#822));
#345=EDGE_LOOP('',(#823,#824,#825));
#346=EDGE_LOOP('',(#826,#827,#828,#829));
#347=EDGE_LOOP('',(#830,#831,#832,#833));
#348=EDGE_LOOP('',(#834,#835,#836,#837));
#349=EDGE_LOOP('',(#838,#839,#840,#841));
#350=EDGE_LOOP('',(#842,#843,#844,#845));
#351=EDGE_LOOP('',(#846,#847,#848));
#352=EDGE_LOOP('',(#849,#850,#851,#852,#853,#854,#855,#856,#857,#858));
#353=EDGE_LOOP('',(#859,#860,#861,#862,#863,#864,#865,#866,#867,#868));
#354=EDGE_LOOP('',(#869,#870,#871,#872));
#355=EDGE_LOOP('',(#873,#874,#875,#876));
#356=EDGE_LOOP('',(#877,#878,#879,#880));
#357=EDGE_LOOP('',(#881,#882,#883,#884));
#358=EDGE_LOOP('',(#885,#886,#887,#888));
#359=EDGE_LOOP('',(#889,#890,#891));
#360=EDGE_LOOP('',(#892,#893,#894,#895,#896));
#361=CIRCLE('',#974,0.5);
#362=CIRCLE('',#975,0.5);
#363=CIRCLE('',#976,0.5);
#364=CIRCLE('',#978,0.5);
#365=CIRCLE('',#982,0.5);
#366=CIRCLE('',#983,0.5);
#367=CIRCLE('',#984,0.5);
#368=CIRCLE('',#987,0.5);
#369=CIRCLE('',#993,0.5);
#370=CIRCLE('',#997,0.5);
#371=CIRCLE('',#1004,0.5);
#372=CIRCLE('',#1005,2.65);
#373=CIRCLE('',#1006,0.5);
#374=CIRCLE('',#1007,3.15);
#375=CIRCLE('',#1009,0.5);
#376=CIRCLE('',#1011,0.499999999999998);
#377=CIRCLE('',#1013,2.65);
#378=CIRCLE('',#1014,3.15);
#379=CIRCLE('',#1017,2.65);
#380=CIRCLE('',#1020,0.5);
#381=CIRCLE('',#1021,3.15);
#382=CIRCLE('',#1022,0.5);
#383=CIRCLE('',#1023,3.65);
#384=CIRCLE('',#1025,0.5);
#385=CIRCLE('',#1027,0.5);
#386=CIRCLE('',#1029,3.15);
#387=CIRCLE('',#1030,3.65);
#388=CIRCLE('',#1033,3.15);
#389=CIRCLE('',#1036,0.5);
#390=CIRCLE('',#1037,0.5);
#391=CIRCLE('',#1039,0.5);
#392=CIRCLE('',#1040,3.15);
#393=CIRCLE('',#1041,3.65);
#394=CIRCLE('',#1043,0.5);
#395=CIRCLE('',#1044,3.65);
#396=CIRCLE('',#1048,0.5);
#397=CIRCLE('',#1049,2.65);
#398=CIRCLE('',#1050,0.499999999999998);
#399=CIRCLE('',#1051,3.15);
#400=CIRCLE('',#1053,0.5);
#401=CIRCLE('',#1055,0.5);
#402=CIRCLE('',#1057,3.15);
#403=CIRCLE('',#1061,0.5);
#404=CIRCLE('',#1062,0.5);
#405=CIRCLE('',#1063,0.5);
#406=CIRCLE('',#1065,0.5);
#407=CIRCLE('',#1066,0.5);
#408=CIRCLE('',#1067,0.5);
#409=VERTEX_POINT('',#1399);
#410=VERTEX_POINT('',#1400);
#411=VERTEX_POINT('',#1402);
#412=VERTEX_POINT('',#1406);
#413=VERTEX_POINT('',#1407);
#414=VERTEX_POINT('',#1412);
#415=VERTEX_POINT('',#1414);
#416=VERTEX_POINT('',#1418);
#417=VERTEX_POINT('',#1419);
#418=VERTEX_POINT('',#1421);
#419=VERTEX_POINT('',#1428);
#420=VERTEX_POINT('',#1429);
#421=VERTEX_POINT('',#1431);
#422=VERTEX_POINT('',#1433);
#423=VERTEX_POINT('',#1437);
#424=VERTEX_POINT('',#1439);
#425=VERTEX_POINT('',#1446);
#426=VERTEX_POINT('',#1447);
#427=VERTEX_POINT('',#1452);
#428=VERTEX_POINT('',#1454);
#429=VERTEX_POINT('',#1458);
#430=VERTEX_POINT('',#1460);
#431=VERTEX_POINT('',#1466);
#432=VERTEX_POINT('',#1468);
#433=VERTEX_POINT('',#1472);
#434=VERTEX_POINT('',#1474);
#435=VERTEX_POINT('',#1476);
#436=VERTEX_POINT('',#1480);
#437=VERTEX_POINT('',#1484);
#438=VERTEX_POINT('',#1486);
#439=VERTEX_POINT('',#1491);
#440=VERTEX_POINT('',#1492);
#441=VERTEX_POINT('',#1494);
#442=VERTEX_POINT('',#1496);
#443=VERTEX_POINT('',#1500);
#444=VERTEX_POINT('',#1501);
#445=VERTEX_POINT('',#1506);
#446=VERTEX_POINT('',#1507);
#447=VERTEX_POINT('',#1515);
#448=VERTEX_POINT('',#1517);
#449=VERTEX_POINT('',#1521);
#450=VERTEX_POINT('',#1527);
#451=VERTEX_POINT('',#1528);
#452=VERTEX_POINT('',#1530);
#453=VERTEX_POINT('',#1532);
#454=VERTEX_POINT('',#1536);
#455=VERTEX_POINT('',#1537);
#456=VERTEX_POINT('',#1542);
#457=VERTEX_POINT('',#1543);
#458=VERTEX_POINT('',#1551);
#459=VERTEX_POINT('',#1553);
#460=VERTEX_POINT('',#1557);
#461=VERTEX_POINT('',#1563);
#462=VERTEX_POINT('',#1565);
#463=VERTEX_POINT('',#1569);
#464=VERTEX_POINT('',#1570);
#465=VERTEX_POINT('',#1575);
#466=VERTEX_POINT('',#1582);
#467=VERTEX_POINT('',#1583);
#468=VERTEX_POINT('',#1585);
#469=VERTEX_POINT('',#1587);
#470=VERTEX_POINT('',#1589);
#471=VERTEX_POINT('',#1591);
#472=VERTEX_POINT('',#1595);
#473=VERTEX_POINT('',#1596);
#474=VERTEX_POINT('',#1599);
#475=VERTEX_POINT('',#1603);
#476=VERTEX_POINT('',#1608);
#477=VERTEX_POINT('',#1616);
#478=VERTEX_POINT('',#1617);
#479=VERTEX_POINT('',#1619);
#480=VERTEX_POINT('',#1621);
#481=VERTEX_POINT('',#1623);
#482=VERTEX_POINT('',#1625);
#483=VERTEX_POINT('',#1629);
#484=VERTEX_POINT('',#1634);
#485=VERTEX_POINT('',#1639);
#486=VERTEX_POINT('',#1644);
#487=VERTEX_POINT('',#1648);
#488=VERTEX_POINT('',#1652);
#489=EDGE_CURVE('',#409,#410,#361,.F.);
#490=EDGE_CURVE('',#411,#409,#362,.F.);
#491=EDGE_CURVE('',#410,#411,#363,.F.);
#492=EDGE_CURVE('',#412,#413,#364,.T.);
#493=EDGE_CURVE('',#413,#411,#55,.T.);
#494=EDGE_CURVE('',#409,#412,#56,.T.);
#495=EDGE_CURVE('',#414,#410,#57,.T.);
#496=EDGE_CURVE('',#411,#415,#58,.T.);
#497=EDGE_CURVE('',#415,#414,#47,.T.);
#498=EDGE_CURVE('',#416,#417,#365,.F.);
#499=EDGE_CURVE('',#418,#416,#366,.F.);
#500=EDGE_CURVE('',#417,#418,#367,.F.);
#501=EDGE_CURVE('',#416,#409,#59,.T.);
#502=EDGE_CURVE('',#410,#418,#60,.T.);
#503=EDGE_CURVE('',#419,#420,#61,.T.);
#504=EDGE_CURVE('',#420,#421,#368,.T.);
#505=EDGE_CURVE('',#421,#422,#62,.T.);
#506=EDGE_CURVE('',#422,#419,#48,.T.);
#507=EDGE_CURVE('',#423,#419,#63,.T.);
#508=EDGE_CURVE('',#422,#424,#64,.T.);
#509=EDGE_CURVE('',#424,#423,#49,.T.);
#510=EDGE_CURVE('',#424,#417,#65,.T.);
#511=EDGE_CURVE('',#418,#423,#66,.T.);
#512=EDGE_CURVE('',#425,#426,#369,.T.);
#513=EDGE_CURVE('',#426,#416,#67,.T.);
#514=EDGE_CURVE('',#417,#425,#68,.T.);
#515=EDGE_CURVE('',#427,#414,#69,.T.);
#516=EDGE_CURVE('',#415,#428,#70,.T.);
#517=EDGE_CURVE('',#428,#427,#50,.T.);
#518=EDGE_CURVE('',#428,#429,#71,.T.);
#519=EDGE_CURVE('',#429,#430,#370,.T.);
#520=EDGE_CURVE('',#430,#427,#72,.T.);
#521=EDGE_CURVE('',#421,#425,#73,.T.);
#522=EDGE_CURVE('',#431,#423,#74,.T.);
#523=EDGE_CURVE('',#432,#431,#75,.T.);
#524=EDGE_CURVE('',#419,#432,#76,.T.);
#525=EDGE_CURVE('',#414,#433,#77,.T.);
#526=EDGE_CURVE('',#434,#433,#78,.T.);
#527=EDGE_CURVE('',#435,#434,#79,.T.);
#528=EDGE_CURVE('',#431,#435,#80,.T.);
#529=EDGE_CURVE('',#436,#427,#81,.T.);
#530=EDGE_CURVE('',#433,#436,#82,.T.);
#531=EDGE_CURVE('',#437,#432,#83,.T.);
#532=EDGE_CURVE('',#438,#437,#84,.T.);
#533=EDGE_CURVE('',#436,#438,#85,.T.);
#534=EDGE_CURVE('',#430,#420,#86,.T.);
#535=EDGE_CURVE('',#439,#440,#371,.T.);
#536=EDGE_CURVE('',#440,#441,#372,.T.);
#537=EDGE_CURVE('',#441,#442,#373,.T.);
#538=EDGE_CURVE('',#442,#439,#374,.T.);
#539=EDGE_CURVE('',#443,#444,#375,.T.);
#540=EDGE_CURVE('',#444,#440,#87,.T.);
#541=EDGE_CURVE('',#439,#443,#88,.T.);
#542=EDGE_CURVE('',#445,#446,#376,.T.);
#543=EDGE_CURVE('',#446,#442,#89,.T.);
#544=EDGE_CURVE('',#441,#445,#90,.T.);
#545=EDGE_CURVE('',#445,#444,#377,.T.);
#546=EDGE_CURVE('',#443,#446,#378,.T.);
#547=EDGE_CURVE('',#441,#447,#91,.T.);
#548=EDGE_CURVE('',#448,#447,#92,.T.);
#549=EDGE_CURVE('',#445,#448,#93,.T.);
#550=EDGE_CURVE('',#440,#449,#94,.T.);
#551=EDGE_CURVE('',#447,#449,#379,.T.);
#552=EDGE_CURVE('',#412,#426,#95,.T.);
#553=EDGE_CURVE('',#450,#451,#380,.T.);
#554=EDGE_CURVE('',#451,#452,#381,.T.);
#555=EDGE_CURVE('',#452,#453,#382,.T.);
#556=EDGE_CURVE('',#453,#450,#383,.T.);
#557=EDGE_CURVE('',#454,#455,#384,.T.);
#558=EDGE_CURVE('',#455,#451,#96,.T.);
#559=EDGE_CURVE('',#450,#454,#97,.T.);
#560=EDGE_CURVE('',#456,#457,#385,.T.);
#561=EDGE_CURVE('',#457,#453,#98,.T.);
#562=EDGE_CURVE('',#452,#456,#99,.T.);
#563=EDGE_CURVE('',#456,#455,#386,.T.);
#564=EDGE_CURVE('',#454,#457,#387,.T.);
#565=EDGE_CURVE('',#452,#458,#100,.T.);
#566=EDGE_CURVE('',#459,#458,#101,.T.);
#567=EDGE_CURVE('',#456,#459,#102,.T.);
#568=EDGE_CURVE('',#451,#460,#103,.T.);
#569=EDGE_CURVE('',#458,#460,#388,.T.);
#570=EDGE_CURVE('',#413,#429,#104,.T.);
#571=EDGE_CURVE('',#461,#459,#389,.T.);
#572=EDGE_CURVE('',#458,#462,#390,.T.);
#573=EDGE_CURVE('',#462,#461,#105,.T.);
#574=EDGE_CURVE('',#463,#464,#391,.T.);
#575=EDGE_CURVE('',#464,#459,#392,.T.);
#576=EDGE_CURVE('',#461,#463,#393,.T.);
#577=EDGE_CURVE('',#460,#465,#394,.T.);
#578=EDGE_CURVE('',#465,#462,#395,.T.);
#579=EDGE_CURVE('',#460,#464,#106,.T.);
#580=EDGE_CURVE('',#463,#465,#107,.T.);
#581=EDGE_CURVE('',#466,#467,#108,.T.);
#582=EDGE_CURVE('',#468,#467,#109,.T.);
#583=EDGE_CURVE('',#469,#468,#110,.T.);
#584=EDGE_CURVE('',#470,#469,#111,.T.);
#585=EDGE_CURVE('',#471,#470,#112,.F.);
#586=EDGE_CURVE('',#471,#466,#113,.T.);
#587=EDGE_CURVE('',#472,#473,#396,.T.);
#588=EDGE_CURVE('',#473,#448,#397,.T.);
#589=EDGE_CURVE('',#448,#474,#398,.T.);
#590=EDGE_CURVE('',#474,#472,#399,.T.);
#591=EDGE_CURVE('',#475,#449,#400,.T.);
#592=EDGE_CURVE('',#449,#473,#114,.T.);
#593=EDGE_CURVE('',#472,#475,#115,.T.);
#594=EDGE_CURVE('',#447,#476,#401,.T.);
#595=EDGE_CURVE('',#476,#474,#116,.T.);
#596=EDGE_CURVE('',#475,#476,#402,.T.);
#597=EDGE_CURVE('',#444,#473,#117,.T.);
#598=EDGE_CURVE('',#477,#478,#118,.F.);
#599=EDGE_CURVE('',#477,#479,#119,.T.);
#600=EDGE_CURVE('',#479,#480,#120,.T.);
#601=EDGE_CURVE('',#481,#480,#121,.T.);
#602=EDGE_CURVE('',#482,#481,#122,.T.);
#603=EDGE_CURVE('',#478,#482,#123,.T.);
#604=EDGE_CURVE('',#469,#483,#403,.F.);
#605=EDGE_CURVE('',#481,#469,#404,.F.);
#606=EDGE_CURVE('',#483,#481,#405,.F.);
#607=EDGE_CURVE('',#484,#468,#406,.F.);
#608=EDGE_CURVE('',#482,#484,#407,.F.);
#609=EDGE_CURVE('',#468,#482,#408,.F.);
#610=EDGE_CURVE('',#485,#478,#51,.T.);
#611=EDGE_CURVE('',#484,#485,#124,.T.);
#612=EDGE_CURVE('',#467,#486,#52,.T.);
#613=EDGE_CURVE('',#486,#484,#125,.T.);
#614=EDGE_CURVE('',#480,#487,#53,.T.);
#615=EDGE_CURVE('',#487,#483,#126,.T.);
#616=EDGE_CURVE('',#488,#470,#54,.T.);
#617=EDGE_CURVE('',#483,#488,#127,.T.);
#618=EDGE_CURVE('',#485,#486,#128,.T.);
#619=EDGE_CURVE('',#466,#437,#129,.F.);
#620=EDGE_CURVE('',#477,#435,#130,.T.);
#621=EDGE_CURVE('',#488,#487,#131,.T.);
#622=EDGE_CURVE('',#479,#434,#132,.F.);
#623=EDGE_CURVE('',#471,#438,#133,.T.);
#624=EDGE_CURVE('',#455,#464,#134,.T.);
#625=ORIENTED_EDGE('',*,*,#489,.F.);
#626=ORIENTED_EDGE('',*,*,#490,.F.);
#627=ORIENTED_EDGE('',*,*,#491,.F.);
#628=ORIENTED_EDGE('',*,*,#492,.T.);
#629=ORIENTED_EDGE('',*,*,#493,.T.);
#630=ORIENTED_EDGE('',*,*,#490,.T.);
#631=ORIENTED_EDGE('',*,*,#494,.T.);
#632=ORIENTED_EDGE('',*,*,#495,.T.);
#633=ORIENTED_EDGE('',*,*,#491,.T.);
#634=ORIENTED_EDGE('',*,*,#496,.T.);
#635=ORIENTED_EDGE('',*,*,#497,.T.);
#636=ORIENTED_EDGE('',*,*,#498,.F.);
#637=ORIENTED_EDGE('',*,*,#499,.F.);
#638=ORIENTED_EDGE('',*,*,#500,.F.);
#639=ORIENTED_EDGE('',*,*,#499,.T.);
#640=ORIENTED_EDGE('',*,*,#501,.T.);
#641=ORIENTED_EDGE('',*,*,#489,.T.);
#642=ORIENTED_EDGE('',*,*,#502,.T.);
#643=ORIENTED_EDGE('',*,*,#503,.T.);
#644=ORIENTED_EDGE('',*,*,#504,.T.);
#645=ORIENTED_EDGE('',*,*,#505,.T.);
#646=ORIENTED_EDGE('',*,*,#506,.T.);
#647=ORIENTED_EDGE('',*,*,#507,.T.);
#648=ORIENTED_EDGE('',*,*,#506,.F.);
#649=ORIENTED_EDGE('',*,*,#508,.T.);
#650=ORIENTED_EDGE('',*,*,#509,.T.);
#651=ORIENTED_EDGE('',*,*,#510,.T.);
#652=ORIENTED_EDGE('',*,*,#500,.T.);
#653=ORIENTED_EDGE('',*,*,#511,.T.);
#654=ORIENTED_EDGE('',*,*,#509,.F.);
#655=ORIENTED_EDGE('',*,*,#512,.T.);
#656=ORIENTED_EDGE('',*,*,#513,.T.);
#657=ORIENTED_EDGE('',*,*,#498,.T.);
#658=ORIENTED_EDGE('',*,*,#514,.T.);
#659=ORIENTED_EDGE('',*,*,#515,.T.);
#660=ORIENTED_EDGE('',*,*,#497,.F.);
#661=ORIENTED_EDGE('',*,*,#516,.T.);
#662=ORIENTED_EDGE('',*,*,#517,.T.);
#663=ORIENTED_EDGE('',*,*,#518,.T.);
#664=ORIENTED_EDGE('',*,*,#519,.T.);
#665=ORIENTED_EDGE('',*,*,#520,.T.);
#666=ORIENTED_EDGE('',*,*,#517,.F.);
#667=ORIENTED_EDGE('',*,*,#514,.F.);
#668=ORIENTED_EDGE('',*,*,#510,.F.);
#669=ORIENTED_EDGE('',*,*,#508,.F.);
#670=ORIENTED_EDGE('',*,*,#505,.F.);
#671=ORIENTED_EDGE('',*,*,#521,.T.);
#672=ORIENTED_EDGE('',*,*,#507,.F.);
#673=ORIENTED_EDGE('',*,*,#522,.F.);
#674=ORIENTED_EDGE('',*,*,#523,.F.);
#675=ORIENTED_EDGE('',*,*,#524,.F.);
#676=ORIENTED_EDGE('',*,*,#511,.F.);
#677=ORIENTED_EDGE('',*,*,#502,.F.);
#678=ORIENTED_EDGE('',*,*,#495,.F.);
#679=ORIENTED_EDGE('',*,*,#525,.T.);
#680=ORIENTED_EDGE('',*,*,#526,.F.);
#681=ORIENTED_EDGE('',*,*,#527,.F.);
#682=ORIENTED_EDGE('',*,*,#528,.F.);
#683=ORIENTED_EDGE('',*,*,#522,.T.);
#684=ORIENTED_EDGE('',*,*,#515,.F.);
#685=ORIENTED_EDGE('',*,*,#529,.F.);
#686=ORIENTED_EDGE('',*,*,#530,.F.);
#687=ORIENTED_EDGE('',*,*,#525,.F.);
#688=ORIENTED_EDGE('',*,*,#503,.F.);
#689=ORIENTED_EDGE('',*,*,#524,.T.);
#690=ORIENTED_EDGE('',*,*,#531,.F.);
#691=ORIENTED_EDGE('',*,*,#532,.F.);
#692=ORIENTED_EDGE('',*,*,#533,.F.);
#693=ORIENTED_EDGE('',*,*,#529,.T.);
#694=ORIENTED_EDGE('',*,*,#520,.F.);
#695=ORIENTED_EDGE('',*,*,#534,.T.);
#696=ORIENTED_EDGE('',*,*,#535,.T.);
#697=ORIENTED_EDGE('',*,*,#536,.T.);
#698=ORIENTED_EDGE('',*,*,#537,.T.);
#699=ORIENTED_EDGE('',*,*,#538,.T.);
#700=ORIENTED_EDGE('',*,*,#539,.T.);
#701=ORIENTED_EDGE('',*,*,#540,.T.);
#702=ORIENTED_EDGE('',*,*,#535,.F.);
#703=ORIENTED_EDGE('',*,*,#541,.T.);
#704=ORIENTED_EDGE('',*,*,#542,.T.);
#705=ORIENTED_EDGE('',*,*,#543,.T.);
#706=ORIENTED_EDGE('',*,*,#537,.F.);
#707=ORIENTED_EDGE('',*,*,#544,.T.);
#708=ORIENTED_EDGE('',*,*,#542,.F.);
#709=ORIENTED_EDGE('',*,*,#545,.T.);
#710=ORIENTED_EDGE('',*,*,#539,.F.);
#711=ORIENTED_EDGE('',*,*,#546,.T.);
#712=ORIENTED_EDGE('',*,*,#544,.F.);
#713=ORIENTED_EDGE('',*,*,#547,.T.);
#714=ORIENTED_EDGE('',*,*,#548,.F.);
#715=ORIENTED_EDGE('',*,*,#549,.F.);
#716=ORIENTED_EDGE('',*,*,#536,.F.);
#717=ORIENTED_EDGE('',*,*,#550,.T.);
#718=ORIENTED_EDGE('',*,*,#551,.F.);
#719=ORIENTED_EDGE('',*,*,#547,.F.);
#720=ORIENTED_EDGE('',*,*,#513,.F.);
#721=ORIENTED_EDGE('',*,*,#552,.F.);
#722=ORIENTED_EDGE('',*,*,#494,.F.);
#723=ORIENTED_EDGE('',*,*,#501,.F.);
#724=ORIENTED_EDGE('',*,*,#538,.F.);
#725=ORIENTED_EDGE('',*,*,#543,.F.);
#726=ORIENTED_EDGE('',*,*,#546,.F.);
#727=ORIENTED_EDGE('',*,*,#541,.F.);
#728=ORIENTED_EDGE('',*,*,#553,.T.);
#729=ORIENTED_EDGE('',*,*,#554,.T.);
#730=ORIENTED_EDGE('',*,*,#555,.T.);
#731=ORIENTED_EDGE('',*,*,#556,.T.);
#732=ORIENTED_EDGE('',*,*,#557,.T.);
#733=ORIENTED_EDGE('',*,*,#558,.T.);
#734=ORIENTED_EDGE('',*,*,#553,.F.);
#735=ORIENTED_EDGE('',*,*,#559,.T.);
#736=ORIENTED_EDGE('',*,*,#560,.T.);
#737=ORIENTED_EDGE('',*,*,#561,.T.);
#738=ORIENTED_EDGE('',*,*,#555,.F.);
#739=ORIENTED_EDGE('',*,*,#562,.T.);
#740=ORIENTED_EDGE('',*,*,#560,.F.);
#741=ORIENTED_EDGE('',*,*,#563,.T.);
#742=ORIENTED_EDGE('',*,*,#557,.F.);
#743=ORIENTED_EDGE('',*,*,#564,.T.);
#744=ORIENTED_EDGE('',*,*,#562,.F.);
#745=ORIENTED_EDGE('',*,*,#565,.T.);
#746=ORIENTED_EDGE('',*,*,#566,.F.);
#747=ORIENTED_EDGE('',*,*,#567,.F.);
#748=ORIENTED_EDGE('',*,*,#554,.F.);
#749=ORIENTED_EDGE('',*,*,#568,.T.);
#750=ORIENTED_EDGE('',*,*,#569,.F.);
#751=ORIENTED_EDGE('',*,*,#565,.F.);
#752=ORIENTED_EDGE('',*,*,#512,.F.);
#753=ORIENTED_EDGE('',*,*,#521,.F.);
#754=ORIENTED_EDGE('',*,*,#504,.F.);
#755=ORIENTED_EDGE('',*,*,#534,.F.);
#756=ORIENTED_EDGE('',*,*,#519,.F.);
#757=ORIENTED_EDGE('',*,*,#570,.F.);
#758=ORIENTED_EDGE('',*,*,#492,.F.);
#759=ORIENTED_EDGE('',*,*,#552,.T.);
#760=ORIENTED_EDGE('',*,*,#556,.F.);
#761=ORIENTED_EDGE('',*,*,#561,.F.);
#762=ORIENTED_EDGE('',*,*,#564,.F.);
#763=ORIENTED_EDGE('',*,*,#559,.F.);
#764=ORIENTED_EDGE('',*,*,#571,.T.);
#765=ORIENTED_EDGE('',*,*,#566,.T.);
#766=ORIENTED_EDGE('',*,*,#572,.T.);
#767=ORIENTED_EDGE('',*,*,#573,.T.);
#768=ORIENTED_EDGE('',*,*,#574,.T.);
#769=ORIENTED_EDGE('',*,*,#575,.T.);
#770=ORIENTED_EDGE('',*,*,#571,.F.);
#771=ORIENTED_EDGE('',*,*,#576,.T.);
#772=ORIENTED_EDGE('',*,*,#577,.T.);
#773=ORIENTED_EDGE('',*,*,#578,.T.);
#774=ORIENTED_EDGE('',*,*,#572,.F.);
#775=ORIENTED_EDGE('',*,*,#569,.T.);
#776=ORIENTED_EDGE('',*,*,#577,.F.);
#777=ORIENTED_EDGE('',*,*,#579,.T.);
#778=ORIENTED_EDGE('',*,*,#574,.F.);
#779=ORIENTED_EDGE('',*,*,#580,.T.);
#780=ORIENTED_EDGE('',*,*,#581,.T.);
#781=ORIENTED_EDGE('',*,*,#582,.F.);
#782=ORIENTED_EDGE('',*,*,#583,.F.);
#783=ORIENTED_EDGE('',*,*,#584,.F.);
#784=ORIENTED_EDGE('',*,*,#585,.F.);
#785=ORIENTED_EDGE('',*,*,#586,.T.);
#786=ORIENTED_EDGE('',*,*,#573,.F.);
#787=ORIENTED_EDGE('',*,*,#578,.F.);
#788=ORIENTED_EDGE('',*,*,#580,.F.);
#789=ORIENTED_EDGE('',*,*,#576,.F.);
#790=ORIENTED_EDGE('',*,*,#587,.T.);
#791=ORIENTED_EDGE('',*,*,#588,.T.);
#792=ORIENTED_EDGE('',*,*,#589,.T.);
#793=ORIENTED_EDGE('',*,*,#590,.T.);
#794=ORIENTED_EDGE('',*,*,#591,.T.);
#795=ORIENTED_EDGE('',*,*,#592,.T.);
#796=ORIENTED_EDGE('',*,*,#587,.F.);
#797=ORIENTED_EDGE('',*,*,#593,.T.);
#798=ORIENTED_EDGE('',*,*,#594,.T.);
#799=ORIENTED_EDGE('',*,*,#595,.T.);
#800=ORIENTED_EDGE('',*,*,#589,.F.);
#801=ORIENTED_EDGE('',*,*,#548,.T.);
#802=ORIENTED_EDGE('',*,*,#594,.F.);
#803=ORIENTED_EDGE('',*,*,#551,.T.);
#804=ORIENTED_EDGE('',*,*,#591,.F.);
#805=ORIENTED_EDGE('',*,*,#596,.T.);
#806=ORIENTED_EDGE('',*,*,#545,.F.);
#807=ORIENTED_EDGE('',*,*,#549,.T.);
#808=ORIENTED_EDGE('',*,*,#588,.F.);
#809=ORIENTED_EDGE('',*,*,#597,.F.);
#810=ORIENTED_EDGE('',*,*,#598,.F.);
#811=ORIENTED_EDGE('',*,*,#599,.T.);
#812=ORIENTED_EDGE('',*,*,#600,.T.);
#813=ORIENTED_EDGE('',*,*,#601,.F.);
#814=ORIENTED_EDGE('',*,*,#602,.F.);
#815=ORIENTED_EDGE('',*,*,#603,.F.);
#816=ORIENTED_EDGE('',*,*,#590,.F.);
#817=ORIENTED_EDGE('',*,*,#595,.F.);
#818=ORIENTED_EDGE('',*,*,#596,.F.);
#819=ORIENTED_EDGE('',*,*,#593,.F.);
#820=ORIENTED_EDGE('',*,*,#604,.F.);
#821=ORIENTED_EDGE('',*,*,#605,.F.);
#822=ORIENTED_EDGE('',*,*,#606,.F.);
#823=ORIENTED_EDGE('',*,*,#607,.F.);
#824=ORIENTED_EDGE('',*,*,#608,.F.);
#825=ORIENTED_EDGE('',*,*,#609,.F.);
#826=ORIENTED_EDGE('',*,*,#610,.T.);
#827=ORIENTED_EDGE('',*,*,#603,.T.);
#828=ORIENTED_EDGE('',*,*,#608,.T.);
#829=ORIENTED_EDGE('',*,*,#611,.T.);
#830=ORIENTED_EDGE('',*,*,#609,.T.);
#831=ORIENTED_EDGE('',*,*,#602,.T.);
#832=ORIENTED_EDGE('',*,*,#605,.T.);
#833=ORIENTED_EDGE('',*,*,#583,.T.);
#834=ORIENTED_EDGE('',*,*,#612,.T.);
#835=ORIENTED_EDGE('',*,*,#613,.T.);
#836=ORIENTED_EDGE('',*,*,#607,.T.);
#837=ORIENTED_EDGE('',*,*,#582,.T.);
#838=ORIENTED_EDGE('',*,*,#614,.T.);
#839=ORIENTED_EDGE('',*,*,#615,.T.);
#840=ORIENTED_EDGE('',*,*,#606,.T.);
#841=ORIENTED_EDGE('',*,*,#601,.T.);
#842=ORIENTED_EDGE('',*,*,#616,.T.);
#843=ORIENTED_EDGE('',*,*,#584,.T.);
#844=ORIENTED_EDGE('',*,*,#604,.T.);
#845=ORIENTED_EDGE('',*,*,#617,.T.);
#846=ORIENTED_EDGE('',*,*,#611,.F.);
#847=ORIENTED_EDGE('',*,*,#613,.F.);
#848=ORIENTED_EDGE('',*,*,#618,.F.);
#849=ORIENTED_EDGE('',*,*,#598,.T.);
#850=ORIENTED_EDGE('',*,*,#610,.F.);
#851=ORIENTED_EDGE('',*,*,#618,.T.);
#852=ORIENTED_EDGE('',*,*,#612,.F.);
#853=ORIENTED_EDGE('',*,*,#581,.F.);
#854=ORIENTED_EDGE('',*,*,#619,.T.);
#855=ORIENTED_EDGE('',*,*,#531,.T.);
#856=ORIENTED_EDGE('',*,*,#523,.T.);
#857=ORIENTED_EDGE('',*,*,#528,.T.);
#858=ORIENTED_EDGE('',*,*,#620,.F.);
#859=ORIENTED_EDGE('',*,*,#585,.T.);
#860=ORIENTED_EDGE('',*,*,#616,.F.);
#861=ORIENTED_EDGE('',*,*,#621,.T.);
#862=ORIENTED_EDGE('',*,*,#614,.F.);
#863=ORIENTED_EDGE('',*,*,#600,.F.);
#864=ORIENTED_EDGE('',*,*,#622,.T.);
#865=ORIENTED_EDGE('',*,*,#526,.T.);
#866=ORIENTED_EDGE('',*,*,#530,.T.);
#867=ORIENTED_EDGE('',*,*,#533,.T.);
#868=ORIENTED_EDGE('',*,*,#623,.F.);
#869=ORIENTED_EDGE('',*,*,#527,.T.);
#870=ORIENTED_EDGE('',*,*,#622,.F.);
#871=ORIENTED_EDGE('',*,*,#599,.F.);
#872=ORIENTED_EDGE('',*,*,#620,.T.);
#873=ORIENTED_EDGE('',*,*,#532,.T.);
#874=ORIENTED_EDGE('',*,*,#619,.F.);
#875=ORIENTED_EDGE('',*,*,#586,.F.);
#876=ORIENTED_EDGE('',*,*,#623,.T.);
#877=ORIENTED_EDGE('',*,*,#540,.F.);
#878=ORIENTED_EDGE('',*,*,#597,.T.);
#879=ORIENTED_EDGE('',*,*,#592,.F.);
#880=ORIENTED_EDGE('',*,*,#550,.F.);
#881=ORIENTED_EDGE('',*,*,#558,.F.);
#882=ORIENTED_EDGE('',*,*,#624,.T.);
#883=ORIENTED_EDGE('',*,*,#579,.F.);
#884=ORIENTED_EDGE('',*,*,#568,.F.);
#885=ORIENTED_EDGE('',*,*,#563,.F.);
#886=ORIENTED_EDGE('',*,*,#567,.T.);
#887=ORIENTED_EDGE('',*,*,#575,.F.);
#888=ORIENTED_EDGE('',*,*,#624,.F.);
#889=ORIENTED_EDGE('',*,*,#615,.F.);
#890=ORIENTED_EDGE('',*,*,#621,.F.);
#891=ORIENTED_EDGE('',*,*,#617,.F.);
#892=ORIENTED_EDGE('',*,*,#493,.F.);
#893=ORIENTED_EDGE('',*,*,#570,.T.);
#894=ORIENTED_EDGE('',*,*,#518,.F.);
#895=ORIENTED_EDGE('',*,*,#516,.F.);
#896=ORIENTED_EDGE('',*,*,#496,.F.);
#897=SPHERICAL_SURFACE('',#973,0.5);
#898=SPHERICAL_SURFACE('',#981,0.5);
#899=SPHERICAL_SURFACE('',#1060,0.5);
#900=SPHERICAL_SURFACE('',#1064,0.5);
#901=ADVANCED_FACE('',(#241),#897,.T.);
#902=ADVANCED_FACE('',(#242),#215,.T.);
#903=ADVANCED_FACE('',(#243),#216,.T.);
#904=ADVANCED_FACE('',(#244),#898,.T.);
#905=ADVANCED_FACE('',(#245),#217,.T.);
#906=ADVANCED_FACE('',(#246),#218,.T.);
#907=ADVANCED_FACE('',(#247),#219,.T.);
#908=ADVANCED_FACE('',(#248),#220,.T.);
#909=ADVANCED_FACE('',(#249),#221,.T.);
#910=ADVANCED_FACE('',(#250),#222,.T.);
#911=ADVANCED_FACE('',(#251),#223,.T.);
#912=ADVANCED_FACE('',(#252),#27,.T.);
#913=ADVANCED_FACE('',(#253),#28,.F.);
#914=ADVANCED_FACE('',(#254),#29,.T.);
#915=ADVANCED_FACE('',(#255),#30,.F.);
#916=ADVANCED_FACE('',(#256),#31,.T.);
#917=ADVANCED_FACE('',(#257),#19,.T.);
#918=ADVANCED_FACE('',(#258),#224,.T.);
#919=ADVANCED_FACE('',(#259),#225,.T.);
#920=ADVANCED_FACE('',(#260),#20,.T.);
#921=ADVANCED_FACE('',(#261),#32,.F.);
#922=ADVANCED_FACE('',(#262),#226,.F.);
#923=ADVANCED_FACE('',(#263,#15),#33,.T.);
#924=ADVANCED_FACE('',(#264),#21,.T.);
#925=ADVANCED_FACE('',(#265),#227,.T.);
#926=ADVANCED_FACE('',(#266),#228,.T.);
#927=ADVANCED_FACE('',(#267),#22,.T.);
#928=ADVANCED_FACE('',(#268),#34,.F.);
#929=ADVANCED_FACE('',(#269),#229,.F.);
#930=ADVANCED_FACE('',(#270,#16),#35,.T.);
#931=ADVANCED_FACE('',(#271),#230,.T.);
#932=ADVANCED_FACE('',(#272),#23,.T.);
#933=ADVANCED_FACE('',(#273),#24,.T.);
#934=ADVANCED_FACE('',(#274),#231,.T.);
#935=ADVANCED_FACE('',(#275,#17),#36,.F.);
#936=ADVANCED_FACE('',(#276),#25,.T.);
#937=ADVANCED_FACE('',(#277),#232,.T.);
#938=ADVANCED_FACE('',(#278),#233,.T.);
#939=ADVANCED_FACE('',(#279),#26,.T.);
#940=ADVANCED_FACE('',(#280),#234,.F.);
#941=ADVANCED_FACE('',(#281,#18),#37,.F.);
#942=ADVANCED_FACE('',(#282),#899,.F.);
#943=ADVANCED_FACE('',(#283),#900,.F.);
#944=ADVANCED_FACE('',(#284),#235,.F.);
#945=ADVANCED_FACE('',(#285),#236,.F.);
#946=ADVANCED_FACE('',(#286),#237,.F.);
#947=ADVANCED_FACE('',(#287),#238,.F.);
#948=ADVANCED_FACE('',(#288),#239,.F.);
#949=ADVANCED_FACE('',(#289),#38,.T.);
#950=ADVANCED_FACE('',(#290),#39,.T.);
#951=ADVANCED_FACE('',(#291),#40,.T.);
#952=ADVANCED_FACE('',(#292),#41,.T.);
#953=ADVANCED_FACE('',(#293),#42,.T.);
#954=ADVANCED_FACE('',(#294),#43,.F.);
#955=ADVANCED_FACE('',(#295),#44,.F.);
#956=ADVANCED_FACE('',(#296),#240,.F.);
#957=ADVANCED_FACE('',(#297),#45,.T.);
#958=ADVANCED_FACE('',(#298),#46,.F.);
#959=CLOSED_SHELL('',(#901,#902,#903,#904,#905,#906,#907,#908,#909,#910,
#911,#912,#913,#914,#915,#916,#917,#918,#919,#920,#921,#922,#923,#924,#925,
#926,#927,#928,#929,#930,#931,#932,#933,#934,#935,#936,#937,#938,#939,#940,
#941,#942,#943,#944,#945,#946,#947,#948,#949,#950,#951,#952,#953,#954,#955,
#956,#957,#958));
#960=DERIVED_UNIT_ELEMENT(#962,1.);
#961=DERIVED_UNIT_ELEMENT(#1677,-3.);
#962=(
MASS_UNIT()
NAMED_UNIT(*)
SI_UNIT(.KILO.,.GRAM.)
);
#963=DERIVED_UNIT((#960,#961));
#964=MEASURE_REPRESENTATION_ITEM('density measure',
POSITIVE_RATIO_MEASURE(2700.),#963);
#965=PROPERTY_DEFINITION_REPRESENTATION(#970,#967);
#966=PROPERTY_DEFINITION_REPRESENTATION(#971,#968);
#967=REPRESENTATION('material name',(#969),#1674);
#968=REPRESENTATION('density',(#964),#1674);
#969=DESCRIPTIVE_REPRESENTATION_ITEM('Aluminum 6061','Aluminum 6061');
#970=PROPERTY_DEFINITION('material property','material name',#1684);
#971=PROPERTY_DEFINITION('material property','density of part',#1684);
#972=AXIS2_PLACEMENT_3D('',#1397,#1087,#1088);
#973=AXIS2_PLACEMENT_3D('',#1398,#1089,#1090);
#974=AXIS2_PLACEMENT_3D('',#1401,#1091,#1092);
#975=AXIS2_PLACEMENT_3D('',#1403,#1093,#1094);
#976=AXIS2_PLACEMENT_3D('',#1404,#1095,#1096);
#977=AXIS2_PLACEMENT_3D('',#1405,#1097,#1098);
#978=AXIS2_PLACEMENT_3D('',#1408,#1099,#1100);
#979=AXIS2_PLACEMENT_3D('',#1411,#1103,#1104);
#980=AXIS2_PLACEMENT_3D('',#1416,#1107,#1108);
#981=AXIS2_PLACEMENT_3D('',#1417,#1109,#1110);
#982=AXIS2_PLACEMENT_3D('',#1420,#1111,#1112);
#983=AXIS2_PLACEMENT_3D('',#1422,#1113,#1114);
#984=AXIS2_PLACEMENT_3D('',#1423,#1115,#1116);
#985=AXIS2_PLACEMENT_3D('',#1424,#1117,#1118);
#986=AXIS2_PLACEMENT_3D('',#1427,#1121,#1122);
#987=AXIS2_PLACEMENT_3D('',#1432,#1124,#1125);
#988=AXIS2_PLACEMENT_3D('',#1435,#1127,#1128);
#989=AXIS2_PLACEMENT_3D('',#1436,#1129,#1130);
#990=AXIS2_PLACEMENT_3D('',#1441,#1133,#1134);
#991=AXIS2_PLACEMENT_3D('',#1442,#1135,#1136);
#992=AXIS2_PLACEMENT_3D('',#1445,#1139,#1140);
#993=AXIS2_PLACEMENT_3D('',#1448,#1141,#1142);
#994=AXIS2_PLACEMENT_3D('',#1451,#1145,#1146);
#995=AXIS2_PLACEMENT_3D('',#1456,#1149,#1150);
#996=AXIS2_PLACEMENT_3D('',#1457,#1151,#1152);
#997=AXIS2_PLACEMENT_3D('',#1461,#1154,#1155);
#998=AXIS2_PLACEMENT_3D('',#1463,#1157,#1158);
#999=AXIS2_PLACEMENT_3D('',#1465,#1160,#1161);
#1000=AXIS2_PLACEMENT_3D('',#1471,#1165,#1166);
#1001=AXIS2_PLACEMENT_3D('',#1479,#1171,#1172);
#1002=AXIS2_PLACEMENT_3D('',#1483,#1175,#1176);
#1003=AXIS2_PLACEMENT_3D('',#1490,#1181,#1182);
#1004=AXIS2_PLACEMENT_3D('',#1493,#1183,#1184);
#1005=AXIS2_PLACEMENT_3D('',#1495,#1185,#1186);
#1006=AXIS2_PLACEMENT_3D('',#1497,#1187,#1188);
#1007=AXIS2_PLACEMENT_3D('',#1498,#1189,#1190);
#1008=AXIS2_PLACEMENT_3D('',#1499,#1191,#1192);
#1009=AXIS2_PLACEMENT_3D('',#1502,#1193,#1194);
#1010=AXIS2_PLACEMENT_3D('',#1505,#1197,#1198);
#1011=AXIS2_PLACEMENT_3D('',#1508,#1199,#1200);
#1012=AXIS2_PLACEMENT_3D('',#1511,#1203,#1204);
#1013=AXIS2_PLACEMENT_3D('',#1512,#1205,#1206);
#1014=AXIS2_PLACEMENT_3D('',#1513,#1207,#1208);
#1015=AXIS2_PLACEMENT_3D('',#1514,#1209,#1210);
#1016=AXIS2_PLACEMENT_3D('',#1520,#1214,#1215);
#1017=AXIS2_PLACEMENT_3D('',#1523,#1217,#1218);
#1018=AXIS2_PLACEMENT_3D('',#1524,#1219,#1220);
#1019=AXIS2_PLACEMENT_3D('',#1526,#1222,#1223);
#1020=AXIS2_PLACEMENT_3D('',#1529,#1224,#1225);
#1021=AXIS2_PLACEMENT_3D('',#1531,#1226,#1227);
#1022=AXIS2_PLACEMENT_3D('',#1533,#1228,#1229);
#1023=AXIS2_PLACEMENT_3D('',#1534,#1230,#1231);
#1024=AXIS2_PLACEMENT_3D('',#1535,#1232,#1233);
#1025=AXIS2_PLACEMENT_3D('',#1538,#1234,#1235);
#1026=AXIS2_PLACEMENT_3D('',#1541,#1238,#1239);
#1027=AXIS2_PLACEMENT_3D('',#1544,#1240,#1241);
#1028=AXIS2_PLACEMENT_3D('',#1547,#1244,#1245);
#1029=AXIS2_PLACEMENT_3D('',#1548,#1246,#1247);
#1030=AXIS2_PLACEMENT_3D('',#1549,#1248,#1249);
#1031=AXIS2_PLACEMENT_3D('',#1550,#1250,#1251);
#1032=AXIS2_PLACEMENT_3D('',#1556,#1255,#1256);
#1033=AXIS2_PLACEMENT_3D('',#1559,#1258,#1259);
#1034=AXIS2_PLACEMENT_3D('',#1560,#1260,#1261);
#1035=AXIS2_PLACEMENT_3D('',#1562,#1263,#1264);
#1036=AXIS2_PLACEMENT_3D('',#1564,#1265,#1266);
#1037=AXIS2_PLACEMENT_3D('',#1566,#1267,#1268);
#1038=AXIS2_PLACEMENT_3D('',#1568,#1270,#1271);
#1039=AXIS2_PLACEMENT_3D('',#1571,#1272,#1273);
#1040=AXIS2_PLACEMENT_3D('',#1572,#1274,#1275);
#1041=AXIS2_PLACEMENT_3D('',#1573,#1276,#1277);
#1042=AXIS2_PLACEMENT_3D('',#1574,#1278,#1279);
#1043=AXIS2_PLACEMENT_3D('',#1576,#1280,#1281);
#1044=AXIS2_PLACEMENT_3D('',#1577,#1282,#1283);
#1045=AXIS2_PLACEMENT_3D('',#1578,#1284,#1285);
#1046=AXIS2_PLACEMENT_3D('',#1581,#1288,#1289);
#1047=AXIS2_PLACEMENT_3D('',#1594,#1296,#1297);
#1048=AXIS2_PLACEMENT_3D('',#1597,#1298,#1299);
#1049=AXIS2_PLACEMENT_3D('',#1598,#1300,#1301);
#1050=AXIS2_PLACEMENT_3D('',#1600,#1302,#1303);
#1051=AXIS2_PLACEMENT_3D('',#1601,#1304,#1305);
#1052=AXIS2_PLACEMENT_3D('',#1602,#1306,#1307);
#1053=AXIS2_PLACEMENT_3D('',#1604,#1308,#1309);
#1054=AXIS2_PLACEMENT_3D('',#1607,#1312,#1313);
#1055=AXIS2_PLACEMENT_3D('',#1609,#1314,#1315);
#1056=AXIS2_PLACEMENT_3D('',#1611,#1317,#1318);
#1057=AXIS2_PLACEMENT_3D('',#1612,#1319,#1320);
#1058=AXIS2_PLACEMENT_3D('',#1613,#1321,#1322);
#1059=AXIS2_PLACEMENT_3D('',#1615,#1324,#1325);
#1060=AXIS2_PLACEMENT_3D('',#1628,#1332,#1333);
#1061=AXIS2_PLACEMENT_3D('',#1630,#1334,#1335);
#1062=AXIS2_PLACEMENT_3D('',#1631,#1336,#1337);
#1063=AXIS2_PLACEMENT_3D('',#1632,#1338,#1339);
#1064=AXIS2_PLACEMENT_3D('',#1633,#1340,#1341);
#1065=AXIS2_PLACEMENT_3D('',#1635,#1342,#1343);
#1066=AXIS2_PLACEMENT_3D('',#1636,#1344,#1345);
#1067=AXIS2_PLACEMENT_3D('',#1637,#1346,#1347);
#1068=AXIS2_PLACEMENT_3D('',#1638,#1348,#1349);
#1069=AXIS2_PLACEMENT_3D('',#1640,#1350,#1351);
#1070=AXIS2_PLACEMENT_3D('',#1642,#1353,#1354);
#1071=AXIS2_PLACEMENT_3D('',#1643,#1355,#1356);
#1072=AXIS2_PLACEMENT_3D('',#1645,#1357,#1358);
#1073=AXIS2_PLACEMENT_3D('',#1647,#1360,#1361);
#1074=AXIS2_PLACEMENT_3D('',#1649,#1362,#1363);
#1075=AXIS2_PLACEMENT_3D('',#1651,#1365,#1366);
#1076=AXIS2_PLACEMENT_3D('',#1653,#1367,#1368);
#1077=AXIS2_PLACEMENT_3D('',#1655,#1370,#1371);
#1078=AXIS2_PLACEMENT_3D('',#1657,#1373,#1374);
#1079=AXIS2_PLACEMENT_3D('',#1660,#1377,#1378);
#1080=AXIS2_PLACEMENT_3D('',#1664,#1382,#1383);
#1081=AXIS2_PLACEMENT_3D('',#1665,#1384,#1385);
#1082=AXIS2_PLACEMENT_3D('',#1666,#1386,#1387);
#1083=AXIS2_PLACEMENT_3D('',#1667,#1388,#1389);
#1084=AXIS2_PLACEMENT_3D('',#1669,#1391,#1392);
#1085=AXIS2_PLACEMENT_3D('',#1670,#1393,#1394);
#1086=AXIS2_PLACEMENT_3D('',#1671,#1395,#1396);
#1087=DIRECTION('axis',(0.,0.,1.));
#1088=DIRECTION('refdir',(1.,0.,0.));
#1089=DIRECTION('center_axis',(-0.816496580927726,-0.408248290463863,-0.408248290463863));
#1090=DIRECTION('ref_axis',(0.577350269189626,-0.577350269189626,-0.577350269189625));
#1091=DIRECTION('center_axis',(0.,0.,-1.));
#1092=DIRECTION('ref_axis',(0.,-1.,0.));
#1093=DIRECTION('center_axis',(1.,0.,0.));
#1094=DIRECTION('ref_axis',(0.,0.,-1.));
#1095=DIRECTION('center_axis',(0.,-1.,0.));
#1096=DIRECTION('ref_axis',(1.,0.,0.));
#1097=DIRECTION('center_axis',(-1.,0.,0.));
#1098=DIRECTION('ref_axis',(0.,-0.707106781186548,-0.707106781186547));
#1099=DIRECTION('center_axis',(1.,0.,0.));
#1100=DIRECTION('ref_axis',(0.,-0.707106781186548,-0.707106781186547));
#1101=DIRECTION('',(1.,0.,0.));
#1102=DIRECTION('',(-1.,0.,0.));
#1103=DIRECTION('center_axis',(0.,-1.,0.));
#1104=DIRECTION('ref_axis',(0.707106781186548,0.,-0.707106781186547));
#1105=DIRECTION('',(0.,-1.,0.));
#1106=DIRECTION('',(0.,1.,0.));
#1107=DIRECTION('center_axis',(0.382683432365087,-0.923879532511288,2.05142465794792E-15));
#1108=DIRECTION('ref_axis',(0.923879532511288,0.382683432365087,4.95257723140449E-15));
#1109=DIRECTION('center_axis',(-0.408248290463862,-0.816496580927725,-0.408248290463866));
#1110=DIRECTION('ref_axis',(0.577350269189625,-0.577350269189625,0.577350269189628));
#1111=DIRECTION('center_axis',(1.,0.,0.));
#1112=DIRECTION('ref_axis',(0.,-1.,0.));
#1113=DIRECTION('center_axis',(0.,0.,1.));
#1114=DIRECTION('ref_axis',(1.,0.,0.));
#1115=DIRECTION('center_axis',(0.,-1.,0.));
#1116=DIRECTION('ref_axis',(0.,0.,1.));
#1117=DIRECTION('center_axis',(0.,0.,1.));
#1118=DIRECTION('ref_axis',(0.707106781186548,-0.707106781186548,0.));
#1119=DIRECTION('',(0.,0.,-1.));
#1120=DIRECTION('',(0.,0.,1.));
#1121=DIRECTION('center_axis',(-1.,0.,0.));
#1122=DIRECTION('ref_axis',(0.,0.707106781186546,0.707106781186549));
#1123=DIRECTION('',(-1.,0.,0.));
#1124=DIRECTION('center_axis',(1.,0.,0.));
#1125=DIRECTION('ref_axis',(0.,0.707106781186546,0.707106781186549));
#1126=DIRECTION('',(1.,0.,0.));
#1127=DIRECTION('center_axis',(-0.923879532511287,0.38268343236509,-5.80230514691305E-15));
#1128=DIRECTION('ref_axis',(0.38268343236509,0.923879532511287,-1.40080037787047E-14));
#1129=DIRECTION('center_axis',(-0.707106781186548,0.707106781186547,0.));
#1130=DIRECTION('ref_axis',(0.5,0.500000000000002,0.707106781186547));
#1131=DIRECTION('',(-0.707106781186548,0.707106781186547,0.));
#1132=DIRECTION('',(0.707106781186548,-0.707106781186547,0.));
#1133=DIRECTION('center_axis',(-0.38268343236509,0.923879532511287,2.05142465794792E-15));
#1134=DIRECTION('ref_axis',(0.923879532511287,0.38268343236509,4.95257723140446E-15));
#1135=DIRECTION('center_axis',(0.,1.,0.));
#1136=DIRECTION('ref_axis',(0.707106781186546,0.,0.707106781186549));
#1137=DIRECTION('',(0.,-1.,0.));
#1138=DIRECTION('',(0.,1.,0.));
#1139=DIRECTION('center_axis',(1.,0.,0.));
#1140=DIRECTION('ref_axis',(0.,-0.707106781186546,0.707106781186549));
#1141=DIRECTION('center_axis',(1.,0.,0.));
#1142=DIRECTION('ref_axis',(0.,-0.707106781186546,0.707106781186549));
#1143=DIRECTION('',(1.,0.,0.));
#1144=DIRECTION('',(-1.,0.,0.));
#1145=DIRECTION('center_axis',(0.707106781186548,-0.707106781186547,0.));
#1146=DIRECTION('ref_axis',(0.499999999999999,0.500000000000001,-0.707106781186547));
#1147=DIRECTION('',(0.707106781186548,-0.707106781186547,0.));
#1148=DIRECTION('',(-0.707106781186548,0.707106781186547,0.));
#1149=DIRECTION('center_axis',(0.923879532511284,-0.382683432365097,0.));
#1150=DIRECTION('ref_axis',(0.382683432365097,0.923879532511284,0.));
#1151=DIRECTION('center_axis',(1.,0.,0.));
#1152=DIRECTION('ref_axis',(0.,0.707106781186548,-0.707106781186547));
#1153=DIRECTION('',(-1.,0.,0.));
#1154=DIRECTION('center_axis',(1.,0.,0.));
#1155=DIRECTION('ref_axis',(0.,0.707106781186548,-0.707106781186547));
#1156=DIRECTION('',(1.,0.,0.));
#1157=DIRECTION('center_axis',(0.,0.,1.));
#1158=DIRECTION('ref_axis',(1.,0.,0.));
#1159=DIRECTION('',(0.,-1.,0.));
#1160=DIRECTION('center_axis',(-0.707106781186547,-0.707106781186548,0.));
#1161=DIRECTION('ref_axis',(-0.707106781186548,0.707106781186547,0.));
#1162=DIRECTION('',(0.,0.,1.));
#1163=DIRECTION('',(0.707106781186548,-0.707106781186547,0.));
#1164=DIRECTION('',(0.,0.,-1.));
#1165=DIRECTION('center_axis',(1.,0.,0.));
#1166=DIRECTION('ref_axis',(0.,1.,0.));
#1167=DIRECTION('',(0.,0.,1.));
#1168=DIRECTION('',(0.,0.816496580927727,-0.577350269189625));
#1169=DIRECTION('',(0.,0.,-1.));
#1170=DIRECTION('',(0.,-0.816496580927728,-0.577350269189623));
#1171=DIRECTION('center_axis',(-0.707106781186547,-0.707106781186548,0.));
#1172=DIRECTION('ref_axis',(-0.707106781186548,0.707106781186547,0.));
#1173=DIRECTION('',(0.,0.,-1.));
#1174=DIRECTION('',(-0.707106781186548,0.707106781186547,0.));
#1175=DIRECTION('center_axis',(0.,1.,0.));
#1176=DIRECTION('ref_axis',(-1.,0.,0.));
#1177=DIRECTION('',(0.816496580927728,0.,0.577350269189623));
#1178=DIRECTION('',(0.,0.,1.));
#1179=DIRECTION('',(-0.816496580927727,0.,0.577350269189625));
#1180=DIRECTION('',(0.,0.,1.));
#1181=DIRECTION('center_axis',(0.,-1.,0.));
#1182=DIRECTION('ref_axis',(-1.,0.,0.));
#1183=DIRECTION('center_axis',(-1.,0.,0.));
#1184=DIRECTION('ref_axis',(0.,-1.,0.));
#1185=DIRECTION('center_axis',(0.,1.,0.));
#1186=DIRECTION('ref_axis',(1.,0.,0.));
#1187=DIRECTION('center_axis',(-1.,0.,0.));
#1188=DIRECTION('ref_axis',(0.,0.,-1.));
#1189=DIRECTION('center_axis',(0.,-1.,0.));
#1190=DIRECTION('ref_axis',(1.,0.,0.));
#1191=DIRECTION('center_axis',(-1.,0.,0.));
#1192=DIRECTION('ref_axis',(0.,-1.,0.));
#1193=DIRECTION('center_axis',(-1.,2.22044604925031E-14,-2.22044604925031E-14));
#1194=DIRECTION('ref_axis',(-2.22044604925031E-14,-1.,0.));
#1195=DIRECTION('',(-1.,0.,0.));
#1196=DIRECTION('',(1.,0.,0.));
#1197=DIRECTION('center_axis',(-1.,0.,0.));
#1198=DIRECTION('ref_axis',(0.,0.,-1.));
#1199=DIRECTION('center_axis',(-1.,1.11022302462516E-14,9.99200722162644E-15));
#1200=DIRECTION('ref_axis',(-9.99200722162645E-15,0.,-1.));
#1201=DIRECTION('',(-1.,0.,0.));
#1202=DIRECTION('',(1.,0.,0.));
#1203=DIRECTION('center_axis',(0.,-1.,0.));
#1204=DIRECTION('ref_axis',(-3.52838002346625E-15,0.,1.));
#1205=DIRECTION('center_axis',(0.,1.,0.));
#1206=DIRECTION('ref_axis',(-3.56109272049578E-15,0.,1.));
#1207=DIRECTION('center_axis',(0.,-1.,0.));
#1208=DIRECTION('ref_axis',(-3.52451753849256E-15,0.,1.));
#1209=DIRECTION('center_axis',(0.,0.,1.));
#1210=DIRECTION('ref_axis',(1.,0.,0.));
#1211=DIRECTION('',(0.,1.,0.));
#1212=DIRECTION('',(-1.,0.,0.));
#1213=DIRECTION('',(0.,1.,0.));
#1214=DIRECTION('center_axis',(0.,1.,0.));
#1215=DIRECTION('ref_axis',(0.,0.,1.));
#1216=DIRECTION('',(0.,1.,0.));
#1217=DIRECTION('center_axis',(0.,-1.,0.));
#1218=DIRECTION('ref_axis',(3.56109272049579E-15,0.,1.));
#1219=DIRECTION('center_axis',(0.,-1.,0.));
#1220=DIRECTION('ref_axis',(1.,0.,0.));
#1221=DIRECTION('',(0.,0.,1.));
#1222=DIRECTION('center_axis',(-1.,0.,0.));
#1223=DIRECTION('ref_axis',(0.,1.,0.));
#1224=DIRECTION('center_axis',(2.22044604925031E-15,1.,-2.22044604925031E-15));
#1225=DIRECTION('ref_axis',(-1.,2.22044604925031E-15,0.));
#1226=DIRECTION('center_axis',(1.,0.,0.));
#1227=DIRECTION('ref_axis',(0.,-1.,0.));
#1228=DIRECTION('center_axis',(-2.22044604925031E-15,1.,-2.22044604925031E-15));
#1229=DIRECTION('ref_axis',(0.,-2.22044604925031E-15,-1.));
#1230=DIRECTION('center_axis',(-1.,0.,0.));
#1231=DIRECTION('ref_axis',(0.,-1.,0.));
#1232=DIRECTION('center_axis',(0.,1.,0.));
#1233=DIRECTION('ref_axis',(-1.,0.,0.));
#1234=DIRECTION('center_axis',(2.22044604925031E-14,1.,-2.22044604925031E-14));
#1235=DIRECTION('ref_axis',(-1.,2.22044604925031E-14,0.));
#1236=DIRECTION('',(0.,1.,0.));
#1237=DIRECTION('',(0.,-1.,0.));
#1238=DIRECTION('center_axis',(0.,1.,0.));
#1239=DIRECTION('ref_axis',(0.,0.,-1.));
#1240=DIRECTION('center_axis',(1.11022302462516E-14,1.,9.9920072216264E-15));
#1241=DIRECTION('ref_axis',(0.,9.9920072216264E-15,-1.));
#1242=DIRECTION('',(0.,1.,0.));
#1243=DIRECTION('',(0.,-1.,0.));
#1244=DIRECTION('center_axis',(-1.,0.,0.));
#1245=DIRECTION('ref_axis',(0.,2.99626454838596E-15,1.));
#1246=DIRECTION('center_axis',(1.,0.,0.));
#1247=DIRECTION('ref_axis',(0.,2.99583990771868E-15,1.));
#1248=DIRECTION('center_axis',(-1.,0.,0.));
#1249=DIRECTION('ref_axis',(0.,3.04170691678125E-15,1.));
#1250=DIRECTION('center_axis',(0.,0.,1.));
#1251=DIRECTION('ref_axis',(0.,-1.,0.));
#1252=DIRECTION('',(1.,0.,0.));
#1253=DIRECTION('',(0.,1.,0.));
#1254=DIRECTION('',(1.,0.,0.));
#1255=DIRECTION('center_axis',(1.,0.,0.));
#1256=DIRECTION('ref_axis',(0.,0.,1.));
#1257=DIRECTION('',(1.,0.,0.));
#1258=DIRECTION('center_axis',(-1.,0.,0.));
#1259=DIRECTION('ref_axis',(0.,-5.28677630773884E-16,-1.));
#1260=DIRECTION('center_axis',(-1.,0.,0.));
#1261=DIRECTION('ref_axis',(0.,-1.,0.));
#1262=DIRECTION('',(0.,1.,0.));
#1263=DIRECTION('center_axis',(0.,1.,0.));
#1264=DIRECTION('ref_axis',(1.,0.,0.));
#1265=DIRECTION('center_axis',(-6.66133814775093E-15,1.,7.77156117237609E-15));
#1266=DIRECTION('ref_axis',(1.,6.66133814775093E-15,0.));
#1267=DIRECTION('center_axis',(-4.44089209850062E-15,-1.,3.33066907387547E-15));
#1268=DIRECTION('ref_axis',(0.,-3.33066907387547E-15,-1.));
#1269=DIRECTION('',(0.,-1.,0.));
#1270=DIRECTION('center_axis',(1.,0.,0.));
#1271=DIRECTION('ref_axis',(0.,1.17710392972306E-15,-1.));
#1272=DIRECTION('center_axis',(0.,-1.,0.));
#1273=DIRECTION('ref_axis',(1.,0.,0.));
#1274=DIRECTION('center_axis',(-1.,0.,0.));
#1275=DIRECTION('ref_axis',(0.,1.2335811384724E-15,-1.));
#1276=DIRECTION('center_axis',(1.,0.,0.));
#1277=DIRECTION('ref_axis',(0.,1.2166827667125E-15,-1.));
#1278=DIRECTION('center_axis',(1.,0.,0.));
#1279=DIRECTION('ref_axis',(0.,-5.35047240783208E-16,-1.));
#1280=DIRECTION('center_axis',(0.,1.,0.));
#1281=DIRECTION('ref_axis',(0.,0.,1.));
#1282=DIRECTION('center_axis',(1.,0.,0.));
#1283=DIRECTION('ref_axis',(0.,-4.56256037517188E-16,-1.));
#1284=DIRECTION('center_axis',(0.,-1.,0.));
#1285=DIRECTION('ref_axis',(1.,0.,0.));
#1286=DIRECTION('',(0.,-1.,0.));
#1287=DIRECTION('',(0.,1.,0.));
#1288=DIRECTION('center_axis',(-1.,0.,0.));
#1289=DIRECTION('ref_axis',(0.,0.,1.));
#1290=DIRECTION('',(0.,-0.816496580927728,-0.577350269189623));
#1291=DIRECTION('',(0.,1.,0.));
#1292=DIRECTION('',(0.,0.,1.));
#1293=DIRECTION('',(0.,-1.,0.));
#1294=DIRECTION('',(0.,0.816496580927727,-0.577350269189625));
#1295=DIRECTION('',(0.,0.,1.));
#1296=DIRECTION('center_axis',(0.,1.,0.));
#1297=DIRECTION('ref_axis',(1.,0.,0.));
#1298=DIRECTION('center_axis',(1.,0.,0.));
#1299=DIRECTION('ref_axis',(0.,1.,0.));
#1300=DIRECTION('center_axis',(0.,-1.,0.));
#1301=DIRECTION('ref_axis',(-1.,0.,0.));
#1302=DIRECTION('center_axis',(1.,0.,0.));
#1303=DIRECTION('ref_axis',(0.,0.,-1.));
#1304=DIRECTION('center_axis',(0.,1.,0.));
#1305=DIRECTION('ref_axis',(-1.,0.,0.));
#1306=DIRECTION('center_axis',(1.,0.,0.));
#1307=DIRECTION('ref_axis',(0.,1.,0.));
#1308=DIRECTION('center_axis',(1.,-2.22044604925031E-14,-2.22044604925031E-14));
#1309=DIRECTION('ref_axis',(2.22044604925031E-14,1.,0.));
#1310=DIRECTION('',(1.,0.,0.));
#1311=DIRECTION('',(-1.,0.,0.));
#1312=DIRECTION('center_axis',(1.,0.,0.));
#1313=DIRECTION('ref_axis',(0.,0.,-1.));
#1314=DIRECTION('center_axis',(1.,0.,0.));
#1315=DIRECTION('ref_axis',(0.,0.,-1.));
#1316=DIRECTION('',(1.,0.,0.));
#1317=DIRECTION('center_axis',(0.,1.,0.));
#1318=DIRECTION('ref_axis',(3.52838002346625E-15,0.,1.));
#1319=DIRECTION('center_axis',(0.,1.,0.));
#1320=DIRECTION('ref_axis',(3.52451753849256E-15,0.,1.));
#1321=DIRECTION('center_axis',(0.,1.,0.));
#1322=DIRECTION('ref_axis',(0.,0.,-1.));
#1323=DIRECTION('',(0.,1.,0.));
#1324=DIRECTION('center_axis',(0.,-1.,0.));
#1325=DIRECTION('ref_axis',(0.,0.,1.));
#1326=DIRECTION('',(0.816496580927728,0.,0.577350269189623));
#1327=DIRECTION('',(0.,0.,-1.));
#1328=DIRECTION('',(-0.816496580927727,0.,0.577350269189625));
#1329=DIRECTION('',(1.,0.,0.));
#1330=DIRECTION('',(0.,0.,-1.));
#1331=DIRECTION('',(-1.,0.,0.));
#1332=DIRECTION('center_axis',(-0.816496580927726,0.408248290463863,0.408248290463863));
#1333=DIRECTION('ref_axis',(-0.577350269189626,-0.577350269189626,-0.577350269189626));
#1334=DIRECTION('center_axis',(0.,1.,0.));
#1335=DIRECTION('ref_axis',(-1.,0.,0.));
#1336=DIRECTION('center_axis',(0.,0.,1.));
#1337=DIRECTION('ref_axis',(0.,-1.,0.));
#1338=DIRECTION('center_axis',(1.,0.,0.));
#1339=DIRECTION('ref_axis',(0.,0.,-1.));
#1340=DIRECTION('center_axis',(0.40824829046386,-0.816496580927726,-0.408248290463866));
#1341=DIRECTION('ref_axis',(-0.577350269189625,-0.577350269189625,0.577350269189628));
#1342=DIRECTION('center_axis',(0.,1.,0.));
#1343=DIRECTION('ref_axis',(0.,0.,1.));
#1344=DIRECTION('center_axis',(1.,0.,0.));
#1345=DIRECTION('ref_axis',(0.,-1.,0.));
#1346=DIRECTION('center_axis',(0.,0.,-1.));
#1347=DIRECTION('ref_axis',(-1.,0.,0.));
#1348=DIRECTION('center_axis',(1.,0.,0.));
#1349=DIRECTION('ref_axis',(0.,-0.707106781186546,0.707106781186549));
#1350=DIRECTION('center_axis',(0.499999999999998,0.499999999999998,-0.70710678118655));
#1351=DIRECTION('ref_axis',(0.86602540378444,-0.28867513459481,0.408248290463862));
#1352=DIRECTION('',(1.,0.,0.));
#1353=DIRECTION('center_axis',(0.,0.,1.));
#1354=DIRECTION('ref_axis',(-0.707106781186548,-0.707106781186548,0.));
#1355=DIRECTION('center_axis',(0.,-1.,0.));
#1356=DIRECTION('ref_axis',(-0.707106781186546,0.,0.707106781186549));
#1357=DIRECTION('center_axis',(0.499999999999998,0.499999999999998,-0.70710678118655));
#1358=DIRECTION('ref_axis',(-0.28867513459481,0.86602540378444,0.408248290463863));
#1359=DIRECTION('',(0.,-1.,0.));
#1360=DIRECTION('center_axis',(-1.,0.,0.));
#1361=DIRECTION('ref_axis',(0.,-0.707106781186548,-0.707106781186548));
#1362=DIRECTION('center_axis',(0.499999999999999,0.499999999999999,0.707106781186549));
#1363=DIRECTION('ref_axis',(0.866025403784439,-0.288675134594812,-0.408248290463863));
#1364=DIRECTION('',(-1.,0.,0.));
#1365=DIRECTION('center_axis',(0.,1.,0.));
#1366=DIRECTION('ref_axis',(-0.707106781186548,0.,-0.707106781186548));
#1367=DIRECTION('center_axis',(0.499999999999999,0.499999999999999,0.707106781186549));
#1368=DIRECTION('ref_axis',(-0.288675134594812,0.866025403784439,-0.408248290463863));
#1369=DIRECTION('',(0.,1.,0.));
#1370=DIRECTION('center_axis',(0.,0.,-1.));
#1371=DIRECTION('ref_axis',(-1.,0.,0.));
#1372=DIRECTION('',(-0.707106781186548,0.707106781186547,0.));
#1373=DIRECTION('center_axis',(0.499999999999998,0.499999999999998,-0.70710678118655));
#1374=DIRECTION('ref_axis',(-0.816496580927728,0.,-0.577350269189623));
#1375=DIRECTION('',(0.707106781186547,-0.707106781186547,-1.57009245868377E-16));
#1376=DIRECTION('',(0.707106781186548,-0.707106781186548,-1.57009245868377E-16));
#1377=DIRECTION('center_axis',(0.499999999999999,0.499999999999999,0.707106781186549));
#1378=DIRECTION('ref_axis',(0.816496580927727,0.,-0.577350269189625));
#1379=DIRECTION('',(0.707106781186548,-0.707106781186547,0.));
#1380=DIRECTION('',(-0.707106781186548,0.707106781186548,-1.57009245868377E-16));
#1381=DIRECTION('',(-0.707106781186548,0.707106781186548,-1.57009245868377E-16));
#1382=DIRECTION('center_axis',(0.707106781186548,0.707106781186548,0.));
#1383=DIRECTION('ref_axis',(0.,0.,-1.));
#1384=DIRECTION('center_axis',(0.707106781186548,0.707106781186548,0.));
#1385=DIRECTION('ref_axis',(0.,0.,-1.));
#1386=DIRECTION('center_axis',(0.,0.,-1.));
#1387=DIRECTION('ref_axis',(-1.,0.,0.));
#1388=DIRECTION('center_axis',(0.,0.,-1.));
#1389=DIRECTION('ref_axis',(0.,1.,0.));
#1390=DIRECTION('',(1.,0.,0.));
#1391=DIRECTION('center_axis',(1.,0.,0.));
#1392=DIRECTION('ref_axis',(0.,0.,-1.));
#1393=DIRECTION('center_axis',(0.,0.,1.));
#1394=DIRECTION('ref_axis',(1.,0.,0.));
#1395=DIRECTION('center_axis',(0.,0.,1.));
#1396=DIRECTION('ref_axis',(1.,0.,0.));
#1397=CARTESIAN_POINT('',(0.,0.,0.));
#1398=CARTESIAN_POINT('Origin',(9.5,-9.5,0.5));
#1399=CARTESIAN_POINT('',(9.5,-10.,0.5));
#1400=CARTESIAN_POINT('',(10.,-9.5,0.5));
#1401=CARTESIAN_POINT('Origin',(9.5,-9.5,0.5));
#1402=CARTESIAN_POINT('',(9.5,-9.5,0.));
#1403=CARTESIAN_POINT('Origin',(9.5,-9.5,0.5));
#1404=CARTESIAN_POINT('Origin',(9.5,-9.5,0.5));
#1405=CARTESIAN_POINT('Origin',(-5.,-9.5,0.5));
#1406=CARTESIAN_POINT('',(-10.,-10.,0.5));
#1407=CARTESIAN_POINT('',(-10.,-9.5,0.));
#1408=CARTESIAN_POINT('Origin',(-10.,-9.5,0.5));
#1409=CARTESIAN_POINT('',(-5.,-9.5,0.));
#1410=CARTESIAN_POINT('',(-5.,-10.,0.5));
#1411=CARTESIAN_POINT('Origin',(9.5,-5.,0.5));
#1412=CARTESIAN_POINT('',(10.,-8.,0.5));
#1413=CARTESIAN_POINT('',(10.,-5.,0.5));
#1414=CARTESIAN_POINT('',(9.5,-8.20710678118655,0.));
#1415=CARTESIAN_POINT('',(9.5,-5.,0.));
#1416=CARTESIAN_POINT('Origin',(9.5,-8.20710678118655,0.5));
#1417=CARTESIAN_POINT('Origin',(9.5,-9.5,19.5));
#1418=CARTESIAN_POINT('',(9.5,-10.,19.5));
#1419=CARTESIAN_POINT('',(9.5,-9.5,20.));
#1420=CARTESIAN_POINT('Origin',(9.5,-9.5,19.5));
#1421=CARTESIAN_POINT('',(10.,-9.5,19.5));
#1422=CARTESIAN_POINT('Origin',(9.5,-9.5,19.5));
#1423=CARTESIAN_POINT('Origin',(9.5,-9.5,19.5));
#1424=CARTESIAN_POINT('Origin',(9.5,-9.5,0.));
#1425=CARTESIAN_POINT('',(9.5,-10.,0.));
#1426=CARTESIAN_POINT('',(10.,-9.5,0.));
#1427=CARTESIAN_POINT('Origin',(5.,9.5,19.5));
#1428=CARTESIAN_POINT('',(-8.00000000000001,10.,19.5));
#1429=CARTESIAN_POINT('',(-10.,10.,19.5));
#1430=CARTESIAN_POINT('',(5.,10.,19.5));
#1431=CARTESIAN_POINT('',(-10.,9.5,20.));
#1432=CARTESIAN_POINT('Origin',(-10.,9.5,19.5));
#1433=CARTESIAN_POINT('',(-8.20710678118656,9.5,20.));
#1434=CARTESIAN_POINT('',(5.,9.5,20.));
#1435=CARTESIAN_POINT('Origin',(-8.20710678118655,9.5,19.5));
#1436=CARTESIAN_POINT('Origin',(5.14644660940673,-3.85355339059327,19.5));
#1437=CARTESIAN_POINT('',(10.,-8.,19.5));
#1438=CARTESIAN_POINT('',(5.5,-3.5,19.5));
#1439=CARTESIAN_POINT('',(9.5,-8.20710678118655,20.));
#1440=CARTESIAN_POINT('',(5.14644660940673,-3.85355339059327,20.));
#1441=CARTESIAN_POINT('Origin',(9.5,-8.20710678118655,19.5));
#1442=CARTESIAN_POINT('Origin',(9.5,-5.,19.5));
#1443=CARTESIAN_POINT('',(9.5,-5.,20.));
#1444=CARTESIAN_POINT('',(10.,-5.,19.5));
#1445=CARTESIAN_POINT('Origin',(-5.,-9.5,19.5));
#1446=CARTESIAN_POINT('',(-10.,-9.5,20.));
#1447=CARTESIAN_POINT('',(-10.,-10.,19.5));
#1448=CARTESIAN_POINT('Origin',(-10.,-9.5,19.5));
#1449=CARTESIAN_POINT('',(-5.,-10.,19.5));
#1450=CARTESIAN_POINT('',(-5.,-9.5,20.));
#1451=CARTESIAN_POINT('Origin',(5.14644660940673,-3.85355339059327,0.499999999999999));
#1452=CARTESIAN_POINT('',(-8.,10.,0.499999999999999));
#1453=CARTESIAN_POINT('',(5.5,-3.5,0.499999999999999));
#1454=CARTESIAN_POINT('',(-8.20710678118655,9.5,0.));
#1455=CARTESIAN_POINT('',(5.14644660940673,-3.85355339059327,0.));
#1456=CARTESIAN_POINT('Origin',(-8.20710678118655,9.5,0.499999999999999));
#1457=CARTESIAN_POINT('Origin',(5.,9.5,0.5));
#1458=CARTESIAN_POINT('',(-10.,9.5,0.));
#1459=CARTESIAN_POINT('',(5.,9.5,0.));
#1460=CARTESIAN_POINT('',(-10.,10.,0.5));
#1461=CARTESIAN_POINT('Origin',(-10.,9.5,0.5));
#1462=CARTESIAN_POINT('',(5.,10.,0.5));
#1463=CARTESIAN_POINT('Origin',(0.,0.,20.));
#1464=CARTESIAN_POINT('',(-10.,-10.,20.));
#1465=CARTESIAN_POINT('Origin',(10.,-8.,20.));
#1466=CARTESIAN_POINT('',(10.,-8.,17.7));
#1467=CARTESIAN_POINT('',(10.,-8.,10.));
#1468=CARTESIAN_POINT('',(-8.00000000000001,10.,17.7));
#1469=CARTESIAN_POINT('',(10.,-8.,17.7));
#1470=CARTESIAN_POINT('',(-8.00000000000001,10.,10.));
#1471=CARTESIAN_POINT('Origin',(10.,-10.,0.));
#1472=CARTESIAN_POINT('',(10.,-8.,2.3));
#1473=CARTESIAN_POINT('',(10.,-8.,1.));
#1474=CARTESIAN_POINT('',(10.,-8.2,2.44142135623731));
#1475=CARTESIAN_POINT('',(10.,-6.67169191983608,1.36074434901121));
#1476=CARTESIAN_POINT('',(10.,-8.2,17.5585786437627));
#1477=CARTESIAN_POINT('',(10.,-8.2,0.5));
#1478=CARTESIAN_POINT('',(10.,-12.8857371277464,14.2452621458757));
#1479=CARTESIAN_POINT('Origin',(10.,-8.,20.));
#1480=CARTESIAN_POINT('',(-8.,10.,2.3));
#1481=CARTESIAN_POINT('',(-8.,10.,5.));
#1482=CARTESIAN_POINT('',(5.5,-3.5,2.3));
#1483=CARTESIAN_POINT('Origin',(10.,10.,0.));
#1484=CARTESIAN_POINT('',(-8.2,10.,17.5585786437627));
#1485=CARTESIAN_POINT('',(-0.219070461079666,10.,23.2019480409052));
#1486=CARTESIAN_POINT('',(-8.2,10.,2.44142135623731));
#1487=CARTESIAN_POINT('',(-8.2,10.,2.5));
#1488=CARTESIAN_POINT('',(2.9949747468306,10.,-5.47462120245874));
#1489=CARTESIAN_POINT('',(-10.,10.,0.));
#1490=CARTESIAN_POINT('Origin',(-3.,-9.5,10.));
#1491=CARTESIAN_POINT('',(-3.,-10.,6.85));
#1492=CARTESIAN_POINT('',(-3.,-9.5,7.35));
#1493=CARTESIAN_POINT('Origin',(-3.,-9.5,6.85));
#1494=CARTESIAN_POINT('',(-3.,-9.5,12.65));
#1495=CARTESIAN_POINT('Origin',(-3.,-9.5,10.));
#1496=CARTESIAN_POINT('',(-3.,-10.,13.15));
#1497=CARTESIAN_POINT('Origin',(-3.,-9.5,13.15));
#1498=CARTESIAN_POINT('Origin',(-3.,-10.,10.));
#1499=CARTESIAN_POINT('Origin',(-10.,-9.5,6.85));
#1500=CARTESIAN_POINT('',(3.,-10.,6.85));
#1501=CARTESIAN_POINT('',(3.,-9.5,7.35));
#1502=CARTESIAN_POINT('Origin',(3.00000000000001,-9.5,6.85));
#1503=CARTESIAN_POINT('',(-10.,-9.5,7.35));
#1504=CARTESIAN_POINT('',(-10.,-10.,6.85));
#1505=CARTESIAN_POINT('Origin',(-3.,-9.5,13.15));
#1506=CARTESIAN_POINT('',(3.,-9.5,12.65));
#1507=CARTESIAN_POINT('',(3.,-10.,13.15));
#1508=CARTESIAN_POINT('Origin',(3.00000000000001,-9.5,13.15));
#1509=CARTESIAN_POINT('',(-3.,-10.,13.15));
#1510=CARTESIAN_POINT('',(-3.,-9.5,12.65));
#1511=CARTESIAN_POINT('Origin',(3.,-9.5,10.));
#1512=CARTESIAN_POINT('Origin',(3.,-9.5,10.));
#1513=CARTESIAN_POINT('Origin',(3.,-10.,10.));
#1514=CARTESIAN_POINT('Origin',(-3.,-10.,12.65));
#1515=CARTESIAN_POINT('',(-3.,-8.5,12.65));
#1516=CARTESIAN_POINT('',(-3.,-10.,12.65));
#1517=CARTESIAN_POINT('',(3.,-8.5,12.65));
#1518=CARTESIAN_POINT('',(-3.,-8.5,12.65));
#1519=CARTESIAN_POINT('',(3.,-10.,12.65));
#1520=CARTESIAN_POINT('Origin',(-3.,-10.,10.));
#1521=CARTESIAN_POINT('',(-3.,-8.5,7.35));
#1522=CARTESIAN_POINT('',(-3.,-10.,7.35));
#1523=CARTESIAN_POINT('Origin',(-3.,-8.5,10.));
#1524=CARTESIAN_POINT('Origin',(-10.,-10.,0.));
#1525=CARTESIAN_POINT('',(-10.,-10.,0.));
#1526=CARTESIAN_POINT('Origin',(-9.5,3.,10.));
#1527=CARTESIAN_POINT('',(-10.,3.,6.35));
#1528=CARTESIAN_POINT('',(-9.5,3.,6.85));
#1529=CARTESIAN_POINT('Origin',(-9.5,3.,6.35));
#1530=CARTESIAN_POINT('',(-9.5,3.,13.15));
#1531=CARTESIAN_POINT('Origin',(-9.5,3.,10.));
#1532=CARTESIAN_POINT('',(-10.,3.,13.65));
#1533=CARTESIAN_POINT('Origin',(-9.5,3.,13.65));
#1534=CARTESIAN_POINT('Origin',(-10.,3.,10.));
#1535=CARTESIAN_POINT('Origin',(-9.5,10.,6.35));
#1536=CARTESIAN_POINT('',(-10.,-3.,6.35));
#1537=CARTESIAN_POINT('',(-9.5,-3.,6.85));
#1538=CARTESIAN_POINT('Origin',(-9.5,-3.00000000000001,6.35));
#1539=CARTESIAN_POINT('',(-9.5,10.,6.85));
#1540=CARTESIAN_POINT('',(-10.,10.,6.35));
#1541=CARTESIAN_POINT('Origin',(-9.5,3.,13.65));
#1542=CARTESIAN_POINT('',(-9.5,-3.,13.15));
#1543=CARTESIAN_POINT('',(-10.,-3.,13.65));
#1544=CARTESIAN_POINT('Origin',(-9.5,-3.00000000000001,13.65));
#1545=CARTESIAN_POINT('',(-10.,3.,13.65));
#1546=CARTESIAN_POINT('',(-9.5,3.,13.15));
#1547=CARTESIAN_POINT('Origin',(-9.5,-3.,10.));
#1548=CARTESIAN_POINT('Origin',(-9.5,-3.,10.));
#1549=CARTESIAN_POINT('Origin',(-10.,-3.,10.));
#1550=CARTESIAN_POINT('Origin',(-10.,3.,13.15));
#1551=CARTESIAN_POINT('',(-8.5,3.,13.15));
#1552=CARTESIAN_POINT('',(-10.,3.,13.15));
#1553=CARTESIAN_POINT('',(-8.5,-3.,13.15));
#1554=CARTESIAN_POINT('',(-8.5,1.,13.15));
#1555=CARTESIAN_POINT('',(-10.,-3.,13.15));
#1556=CARTESIAN_POINT('Origin',(-10.,3.,10.));
#1557=CARTESIAN_POINT('',(-8.5,3.,6.85));
#1558=CARTESIAN_POINT('',(-10.,3.,6.85));
#1559=CARTESIAN_POINT('Origin',(-8.5,3.,10.));
#1560=CARTESIAN_POINT('Origin',(-10.,10.,0.));
#1561=CARTESIAN_POINT('',(-10.,-10.,0.));
#1562=CARTESIAN_POINT('Origin',(-8.5,1.,13.65));
#1563=CARTESIAN_POINT('',(-8.,-3.,13.65));
#1564=CARTESIAN_POINT('Origin',(-8.5,-3.,13.65));
#1565=CARTESIAN_POINT('',(-8.,3.,13.65));
#1566=CARTESIAN_POINT('Origin',(-8.5,3.,13.65));
#1567=CARTESIAN_POINT('',(-8.,1.,13.65));
#1568=CARTESIAN_POINT('Origin',(-8.5,-3.,10.));
#1569=CARTESIAN_POINT('',(-8.,-3.,6.35));
#1570=CARTESIAN_POINT('',(-8.5,-3.,6.85));
#1571=CARTESIAN_POINT('Origin',(-8.5,-3.,6.35));
#1572=CARTESIAN_POINT('Origin',(-8.5,-3.,10.));
#1573=CARTESIAN_POINT('Origin',(-8.,-3.,10.));
#1574=CARTESIAN_POINT('Origin',(-8.5,3.,10.));
#1575=CARTESIAN_POINT('',(-8.,3.,6.35));
#1576=CARTESIAN_POINT('Origin',(-8.5,3.,6.35));
#1577=CARTESIAN_POINT('Origin',(-8.,3.,10.));
#1578=CARTESIAN_POINT('Origin',(-8.5,1.,6.35));
#1579=CARTESIAN_POINT('',(-8.5,1.,6.85));
#1580=CARTESIAN_POINT('',(-8.,1.,6.35));
#1581=CARTESIAN_POINT('Origin',(-8.,1.,10.));
#1582=CARTESIAN_POINT('',(-8.,9.8,17.5585786437627));
#1583=CARTESIAN_POINT('',(-8.,9.01005050633882,17.));
#1584=CARTESIAN_POINT('',(-8.,-0.862047857124614,10.0193723026544));
#1585=CARTESIAN_POINT('',(-8.,-7.5,17.));
#1586=CARTESIAN_POINT('',(-8.,-3.5,17.));
#1587=CARTESIAN_POINT('',(-8.,-7.5,3.));
#1588=CARTESIAN_POINT('',(-8.,-7.5,6.));
#1589=CARTESIAN_POINT('',(-8.,9.01005050633883,3.));
#1590=CARTESIAN_POINT('',(-8.,5.5,3.));
#1591=CARTESIAN_POINT('',(-8.,9.8,2.44142135623731));
#1592=CARTESIAN_POINT('',(-8.,0.637952142875413,8.91996752556576));
#1593=CARTESIAN_POINT('',(-8.,9.8,7.5));
#1594=CARTESIAN_POINT('Origin',(3.,-8.5,10.));
#1595=CARTESIAN_POINT('',(3.,-8.,6.85));
#1596=CARTESIAN_POINT('',(3.,-8.5,7.35));
#1597=CARTESIAN_POINT('Origin',(3.,-8.5,6.85));
#1598=CARTESIAN_POINT('Origin',(3.,-8.5,10.));
#1599=CARTESIAN_POINT('',(3.,-8.,13.15));
#1600=CARTESIAN_POINT('Origin',(3.,-8.5,13.15));
#1601=CARTESIAN_POINT('Origin',(3.,-8.,10.));
#1602=CARTESIAN_POINT('Origin',(10.,-8.5,6.85));
#1603=CARTESIAN_POINT('',(-3.,-8.,6.85));
#1604=CARTESIAN_POINT('Origin',(-3.00000000000001,-8.5,6.85));
#1605=CARTESIAN_POINT('',(10.,-8.5,7.35));
#1606=CARTESIAN_POINT('',(10.,-8.,6.85));
#1607=CARTESIAN_POINT('Origin',(-3.,-8.5,13.15));
#1608=CARTESIAN_POINT('',(-3.,-8.,13.15));
#1609=CARTESIAN_POINT('Origin',(-3.,-8.5,13.15));
#1610=CARTESIAN_POINT('',(-3.,-8.,13.15));
#1611=CARTESIAN_POINT('Origin',(-3.,-8.5,10.));
#1612=CARTESIAN_POINT('Origin',(-3.,-8.,10.));
#1613=CARTESIAN_POINT('Origin',(3.,-10.,10.));
#1614=CARTESIAN_POINT('',(3.,-10.,7.35));
#1615=CARTESIAN_POINT('Origin',(10.,-8.,2.));
#1616=CARTESIAN_POINT('',(9.8,-8.,17.5585786437627));
#1617=CARTESIAN_POINT('',(9.01005050633883,-8.,17.));
#1618=CARTESIAN_POINT('',(6.25233405971131,-8.,15.05));
#1619=CARTESIAN_POINT('',(9.8,-8.,2.44142135623731));
#1620=CARTESIAN_POINT('',(9.8,-8.,1.5));
#1621=CARTESIAN_POINT('',(9.01005050633883,-8.,3.));
#1622=CARTESIAN_POINT('',(8.52357022603955,-8.,3.34399350511315));
#1623=CARTESIAN_POINT('',(-7.5,-8.,3.));
#1624=CARTESIAN_POINT('',(10.,-8.,3.));
#1625=CARTESIAN_POINT('',(-7.5,-8.,17.));
#1626=CARTESIAN_POINT('',(-7.5,-8.,6.));
#1627=CARTESIAN_POINT('',(10.,-8.,17.));
#1628=CARTESIAN_POINT('Origin',(-7.5,-7.5,3.));
#1629=CARTESIAN_POINT('',(-7.5,-7.5,2.5));
#1630=CARTESIAN_POINT('Origin',(-7.5,-7.5,3.));
#1631=CARTESIAN_POINT('Origin',(-7.5,-7.5,3.));
#1632=CARTESIAN_POINT('Origin',(-7.5,-7.5,3.));
#1633=CARTESIAN_POINT('Origin',(-7.5,-7.5,17.));
#1634=CARTESIAN_POINT('',(-7.5,-7.5,17.5));
#1635=CARTESIAN_POINT('Origin',(-7.5,-7.5,17.));
#1636=CARTESIAN_POINT('Origin',(-7.5,-7.5,17.));
#1637=CARTESIAN_POINT('Origin',(-7.5,-7.5,17.));
#1638=CARTESIAN_POINT('Origin',(10.,-7.5,17.));
#1639=CARTESIAN_POINT('',(9.21715728752538,-7.5,17.5));
#1640=CARTESIAN_POINT('Origin',(8.51005050633883,-7.5,17.));
#1641=CARTESIAN_POINT('',(10.,-7.5,17.5));
#1642=CARTESIAN_POINT('Origin',(-7.5,-7.5,6.));
#1643=CARTESIAN_POINT('Origin',(-7.5,-3.5,17.));
#1644=CARTESIAN_POINT('',(-7.5,9.21715728752538,17.5));
#1645=CARTESIAN_POINT('Origin',(-7.5,8.51005050633882,17.));
#1646=CARTESIAN_POINT('',(-7.5,-3.5,17.5));
#1647=CARTESIAN_POINT('Origin',(10.,-7.5,3.));
#1648=CARTESIAN_POINT('',(9.21715728752538,-7.5,2.5));
#1649=CARTESIAN_POINT('Origin',(8.51005050633883,-7.5,3.));
#1650=CARTESIAN_POINT('',(10.,-7.5,2.5));
#1651=CARTESIAN_POINT('Origin',(-7.5,5.5,3.));
#1652=CARTESIAN_POINT('',(-7.5,9.21715728752537,2.5));
#1653=CARTESIAN_POINT('Origin',(-7.5,8.51005050633883,3.));
#1654=CARTESIAN_POINT('',(-7.5,5.5,2.5));
#1655=CARTESIAN_POINT('Origin',(10.,-8.,17.5));
#1656=CARTESIAN_POINT('',(9.85857864376269,-8.14142135623731,17.5));
#1657=CARTESIAN_POINT('Origin',(9.92928932188135,-8.07071067811865,17.6));
#1658=CARTESIAN_POINT('',(0.9,0.9,17.5585786437627));
#1659=CARTESIAN_POINT('',(9.9,-8.1,17.5585786437627));
#1660=CARTESIAN_POINT('Origin',(5.42928932188135,-3.57071067811865,2.4));
#1661=CARTESIAN_POINT('',(5.35857864376269,-3.64142135623731,2.5));
#1662=CARTESIAN_POINT('',(7.65,-5.85,2.44142135623731));
#1663=CARTESIAN_POINT('',(-1.35,3.15,2.44142135623731));
#1664=CARTESIAN_POINT('Origin',(9.9,-8.1,1.));
#1665=CARTESIAN_POINT('Origin',(-8.1,9.9,5.));
#1666=CARTESIAN_POINT('Origin',(3.,-10.,7.35));
#1667=CARTESIAN_POINT('Origin',(-10.,-3.,6.85));
#1668=CARTESIAN_POINT('',(-10.,-3.,6.85));
#1669=CARTESIAN_POINT('Origin',(-10.,-3.,10.));
#1670=CARTESIAN_POINT('Origin',(10.,10.,2.5));
#1671=CARTESIAN_POINT('Origin',(0.,0.,0.));
#1672=UNCERTAINTY_MEASURE_WITH_UNIT(LENGTH_MEASURE(0.01),#1676,
'DISTANCE_ACCURACY_VALUE',
'Maximum model space distance between geometric entities at asserted c
onnectivities');
#1673=UNCERTAINTY_MEASURE_WITH_UNIT(LENGTH_MEASURE(0.01),#1676,
'DISTANCE_ACCURACY_VALUE',
'Maximum model space distance between geometric entities at asserted c
onnectivities');
#1674=(
GEOMETRIC_REPRESENTATION_CONTEXT(3)
GLOBAL_UNCERTAINTY_ASSIGNED_CONTEXT((#1672))
GLOBAL_UNIT_ASSIGNED_CONTEXT((#1676,#1678,#1679))
REPRESENTATION_CONTEXT('','3D')
);
#1675=(
GEOMETRIC_REPRESENTATION_CONTEXT(3)
GLOBAL_UNCERTAINTY_ASSIGNED_CONTEXT((#1673))
GLOBAL_UNIT_ASSIGNED_CONTEXT((#1676,#1678,#1679))
REPRESENTATION_CONTEXT('','3D')
);
#1676=(
LENGTH_UNIT()
NAMED_UNIT(*)
SI_UNIT(.MILLI.,.METRE.)
);
#1677=(
LENGTH_UNIT()
NAMED_UNIT(*)
SI_UNIT($,.METRE.)
);
#1678=(
NAMED_UNIT(*)
PLANE_ANGLE_UNIT()
SI_UNIT($,.RADIAN.)
);
#1679=(
NAMED_UNIT(*)
SI_UNIT($,.STERADIAN.)
SOLID_ANGLE_UNIT()
);
#1680=SHAPE_DEFINITION_REPRESENTATION(#1681,#1682);
#1681=PRODUCT_DEFINITION_SHAPE('',$,#1684);
#1682=SHAPE_REPRESENTATION('',(#972),#1674);
#1683=PRODUCT_DEFINITION_CONTEXT('part definition',#1688,'design');
#1684=PRODUCT_DEFINITION('corner bracket','corner bracket',#1685,#1683);
#1685=PRODUCT_DEFINITION_FORMATION('',$,#1690);
#1686=PRODUCT_RELATED_PRODUCT_CATEGORY('corner bracket',
'corner bracket',(#1690));
#1687=APPLICATION_PROTOCOL_DEFINITION('international standard',
'automotive_design',2009,#1688);
#1688=APPLICATION_CONTEXT(
'Core Data for Automotive Mechanical Design Process');
#1689=PRODUCT_CONTEXT('part definition',#1688,'mechanical');
#1690=PRODUCT('corner bracket','corner bracket',$,(#1689));
#1691=PRESENTATION_STYLE_ASSIGNMENT((#1692));
#1692=SURFACE_STYLE_USAGE(.BOTH.,#1693);
#1693=SURFACE_SIDE_STYLE('',(#1694));
#1694=SURFACE_STYLE_FILL_AREA(#1695);
#1695=FILL_AREA_STYLE(
'EPX 150 - Air Baked (with Carbon M2 M3 L1 3D Printers)',(#1696));
#1696=FILL_AREA_STYLE_COLOUR(
'EPX 150 - Air Baked (with Carbon M2 M3 L1 3D Printers)',#1697);
#1697=COLOUR_RGB(
'EPX 150 - Air Baked (with Carbon M2 M3 L1 3D Printers)',0.247058823529412,
0.247058823529412,0.247058823529412);
ENDSEC;
END-ISO-10303-21;
